<svg width="219" height="140" viewBox="0 0 219 140" fill="none" xmlns="http://www.w3.org/2000/svg">
<g clip-path="url(#clip0)">
<path d="M131.821 54.4698C130.695 52.1138 126.646 48.8437 122.74 45.6823C120.563 43.9194 118.501 42.2544 117.19 40.9376C117.028 40.7765 116.824 40.6647 116.602 40.6156C116.379 40.5664 116.147 40.5819 115.933 40.6601C115.122 40.9485 114.621 41.2043 114.23 41.3512C113.724 41.6155 113.167 41.7659 112.597 41.7919C112.419 41.8115 112.248 41.8706 112.095 41.9647C111.943 42.0588 111.813 42.1856 111.716 42.336C110.024 44.8716 108.266 44.6594 107.091 44.2622C106.715 44.137 106.65 43.9792 106.612 43.8269C106.362 42.7713 107.624 40.3173 109.267 38.6795C113.169 34.7728 115.176 33.7825 119.426 35.6978C124.258 37.8362 129.1 39.5393 129.138 39.5393C129.289 39.6 129.451 39.6295 129.614 39.6259C129.777 39.6223 129.937 39.5858 130.085 39.5184C130.233 39.451 130.366 39.3542 130.476 39.234C130.586 39.1137 130.67 38.9724 130.723 38.8187C130.777 38.6649 130.798 38.5019 130.787 38.3395C130.776 38.1772 130.731 38.0188 130.657 37.874C130.583 37.7293 130.48 37.6011 130.354 37.4973C130.229 37.3935 130.084 37.3163 129.927 37.2703C129.878 37.2703 125.145 35.5998 120.422 33.4615C114.915 31.0021 111.895 32.6235 107.581 36.9384C105.948 38.5707 103.706 41.9062 104.283 44.3384C104.404 44.8509 104.659 45.3224 105.021 45.7047C105.383 46.0869 105.84 46.3665 106.345 46.5148C109.066 47.4126 111.547 46.5529 113.419 44.099C114.046 44.0044 114.653 43.8116 115.22 43.5276C115.448 43.4297 115.71 43.31 116.063 43.1685C117.435 44.4581 119.29 45.9598 121.238 47.5214C124.747 50.4216 128.747 53.6373 129.645 55.5091C129.812 55.8021 129.868 56.1458 129.802 56.4768C129.736 56.8078 129.553 57.1038 129.285 57.3101C129.097 57.5029 128.855 57.6341 128.591 57.6866C128.327 57.739 128.053 57.7102 127.805 57.6039C127.619 57.4752 127.399 57.4022 127.172 57.3935C126.945 57.3849 126.721 57.4408 126.525 57.5549C126.328 57.6689 126.169 57.8364 126.064 58.0378C125.959 58.2391 125.914 58.4661 125.934 58.6922C125.933 58.9833 125.845 59.2677 125.681 59.5083C125.517 59.7489 125.285 59.9347 125.014 60.0416C124.735 60.2158 124.413 60.3117 124.084 60.3194C123.755 60.327 123.43 60.2461 123.142 60.0851C122.979 59.931 122.775 59.826 122.554 59.7823C122.334 59.7386 122.105 59.7579 121.895 59.8379C121.685 59.918 121.502 60.0556 121.366 60.235C121.231 60.4144 121.149 60.6283 121.129 60.8523C121.081 61.2578 120.924 61.6427 120.675 61.9664C120.426 62.2901 120.094 62.5406 119.714 62.6914C119.488 62.7941 119.237 62.8287 118.992 62.791C118.746 62.7533 118.517 62.645 118.332 62.4792C118.187 62.3455 118.011 62.2497 117.82 62.2003C117.629 62.151 117.429 62.1498 117.237 62.1966C117.045 62.2435 116.868 62.337 116.721 62.4689C116.574 62.6008 116.462 62.767 116.395 62.9526C116.352 63.0723 116.248 63.3607 115.122 63.3607C114.079 63.254 113.073 62.9096 112.184 62.3541C111.34 61.81 106.057 57.8597 101.492 54.04C100.85 53.4959 99.7398 52.3423 98.7713 51.3194C97.9062 50.4107 97.1118 49.5891 96.7037 49.2409C96.4583 49.0552 96.1512 48.9706 95.8454 49.0045C95.5396 49.0384 95.2584 49.1882 95.0597 49.4231C94.861 49.6581 94.76 49.9602 94.7773 50.2674C94.7946 50.5746 94.9291 50.8635 95.1529 51.0745C95.5229 51.3901 96.2412 52.1628 97.0356 52.9789C98.1238 54.0998 99.212 55.2534 99.9575 55.8791C104.43 59.6226 109.801 63.66 110.872 64.3673C112.157 65.1739 113.62 65.6523 115.133 65.7603C116.106 65.8245 117.07 65.541 117.853 64.9604C118.728 65.3027 119.7 65.3027 120.574 64.9604C121.663 64.5259 122.552 63.7042 123.072 62.6533C124.097 62.851 125.159 62.6977 126.086 62.218C126.987 61.7878 127.699 61.0427 128.088 60.1232C129.104 60.163 130.095 59.8059 130.852 59.1275C131.519 58.5763 131.977 57.8149 132.153 56.9684C132.329 56.122 132.212 55.2408 131.821 54.4698Z" fill="white"/>
<path d="M110.328 34.582H99.522C99.2178 34.6025 98.9327 34.7378 98.7245 34.9606C98.5162 35.1833 98.4004 35.4769 98.4004 35.7818C98.4004 36.0867 98.5162 36.3803 98.7245 36.603C98.9327 36.8258 99.2178 36.9611 99.522 36.9816H110.328C110.632 36.9611 110.918 36.8258 111.126 36.603C111.334 36.3803 111.45 36.0867 111.45 35.7818C111.45 35.4769 111.334 35.1833 111.126 34.9606C110.918 34.7378 110.632 34.6025 110.328 34.582Z" fill="white"/>
<path d="M135.329 51.9173C135.241 51.7862 135.128 51.6738 134.997 51.5864C134.866 51.499 134.719 51.4384 134.564 51.4081C134.409 51.3778 134.25 51.3783 134.096 51.4097C133.941 51.441 133.794 51.5026 133.664 51.5908L130.154 53.9468C129.951 54.094 129.798 54.3012 129.719 54.5394C129.639 54.7775 129.636 55.0347 129.709 55.2748C129.783 55.5148 129.93 55.7258 130.13 55.8779C130.33 56.0301 130.572 56.1159 130.823 56.1233C131.062 56.1237 131.296 56.0516 131.493 55.9165L135.002 53.5605C135.26 53.3829 135.438 53.1119 135.499 52.8051C135.56 52.4983 135.499 52.1798 135.329 51.9173Z" fill="white"/>
<path d="M127.875 57.6466C127.015 56.9665 123.174 53.0325 120.802 50.5731C120.7 50.4381 120.572 50.3261 120.425 50.2442C120.277 50.1624 120.114 50.1126 119.946 50.0982C119.778 50.0837 119.609 50.1049 119.45 50.1604C119.29 50.2159 119.145 50.3044 119.022 50.4201C118.899 50.5358 118.803 50.6761 118.738 50.8318C118.673 50.9876 118.642 51.1552 118.647 51.3238C118.652 51.4923 118.692 51.658 118.765 51.81C118.838 51.9619 118.942 52.0967 119.071 52.2055C119.686 52.8475 125.127 58.5226 126.395 59.5184C126.605 59.6873 126.866 59.7794 127.135 59.7796C127.317 59.7782 127.497 59.736 127.661 59.6559C127.825 59.5759 127.969 59.4601 128.082 59.3171C128.274 59.0675 128.36 58.7521 128.322 58.4394C128.283 58.1266 128.122 57.8418 127.875 57.6466Z" fill="white"/>
<path d="M123.081 60.0517C121.644 58.9036 118.031 55.0622 117.215 54.1753C117.108 54.0588 116.979 53.9646 116.835 53.898C116.692 53.8314 116.537 53.7937 116.378 53.7872C116.22 53.7806 116.062 53.8053 115.914 53.8597C115.765 53.9142 115.629 53.9973 115.512 54.1045C115.396 54.2117 115.301 54.3408 115.235 54.4844C115.168 54.628 115.131 54.7833 115.124 54.9414C115.118 55.0996 115.142 55.2575 115.197 55.4061C115.251 55.5547 115.334 55.6911 115.441 55.8076C115.485 55.8511 119.794 60.5088 121.579 61.9344C121.793 62.1025 122.058 62.1944 122.33 62.1955C122.578 62.1947 122.82 62.1169 123.023 61.9729C123.225 61.829 123.378 61.6258 123.46 61.3915C123.543 61.1571 123.55 60.903 123.482 60.6641C123.414 60.4251 123.274 60.2131 123.081 60.0572V60.0517Z" fill="white"/>
<path d="M118.303 62.468C116.589 61.0261 113.09 57.2989 112.404 56.5644C112.182 56.3574 111.89 56.2423 111.586 56.2422C111.282 56.242 110.99 56.3569 110.767 56.5636C110.544 56.7703 110.408 57.0536 110.386 57.3566C110.364 57.6595 110.457 57.9597 110.647 58.1967C111.632 59.2469 115 62.8 116.752 64.2963C116.996 64.5019 117.311 64.6023 117.629 64.5752C117.947 64.5482 118.241 64.396 118.447 64.1521C118.653 63.9082 118.753 63.5926 118.726 63.2748C118.699 62.9569 118.547 62.6628 118.303 62.4572V62.468Z" fill="white"/>
<path d="M100.348 32.5088C98.2909 30.5609 90.0638 29.9297 87.5935 29.7882C87.4302 29.7786 87.2667 29.8024 87.1129 29.8582C86.9591 29.9139 86.8183 30.0005 86.6991 30.1125C86.5799 30.2246 86.4849 30.3598 86.4197 30.5098C86.3546 30.6599 86.3208 30.8217 86.3203 30.9853V52.5976C86.3203 52.9156 86.4463 53.2206 86.6706 53.446C86.8949 53.6713 87.1994 53.7987 87.5174 53.8001H94.7215C94.9752 53.7989 95.2222 53.7179 95.4273 53.5685C95.6324 53.419 95.7852 53.2088 95.8641 52.9676C96.0382 52.4235 100.174 39.7347 100.718 33.4937C100.735 33.3121 100.711 33.1289 100.647 32.9582C100.583 32.7874 100.481 32.6337 100.348 32.5088ZM93.8455 51.3842H88.7199V32.2694C92.5777 32.5741 96.7401 33.2325 98.2528 33.967C97.6162 39.2286 94.7378 48.5657 93.8455 51.3842Z" fill="white"/>
<path d="M142.735 32.1826C133.311 32.1826 128.082 34.5931 127.864 34.6964C127.711 34.7686 127.575 34.8722 127.464 35.0006C127.354 35.1291 127.272 35.2793 127.224 35.4417C127.175 35.604 127.162 35.7747 127.184 35.9426C127.207 36.1104 127.264 36.2717 127.353 36.4159C128.838 38.8045 133.485 52.0538 134.377 55.3185C134.446 55.572 134.596 55.7958 134.804 55.9552C135.013 56.1146 135.268 56.2006 135.531 56.2H142.735C142.893 56.2 143.049 56.1688 143.194 56.1083C143.34 56.0478 143.472 55.9592 143.583 55.8474C143.695 55.7357 143.783 55.6031 143.843 55.4572C143.902 55.3114 143.933 55.1551 143.932 54.9975V33.3797C143.933 33.2223 143.902 33.0663 143.842 32.9207C143.783 32.7752 143.694 32.6429 143.583 32.5316C143.472 32.4203 143.34 32.3322 143.194 32.2723C143.048 32.2124 142.892 32.1819 142.735 32.1826ZM141.533 53.7895H136.429C135.292 50.0786 131.934 40.4151 130.057 36.4213C133.77 35.2449 137.638 34.6305 141.533 34.5985V53.7895Z" fill="white"/>
<path d="M171.073 5.17551L170.71 4.96606L170.347 5.17548L140.094 22.6416L139.732 22.851V23.2699V58.1967V58.6156L140.094 58.825L170.347 76.2857L170.71 76.495L171.073 76.2857L201.32 58.825L201.683 58.6156V58.1967V23.2699V22.8511L201.32 22.6417L171.073 5.17551ZM170.71 11.3697L193.363 24.4505L170.71 37.5261L148.051 24.4505L170.71 11.3697ZM145.28 55.4111V29.2491L167.933 42.3247V68.497L145.28 55.4111ZM196.135 55.4433L173.481 68.4985V42.3247L196.135 29.2491V55.4433Z" fill="white" stroke="white" stroke-width="1.45083"/>
<path d="M59.6395 5.17551L59.2768 4.96604L58.914 5.17551L28.6665 22.6417L28.3039 22.8511V23.2699V58.1967V58.6156L28.6666 58.825L58.9141 76.2857L59.2768 76.4951L59.6394 76.2857L89.8869 58.825L90.2496 58.6156V58.1967V23.2699V22.8511L89.887 22.6417L59.6395 5.17551ZM59.2768 11.3697L81.9406 24.4505L59.2768 37.5262L36.6181 24.4505L59.2768 11.3697ZM33.8465 55.4111V29.249L56.5055 42.3248V68.4971L33.8465 55.4111ZM84.707 55.4432L62.0481 68.4986V42.3248L84.707 29.249V55.4432Z" fill="white" stroke="white" stroke-width="1.45083"/>
<path fill-rule="evenodd" clip-rule="evenodd" d="M20.9514 110.671C19.4827 111.411 17.8566 111.784 16.2122 111.759C14.9064 111.794 13.6069 111.566 12.3915 111.087C11.1761 110.609 10.0697 109.89 9.13864 108.973C8.20982 108.086 7.47611 107.014 6.98428 105.827C6.49245 104.64 6.25328 103.364 6.28202 102.079C6.26544 100.376 6.69703 98.6987 7.53349 97.2151C8.35654 95.7475 9.56429 94.5322 11.0267 93.7001C12.5153 92.8423 14.2058 92.3971 15.9238 92.4105C17.2363 92.3935 18.5388 92.6406 19.7539 93.1369C20.9691 93.6332 22.072 94.3688 22.9973 95.2998L26.6048 91.6052C25.2442 90.3234 23.6501 89.3149 21.9091 88.6343C20.0369 87.9026 18.0427 87.5333 16.0326 87.5461C13.9175 87.5296 11.8183 87.9136 9.84599 88.6779C8.02279 89.3683 6.35866 90.4216 4.95438 91.7739C3.61442 93.0881 2.55069 94.6568 1.82571 96.388C0.685765 99.0587 0.377143 102.011 0.940098 104.86C1.50305 107.709 2.91145 110.321 4.98159 112.358C6.39143 113.702 8.05667 114.749 9.87864 115.438C11.8589 116.2 13.9649 116.584 16.087 116.569C18.5105 116.603 20.9119 116.105 23.1224 115.111C25.1264 114.22 26.8946 112.873 28.2861 111.177L24.4392 107.831C23.4903 109.013 22.3016 109.981 20.9514 110.671ZM50.0671 99.3915C49.2216 98.4029 48.1681 97.6132 46.982 97.079C45.7624 96.5232 44.4372 96.2373 43.097 96.2411C41.1325 96.225 39.2184 96.8624 37.6558 98.053V87.5679H32.2473V116.178H37.6395V103.489C38.193 102.805 38.8775 102.239 39.6527 101.824C40.533 101.323 41.5293 101.062 42.542 101.067C43.0924 101.039 43.6429 101.121 44.1613 101.308C44.6798 101.495 45.1559 101.783 45.5618 102.156C46.3562 102.928 46.7589 104.158 46.7589 105.834V116.172H52.1674V106.226C52.1915 104.86 52.008 103.499 51.6233 102.188C51.3046 101.158 50.7746 100.206 50.0671 99.3915ZM72.0549 98.2326C70.3779 96.9072 68.2938 96.2035 66.1566 96.2411C64.8516 96.2203 63.5566 96.4712 62.3538 96.978C61.151 97.4848 60.0668 98.2363 59.1702 99.1848C57.3753 101.08 56.3499 103.576 56.2935 106.186C56.2372 108.796 57.154 111.333 58.8655 113.305C59.7982 114.343 60.9456 115.165 62.2281 115.715C63.5537 116.304 64.9889 116.607 66.4396 116.602C68.4881 116.641 70.4819 115.94 72.0549 114.627V116.199H77.2403V96.6383H72.0549V98.2326ZM71.8535 109.349C71.3128 110.095 70.5997 110.7 69.775 111.112C68.9121 111.55 67.957 111.776 66.9892 111.77C66.285 111.788 65.5845 111.663 64.9306 111.401C64.2767 111.139 63.683 110.746 63.186 110.247C62.6889 109.748 62.2989 109.153 62.0397 108.498C61.7805 107.843 61.6576 107.142 61.6786 106.438C61.6552 105.04 62.1761 103.688 63.1314 102.667C63.602 102.148 64.1803 101.737 64.8258 101.463C65.4714 101.19 66.1688 101.06 66.8694 101.084C67.8483 101.077 68.8152 101.299 69.6934 101.731C70.5482 102.143 71.2938 102.751 71.8699 103.505L71.8535 109.349ZM86.1584 86.3327C85.2335 86.3144 84.3385 86.6603 83.6663 87.2958C83.341 87.6011 83.0817 87.9699 82.9045 88.3793C82.7272 88.7888 82.6358 89.2302 82.6358 89.6763C82.6358 90.1225 82.7272 90.5639 82.9045 90.9733C83.0817 91.3828 83.341 91.7515 83.6663 92.0568C84.3466 92.6801 85.2358 93.0258 86.1584 93.0258C87.081 93.0258 87.9701 92.6801 88.6504 92.0568C88.9758 91.7515 89.235 91.3828 89.4123 90.9733C89.5895 90.5639 89.681 90.1225 89.681 89.6763C89.681 89.2302 89.5895 88.7888 89.4123 88.3793C89.235 87.9699 88.9758 87.6011 88.6504 87.2958C87.9783 86.6603 87.0832 86.3144 86.1584 86.3327ZM83.4378 116.161H88.8354V96.6383H83.4487L83.4378 116.161ZM114.452 102.172C114.131 101.136 113.597 100.178 112.885 99.3589C112.038 98.37 110.983 97.5804 109.795 97.0464C108.577 96.4911 107.254 96.2053 105.915 96.2084C103.857 96.2114 101.861 96.9201 100.262 98.2162V96.6383H95.0765V116.178H100.463V103.489C101.018 102.804 101.704 102.238 102.482 101.824C103.36 101.323 104.355 101.062 105.366 101.067C105.916 101.038 106.467 101.119 106.986 101.306C107.504 101.493 107.98 101.782 108.386 102.156C109.185 102.928 109.583 104.158 109.583 105.834V116.172H114.991V106.226C115.027 104.861 114.852 103.5 114.474 102.188L114.452 102.172Z" fill="white"/>
<path fill-rule="evenodd" clip-rule="evenodd" d="M139.164 110.672C137.696 111.412 136.069 111.785 134.425 111.76C133.119 111.795 131.82 111.566 130.604 111.088C129.389 110.609 128.283 109.89 127.352 108.974C126.423 108.086 125.689 107.015 125.197 105.828C124.705 104.641 124.466 103.365 124.495 102.08C124.478 100.377 124.91 98.6993 125.746 97.2156C126.569 95.7508 127.774 94.5375 129.234 93.7061C130.731 92.8436 132.431 92.3983 134.158 92.4165C135.471 92.3996 136.773 92.6466 137.989 93.1429C139.204 93.6393 140.307 94.3748 141.232 95.3058L144.839 91.6112C143.464 90.3241 141.853 89.3153 140.095 88.6404C138.223 87.9086 136.228 87.5394 134.218 87.5521C132.095 87.538 129.988 87.9276 128.01 88.7002C126.206 89.39 124.559 90.4355 123.167 91.7745C121.827 93.0886 120.764 94.6574 120.039 96.3886C118.899 99.0593 118.59 102.012 119.153 104.86C119.716 107.709 121.124 110.322 123.194 112.358C124.604 113.702 126.27 114.75 128.092 115.438C130.072 116.201 132.178 116.585 134.3 116.57C136.722 116.604 139.121 116.106 141.33 115.112C143.336 114.222 145.107 112.875 146.499 111.178L142.652 107.831C141.703 109.014 140.515 109.982 139.164 110.672ZM164.95 97.6128C163.271 96.7127 161.395 96.2416 159.49 96.2416C157.585 96.2416 155.709 96.7127 154.03 97.6128C152.435 98.4757 151.104 99.7543 150.177 101.313C149.269 102.866 148.79 104.633 148.79 106.433C148.79 108.233 149.269 110 150.177 111.553C151.106 113.104 152.437 114.375 154.03 115.231C155.711 116.125 157.586 116.592 159.49 116.592C161.394 116.592 163.269 116.125 164.95 115.231C166.54 114.373 167.868 113.103 168.797 111.553C169.709 110.001 170.19 108.233 170.19 106.433C170.19 104.633 169.709 102.865 168.797 101.313C167.873 99.7496 166.544 98.4655 164.95 97.5965V97.6128ZM163.318 110.236C162.291 111.214 160.927 111.76 159.509 111.76C158.091 111.76 156.727 111.214 155.7 110.236C154.741 109.2 154.209 107.84 154.209 106.428C154.209 105.016 154.741 103.655 155.7 102.619C156.724 101.634 158.089 101.085 159.509 101.085C160.929 101.085 162.294 101.634 163.318 102.619C164.279 103.654 164.813 105.015 164.813 106.428C164.813 107.84 164.279 109.201 163.318 110.236ZM189.082 98.0536C187.44 96.8305 185.436 96.1926 183.39 96.2417C182.084 96.2214 180.789 96.4726 179.585 96.9794C178.382 97.4861 177.296 98.2373 176.398 99.1853C174.603 101.081 173.578 103.577 173.522 106.186C173.465 108.796 174.382 111.334 176.094 113.305C177.028 114.338 178.175 115.157 179.456 115.705C180.783 116.295 182.221 116.597 183.673 116.592C185.716 116.629 187.705 115.932 189.277 114.627V116.2H194.463V87.5685H189.071L189.082 98.0536ZM189.082 109.349C188.542 110.094 187.831 110.699 187.008 111.112C186.145 111.55 185.19 111.776 184.223 111.771C183.518 111.79 182.817 111.664 182.163 111.403C181.509 111.141 180.915 110.749 180.418 110.25C179.92 109.75 179.53 109.155 179.272 108.499C179.013 107.844 178.89 107.143 178.912 106.438C178.889 105.042 179.408 103.691 180.359 102.668C180.831 102.149 181.409 101.739 182.055 101.465C182.7 101.192 183.397 101.062 184.097 101.084C185.078 101.078 186.047 101.299 186.927 101.732C187.782 102.143 188.528 102.751 189.103 103.506L189.082 109.349ZM218.333 106.226C218.35 104.492 217.935 102.781 217.125 101.248C216.346 99.7465 215.175 98.4847 213.736 97.5965C212.268 96.681 210.568 96.2052 208.838 96.2253C207.449 96.2116 206.073 96.4935 204.801 97.0524C203.617 97.5638 202.559 98.3269 201.7 99.2887C200.856 100.248 200.195 101.355 199.752 102.553C199.287 103.794 199.051 105.108 199.055 106.433C199.055 109.447 200.047 111.894 202.032 113.773C204.081 115.672 206.798 116.683 209.589 116.586C211.169 116.589 212.734 116.278 214.193 115.672C215.596 115.11 216.846 114.222 217.838 113.082L214.78 110.111C214.152 110.758 213.415 111.29 212.604 111.684C211.709 112.133 210.721 112.362 209.72 112.353C208.375 112.384 207.064 111.926 206.031 111.063C205.53 110.654 205.117 110.148 204.818 109.575C204.518 109.001 204.339 108.373 204.29 107.728H218.23C218.31 107.232 218.344 106.729 218.333 106.226ZM204.513 103.881C204.657 102.925 205.171 102.063 205.944 101.482C206.753 100.808 207.775 100.446 208.828 100.459C209.834 100.44 210.808 100.81 211.548 101.492C212.261 102.096 212.712 102.952 212.805 103.881H204.513Z" fill="white"/>
<path fill-rule="evenodd" clip-rule="evenodd" d="M8.48667 133.127C7.95903 133.393 7.37431 133.526 6.78359 133.514C6.3153 133.526 5.8493 133.444 5.41358 133.272C4.97786 133.1 4.5814 132.841 4.248 132.512C3.9129 132.194 3.64827 131.808 3.47116 131.381C3.29404 130.953 3.20836 130.494 3.21962 130.031C3.21283 129.419 3.36868 128.817 3.67124 128.285C3.96586 127.758 4.39854 127.321 4.92271 127.022C5.46176 126.712 6.07446 126.552 6.69653 126.56C7.16731 126.554 7.63448 126.643 8.07012 126.821C8.50577 127 8.90097 127.264 9.23211 127.599L10.5271 126.266C10.0357 125.796 9.45715 125.426 8.82403 125.178C8.14878 124.919 7.43064 124.789 6.70741 124.797C5.94675 124.788 5.19146 124.925 4.48197 125.199C3.83265 125.441 3.23865 125.811 2.73536 126.288C2.25658 126.753 1.87388 127.307 1.60903 127.92C1.33978 128.568 1.20117 129.262 1.20117 129.963C1.20117 130.664 1.33978 131.359 1.60903 132.006C1.86694 132.654 2.25643 133.24 2.75284 133.729C3.24924 134.218 3.84175 134.599 4.49285 134.847C5.20582 135.123 5.96465 135.261 6.72918 135.255C7.60205 135.259 8.46543 135.074 9.25932 134.711C9.97945 134.39 10.6148 133.905 11.1148 133.296L9.7327 132.093C9.39399 132.521 8.96956 132.873 8.48667 133.127ZM34.6043 126.342C34.1048 125.866 33.5145 125.496 32.8686 125.254C31.4498 124.71 29.8799 124.71 28.4612 125.254C27.8163 125.495 27.2275 125.865 26.7309 126.342C26.2641 126.82 25.8945 127.383 25.6427 128.002C25.1061 129.303 25.1061 130.765 25.6427 132.066C25.9035 132.698 26.2904 133.27 26.7797 133.747C27.269 134.224 27.8504 134.596 28.4884 134.841C29.9071 135.385 31.477 135.385 32.8958 134.841C33.5407 134.597 34.1307 134.227 34.6315 133.753C35.0989 133.276 35.4686 132.712 35.7197 132.093C36.2563 130.792 36.2563 129.331 35.7197 128.029C35.4695 127.402 35.0978 126.831 34.6261 126.348L34.6043 126.342ZM33.6521 131.783C33.3558 132.317 32.9221 132.762 32.3958 133.072C31.8696 133.382 31.2701 133.545 30.6594 133.545C30.0488 133.545 29.4493 133.382 28.923 133.072C28.3968 132.762 27.9631 132.317 27.6668 131.783C27.3739 131.249 27.2204 130.649 27.2204 130.039C27.2204 129.43 27.3739 128.83 27.6668 128.295C27.9566 127.769 28.3834 127.331 28.9019 127.028C29.436 126.724 30.0398 126.565 30.654 126.565C31.2682 126.565 31.872 126.724 32.4061 127.028C32.9246 127.331 33.3514 127.769 33.6412 128.295C33.9341 128.83 34.0876 129.43 34.0876 130.039C34.0876 130.649 33.9341 131.249 33.6412 131.783H33.6521ZM58.4257 131.577L52.6254 124.966H51.2107V135.113H53.224V128.502L59.046 135.113H60.4662V124.966H58.4475L58.4257 131.577ZM81.7792 130.287C81.5434 130.066 81.2844 129.87 81.0066 129.705C80.7287 129.529 80.4333 129.384 80.1251 129.269C79.8204 129.155 79.5266 129.035 79.2382 128.916C78.9498 128.796 78.6941 128.682 78.4656 128.578C78.259 128.487 78.0738 128.354 77.9214 128.187C77.7857 128.038 77.7117 127.844 77.7147 127.643C77.7124 127.465 77.7635 127.29 77.8616 127.142C77.9569 126.997 78.0881 126.879 78.2425 126.799C78.4149 126.713 78.5978 126.649 78.7866 126.609C78.9759 126.566 79.1694 126.546 79.3634 126.549C79.7003 126.549 80.0342 126.612 80.3482 126.734C80.6464 126.841 80.9215 127.003 81.1589 127.213L82.2091 125.76C81.3278 125.124 80.2648 124.79 79.1784 124.808C78.7467 124.805 78.3172 124.87 77.9051 124.998C77.5158 125.121 77.1485 125.304 76.8169 125.542C76.4939 125.782 76.2282 126.091 76.0388 126.446C75.8369 126.816 75.7338 127.232 75.7395 127.653C75.7438 128.138 75.885 128.612 76.1469 129.02C76.4087 129.429 76.7805 129.754 77.2195 129.96C77.5055 130.113 77.7998 130.249 78.101 130.369C78.4492 130.51 78.7539 130.635 79.0151 130.733C79.2768 130.838 79.5329 130.956 79.7823 131.087C80.0103 131.2 80.2095 131.364 80.3645 131.566C80.5 131.756 80.5706 131.985 80.5658 132.219C80.5697 132.393 80.5335 132.566 80.4599 132.725C80.3863 132.883 80.2774 133.023 80.1414 133.133C79.8348 133.382 79.4481 133.511 79.0532 133.497C78.588 133.498 78.1285 133.394 77.7092 133.193C77.2874 132.996 76.907 132.721 76.5884 132.382L75.2281 133.737C76.2511 134.703 77.6025 135.245 79.0097 135.255C79.6124 135.26 80.2088 135.132 80.7563 134.879C81.2781 134.637 81.7267 134.262 82.0567 133.791C82.3796 133.329 82.5507 132.777 82.5464 132.213C82.549 131.84 82.4788 131.471 82.3397 131.125C82.2222 130.81 82.0385 130.524 81.801 130.287H81.7792ZM104.48 130.978C104.507 131.324 104.46 131.672 104.342 131.999C104.223 132.325 104.037 132.623 103.794 132.872C103.296 133.29 102.666 133.519 102.015 133.519C101.364 133.519 100.734 133.29 100.236 132.872C99.9931 132.623 99.8064 132.325 99.6882 131.999C99.57 131.672 99.5229 131.324 99.5501 130.978V124.966H97.5423V130.837C97.5001 131.464 97.5984 132.093 97.8299 132.677C98.0615 133.262 98.4205 133.787 98.8808 134.215C99.2965 134.564 99.7774 134.827 100.296 134.988C101.414 135.344 102.616 135.344 103.734 134.988C104.254 134.828 104.737 134.565 105.154 134.215C105.617 133.788 105.977 133.263 106.21 132.679C106.443 132.094 106.541 131.464 106.498 130.837V124.966H104.485L104.48 130.978ZM124.28 124.966H122.267V135.113H128.682V133.372H124.28V124.966ZM141.823 126.707H144.587V135.113H146.605V126.707H149.359V124.966H141.823V126.707ZM164.365 135.113H166.373V124.966H164.365V135.113ZM189.444 131.577L183.616 124.966H182.201V135.113H184.215V128.502L190.037 135.113H191.462V124.966H189.444V131.577ZM211.752 128.807V130.548H214.44V132.725C213.777 133.245 212.955 133.521 212.112 133.508C211.643 133.52 211.176 133.438 210.739 133.266C210.303 133.094 209.905 132.836 209.571 132.507C209.235 132.188 208.971 131.803 208.794 131.375C208.617 130.948 208.531 130.488 208.542 130.026C208.538 129.414 208.694 128.812 208.994 128.279C209.292 127.753 209.726 127.317 210.251 127.017C210.788 126.707 211.399 126.547 212.019 126.554C212.491 126.549 212.959 126.638 213.395 126.816C213.832 126.995 214.228 127.259 214.56 127.594L215.855 126.261C215.363 125.791 214.785 125.422 214.152 125.172C213.477 124.913 212.759 124.784 212.035 124.791C211.275 124.783 210.519 124.92 209.81 125.194C209.159 125.436 208.563 125.806 208.058 126.282C207.579 126.747 207.196 127.302 206.932 127.915C206.659 128.56 206.52 129.254 206.523 129.955C206.521 130.645 206.656 131.328 206.921 131.964C207.187 132.601 207.577 133.177 208.069 133.66C208.577 134.138 209.177 134.508 209.832 134.749C210.543 135.024 211.3 135.163 212.063 135.157C212.936 135.162 213.799 134.976 214.593 134.613C215.315 134.294 215.953 133.809 216.454 133.198V128.687L211.752 128.807Z" fill="white"/>
</g>
<defs>
<clipPath id="clip0">
<rect width="217.625" height="139.28" fill="white" transform="translate(0.6875)"/>
</clipPath>
</defs>
</svg>
