<svg width="20" height="20" viewBox="0 0 20 20" fill="none" xmlns="http://www.w3.org/2000/svg">
<path d="M19.2757 14.9775L15.7382 11.44C15.1132 10.8153 14.2657 10.4644 13.382 10.4644C12.4983 10.4644 11.6508 10.8153 11.0257 11.44L10.2066 12.2592C9.31858 13.0654 8.75283 14.1661 8.61407 15.3575C8.58572 15.7135 8.60506 16.0716 8.67157 16.4225C6.4429 15.3455 4.64466 13.5455 3.5699 11.3158C4.33724 11.437 5.1228 11.3609 5.85261 11.0947C6.58242 10.8285 7.23248 10.3809 7.74157 9.79415L8.55907 8.97665C8.86862 8.66712 9.11416 8.29965 9.28169 7.89522C9.44922 7.49079 9.53544 7.05732 9.53544 6.61957C9.53544 6.18181 9.44922 5.74835 9.28169 5.34392C9.11416 4.93949 8.86862 4.57202 8.55907 4.26248L5.02157 0.723318C4.73373 0.435362 4.37909 0.223133 3.98929 0.105565C3.59949 -0.012003 3.18664 -0.0312537 2.78759 0.0495305C2.38854 0.130315 2.01569 0.308621 1.7023 0.568543C1.38892 0.828464 1.14475 1.16192 0.991571 1.53915C-0.00576524 3.98126 -0.259261 6.66362 0.262922 9.24933C0.785105 11.835 2.05968 14.2088 3.92657 16.0725C6.44902 18.5674 9.84713 19.9769 13.3949 20C15.1311 19.9984 16.8507 19.6614 18.4591 19.0075C18.8364 18.8544 19.1699 18.6103 19.4299 18.2969C19.6899 17.9836 19.8683 17.6108 19.9492 17.2117C20.0301 16.8126 20.0109 16.3998 19.8934 16.0099C19.7759 15.6201 19.5637 15.2654 19.2757 14.9775Z" fill="#CDCFFF"/>
</svg>
