<svg width="20" height="20" viewBox="0 0 20 20" fill="none" xmlns="http://www.w3.org/2000/svg">
<g clip-path="url(#clip0)">
<path d="M19.9067 4.85979C19.8788 4.84796 19.8481 4.84474 19.8184 4.85053C19.7887 4.85632 19.7614 4.87086 19.74 4.89229L11.6175 13.0131C11.1878 13.4426 10.6051 13.6839 9.9975 13.6839C9.38994 13.6839 8.80724 13.4426 8.3775 13.0131L0.258335 4.89229C0.237091 4.87067 0.209795 4.85599 0.180043 4.85019C0.150291 4.84438 0.119479 4.84773 0.0916683 4.85979C0.0643406 4.87156 0.0410789 4.89111 0.0247795 4.916C0.00848017 4.9409 -0.000136756 4.97003 1.6413e-06 4.99979V14.9998C1.6413e-06 15.4418 0.175596 15.8657 0.488157 16.1783C0.800718 16.4909 1.22464 16.6665 1.66667 16.6665H18.3333C18.7754 16.6665 19.1993 16.4909 19.5118 16.1783C19.8244 15.8657 20 15.4418 20 14.9998V4.99979C20.0001 4.96982 19.9913 4.9405 19.9747 4.91557C19.958 4.89063 19.9344 4.87121 19.9067 4.85979Z" fill="#CDCFFF"/>
<path d="M9.26318 12.1299C9.45875 12.3249 9.72367 12.4344 9.99984 12.4344C10.276 12.4344 10.5409 12.3249 10.7365 12.1299L18.8082 4.05825C18.8628 4.00361 18.9012 3.93484 18.919 3.85964C18.9368 3.78444 18.9333 3.70577 18.909 3.63242C18.8173 3.35825 18.5623 3.33325 18.334 3.33325H1.66734C1.43818 3.33325 1.18151 3.35825 1.09151 3.63242C1.06718 3.70577 1.06372 3.78444 1.08152 3.85964C1.09933 3.93484 1.1377 4.00361 1.19234 4.05825L9.26318 12.1299Z" fill="#CDCFFF"/>
</g>
<defs>
<clipPath id="clip0">
<rect width="20" height="20" fill="white"/>
</clipPath>
</defs>
</svg>
