<svg width="79" height="62" viewBox="0 0 79 62" fill="none" xmlns="http://www.w3.org/2000/svg">
<path d="M50.346 0.5C38.2568 0.5 28.4453 10.3137 28.4453 22.4007C28.4453 34.492 38.2568 44.3013 50.346 44.3013C62.457 44.3013 72.2466 34.492 72.2466 22.4007C72.2466 10.3137 62.457 0.5 50.346 0.5Z" fill="#4096FE"/>
<g opacity="0.5" filter="url(#filter0_f)">
<path d="M50.3464 12.144C44.6848 12.144 40.0898 16.74 40.0898 22.4006C40.0898 28.0633 44.6848 32.6572 50.3464 32.6572C56.0183 32.6572 60.603 28.0633 60.603 22.4006C60.603 16.74 56.0183 12.144 50.3464 12.144Z" fill="#5F9DFF"/>
</g>
<g filter="url(#filter1_b)">
<mask id="path-3-outside-1" maskUnits="userSpaceOnUse" x="0.753906" y="3.60767" width="58" height="58" fill="black">
<rect fill="white" x="0.753906" y="3.60767" width="58" height="58"/>
<path d="M29.7001 4.60767C14.2738 4.60767 1.75391 17.1303 1.75391 32.5538C1.75391 47.9829 14.2738 60.5 29.7001 60.5C45.1543 60.5 57.6462 47.9829 57.6462 32.5538C57.6462 17.1303 45.1543 4.60767 29.7001 4.60767Z"/>
</mask>
<path d="M29.7001 4.60767C14.2738 4.60767 1.75391 17.1303 1.75391 32.5538C1.75391 47.9829 14.2738 60.5 29.7001 60.5C45.1543 60.5 57.6462 47.9829 57.6462 32.5538C57.6462 17.1303 45.1543 4.60767 29.7001 4.60767Z" fill="#3EA0FE" fill-opacity="0.35"/>
<path d="M29.7001 3.60767C29.1478 3.60767 28.7001 4.05538 28.7001 4.60767C28.7001 5.15995 29.1478 5.60767 29.7001 5.60767V3.60767ZM29.7001 3.60767C13.7214 3.60767 0.753906 16.5781 0.753906 32.5538H2.75391C2.75391 17.6826 14.8261 5.60767 29.7001 5.60767V3.60767ZM0.753906 32.5538C0.753906 48.5352 13.7216 61.5 29.7001 61.5V59.5C14.826 59.5 2.75391 47.4305 2.75391 32.5538H0.753906ZM29.7001 61.5C45.7072 61.5 58.6462 48.5346 58.6462 32.5538H56.6462C56.6462 47.4312 44.6014 59.5 29.7001 59.5V61.5ZM58.6462 32.5538C58.6462 16.5788 45.7073 3.60767 29.7001 3.60767V5.60767C44.6013 5.60767 56.6462 17.6819 56.6462 32.5538H58.6462Z" fill="url(#paint0_linear)" mask="url(#path-3-outside-1)"/>
</g>
<g filter="url(#filter2_bd)">
<mask id="path-5-inside-2" fill="white">
<path fill-rule="evenodd" clip-rule="evenodd" d="M29.6995 19.5032C28.3581 19.5032 27.2402 20.6238 27.2402 21.9624V34.3146C27.2402 35.6588 28.3581 36.7459 29.6995 36.7459C31.0409 36.7459 32.1308 35.6588 32.1308 34.3146V21.9624C32.1308 20.6238 31.0409 19.5032 29.6995 19.5032ZM27.2676 43.1755C27.2676 44.5169 28.3575 45.6347 29.7269 45.6347C31.0683 45.6347 32.1582 44.5169 32.1582 43.1755C32.1582 41.8341 31.0683 40.7442 29.699 40.7442C28.3575 40.7442 27.2676 41.8341 27.2676 43.1755Z"/>
</mask>
<path fill-rule="evenodd" clip-rule="evenodd" d="M29.6995 19.5032C28.3581 19.5032 27.2402 20.6238 27.2402 21.9624V34.3146C27.2402 35.6588 28.3581 36.7459 29.6995 36.7459C31.0409 36.7459 32.1308 35.6588 32.1308 34.3146V21.9624C32.1308 20.6238 31.0409 19.5032 29.6995 19.5032ZM27.2676 43.1755C27.2676 44.5169 28.3575 45.6347 29.7269 45.6347C31.0683 45.6347 32.1582 44.5169 32.1582 43.1755C32.1582 41.8341 31.0683 40.7442 29.699 40.7442C28.3575 40.7442 27.2676 41.8341 27.2676 43.1755Z" fill="url(#paint1_linear)"/>
<path d="M27.6402 21.9624C27.6402 20.8444 28.5793 19.9032 29.6995 19.9032V19.1032C28.1369 19.1032 26.8402 20.4032 26.8402 21.9624H27.6402ZM27.6402 34.3146V21.9624H26.8402V34.3146H27.6402ZM29.6995 36.3459C28.5727 36.3459 27.6402 35.4317 27.6402 34.3146H26.8402C26.8402 35.886 28.1434 37.1459 29.6995 37.1459V36.3459ZM31.7308 34.3146C31.7308 35.4376 30.8203 36.3459 29.6995 36.3459V37.1459C31.2615 37.1459 32.5308 35.8801 32.5308 34.3146H31.7308ZM31.7308 21.9624V34.3146H32.5308V21.9624H31.7308ZM29.6995 19.9032C30.8138 19.9032 31.7308 20.8385 31.7308 21.9624H32.5308C32.5308 20.4092 31.268 19.1032 29.6995 19.1032V19.9032ZM29.7269 45.2347C28.5814 45.2347 27.6676 44.2989 27.6676 43.1755H26.8676C26.8676 44.7348 28.1337 46.0347 29.7269 46.0347V45.2347ZM31.7582 43.1755C31.7582 44.3019 30.8415 45.2347 29.7269 45.2347V46.0347C31.2951 46.0347 32.5582 44.7318 32.5582 43.1755H31.7582ZM29.699 41.1442C30.8504 41.1442 31.7582 42.058 31.7582 43.1755H32.5582C32.5582 41.6102 31.2862 40.3442 29.699 40.3442V41.1442ZM27.6676 43.1755C27.6676 42.055 28.5785 41.1442 29.699 41.1442V40.3442C28.1366 40.3442 26.8676 41.6131 26.8676 43.1755H27.6676Z" fill="url(#paint2_linear)" mask="url(#path-5-inside-2)"/>
</g>
<defs>
<filter id="filter0_f" x="22.0898" y="-5.85596" width="56.5137" height="56.5132" filterUnits="userSpaceOnUse" color-interpolation-filters="sRGB">
<feFlood flood-opacity="0" result="BackgroundImageFix"/>
<feBlend mode="normal" in="SourceGraphic" in2="BackgroundImageFix" result="shape"/>
<feGaussianBlur stdDeviation="9" result="effect1_foregroundBlur"/>
</filter>
<filter id="filter1_b" x="-23.2461" y="-20.3923" width="105.893" height="105.892" filterUnits="userSpaceOnUse" color-interpolation-filters="sRGB">
<feFlood flood-opacity="0" result="BackgroundImageFix"/>
<feGaussianBlur in="BackgroundImage" stdDeviation="12"/>
<feComposite in2="SourceAlpha" operator="in" result="effect1_backgroundBlur"/>
<feBlend mode="normal" in="SourceGraphic" in2="effect1_backgroundBlur" result="shape"/>
</filter>
<filter id="filter2_bd" x="12.2402" y="4.50317" width="34.918" height="56.1316" filterUnits="userSpaceOnUse" color-interpolation-filters="sRGB">
<feFlood flood-opacity="0" result="BackgroundImageFix"/>
<feGaussianBlur in="BackgroundImage" stdDeviation="7.5"/>
<feComposite in2="SourceAlpha" operator="in" result="effect1_backgroundBlur"/>
<feColorMatrix in="SourceAlpha" type="matrix" values="0 0 0 0 0 0 0 0 0 0 0 0 0 0 0 0 0 0 127 0" result="hardAlpha"/>
<feOffset dx="5" dy="5"/>
<feGaussianBlur stdDeviation="5"/>
<feColorMatrix type="matrix" values="0 0 0 0 0.25098 0 0 0 0 0.588235 0 0 0 0 0.996078 0 0 0 1 0"/>
<feBlend mode="normal" in2="effect1_backgroundBlur" result="effect2_dropShadow"/>
<feBlend mode="normal" in="SourceGraphic" in2="effect2_dropShadow" result="shape"/>
</filter>
<linearGradient id="paint0_linear" x1="10.651" y1="11.1192" x2="46.3044" y2="55.2767" gradientUnits="userSpaceOnUse">
<stop stop-color="white" stop-opacity="0.25"/>
<stop offset="1" stop-color="white" stop-opacity="0"/>
</linearGradient>
<linearGradient id="paint1_linear" x1="29.6998" y1="20.9772" x2="25.1738" y2="20.6198" gradientUnits="userSpaceOnUse">
<stop stop-color="white" stop-opacity="0.75"/>
<stop offset="1" stop-color="white" stop-opacity="0.2"/>
</linearGradient>
<linearGradient id="paint2_linear" x1="28.0231" y1="22.5475" x2="35.5628" y2="24.305" gradientUnits="userSpaceOnUse">
<stop stop-color="white" stop-opacity="0.25"/>
<stop offset="1" stop-color="white" stop-opacity="0"/>
</linearGradient>
</defs>
</svg>
