<svg width="77" height="62" viewBox="0 0 77 62" fill="none" xmlns="http://www.w3.org/2000/svg">
<path fill-rule="evenodd" clip-rule="evenodd" d="M13.6777 35.7648L13.6777 11.4766C13.6777 5.41382 18.5429 0.499999 24.5457 0.5L43.8127 0.500002C50.106 0.500002 55.2374 5.65829 55.2374 12.0145L55.2374 14.1304V38.4186C55.2374 44.4814 50.3723 49.3952 44.3695 49.3952H25.1024C18.8092 49.3952 13.6777 44.2369 13.6777 37.8807L13.6777 35.7648Z" fill="url(#paint0_linear)"/>
<g opacity="0.5" filter="url(#filter0_f)">
<rect x="21.5352" y="35.6543" width="25.383" height="21.7569" rx="5" transform="rotate(-90 21.5352 35.6543)" fill="#8237FF" fill-opacity="0.5"/>
</g>
<g filter="url(#filter1_b)">
<path d="M33.68 11.6062L51.6532 11.6062L64.3233 25.2351V49.5233C64.3233 55.5861 59.4582 60.4999 53.4554 60.4999L34.1883 60.4999C27.8951 60.4999 22.7637 55.3417 22.7637 48.9855L22.7637 22.6317C22.7637 16.5689 27.653 11.6062 33.68 11.6062Z" fill="#BA90FF" fill-opacity="0.35"/>
<path d="M52.0194 11.2658C51.9248 11.164 51.7921 11.1062 51.6532 11.1062L33.68 11.1062C27.3715 11.1062 22.2637 16.2982 22.2637 22.6317L22.2637 48.9855C22.2637 55.6145 27.6156 60.9999 34.1883 60.9999L53.4554 60.9999C59.739 60.9999 64.8233 55.8576 64.8233 49.5233V25.2351C64.8233 25.1088 64.7755 24.9872 64.6895 24.8947L52.0194 11.2658Z" stroke="url(#paint1_linear)" stroke-linecap="round" stroke-linejoin="round"/>
</g>
<mask id="path-5-inside-1" fill="white">
<path fill-rule="evenodd" clip-rule="evenodd" d="M43.3599 30.7864H35.1786C34.1862 30.7864 33.3633 31.6176 33.3633 32.6199C33.3633 33.6222 34.1862 34.429 35.1786 34.429H43.3599C44.3523 34.429 45.1752 33.6222 45.1752 32.6199C45.1752 31.6176 44.3523 30.7864 43.3599 30.7864ZM35.1787 46.6517H48.3462C49.3386 46.6517 50.1615 45.8205 50.1615 44.8182C50.1615 43.8158 49.3386 43.0091 48.3462 43.0091H35.1787C34.1863 43.0091 33.3634 43.8158 33.3634 44.8182C33.3634 45.8205 34.1863 46.6517 35.1787 46.6517Z"/>
</mask>
<path fill-rule="evenodd" clip-rule="evenodd" d="M43.3599 30.7864H35.1786C34.1862 30.7864 33.3633 31.6176 33.3633 32.6199C33.3633 33.6222 34.1862 34.429 35.1786 34.429H43.3599C44.3523 34.429 45.1752 33.6222 45.1752 32.6199C45.1752 31.6176 44.3523 30.7864 43.3599 30.7864ZM35.1787 46.6517H48.3462C49.3386 46.6517 50.1615 45.8205 50.1615 44.8182C50.1615 43.8158 49.3386 43.0091 48.3462 43.0091H35.1787C34.1863 43.0091 33.3634 43.8158 33.3634 44.8182C33.3634 45.8205 34.1863 46.6517 35.1787 46.6517Z" fill="url(#paint2_linear)"/>
<path d="M35.1786 31.1864H43.3599V30.3864H35.1786V31.1864ZM33.7633 32.6199C33.7633 31.8347 34.4109 31.1864 35.1786 31.1864V30.3864C33.9616 30.3864 32.9633 31.4004 32.9633 32.6199H33.7633ZM35.1786 34.029C34.4039 34.029 33.7633 33.3981 33.7633 32.6199H32.9633C32.9633 33.8464 33.9686 34.829 35.1786 34.829V34.029ZM43.3599 34.029H35.1786V34.829H43.3599V34.029ZM44.7752 32.6199C44.7752 33.3981 44.1346 34.029 43.3599 34.029V34.829C44.5699 34.829 45.5752 33.8464 45.5752 32.6199H44.7752ZM43.3599 31.1864C44.1276 31.1864 44.7752 31.8347 44.7752 32.6199H45.5752C45.5752 31.4004 44.5769 30.3864 43.3599 30.3864V31.1864ZM48.3462 46.2517H35.1787V47.0517H48.3462V46.2517ZM49.7615 44.8182C49.7615 45.6033 49.1139 46.2517 48.3462 46.2517V47.0517C49.5632 47.0517 50.5615 46.0376 50.5615 44.8182H49.7615ZM48.3462 43.4091C49.1209 43.4091 49.7615 44.04 49.7615 44.8182H50.5615C50.5615 43.5917 49.5562 42.6091 48.3462 42.6091V43.4091ZM35.1787 43.4091H48.3462V42.6091H35.1787V43.4091ZM33.7634 44.8182C33.7634 44.04 34.404 43.4091 35.1787 43.4091V42.6091C33.9687 42.6091 32.9634 43.5917 32.9634 44.8182H33.7634ZM35.1787 46.2517C34.411 46.2517 33.7634 45.6033 33.7634 44.8182H32.9634C32.9634 46.0376 33.9617 47.0517 35.1787 47.0517V46.2517Z" fill="url(#paint3_linear)" mask="url(#path-5-inside-1)"/>
<g filter="url(#filter2_bd)">
<mask id="path-7-inside-2" fill="white">
<path d="M53.8938 27.1871C55.5809 27.2042 57.9264 27.2116 59.916 27.2042C60.935 27.2018 61.453 25.9721 60.7462 25.2314C58.1902 22.5471 53.6179 17.7433 51.0014 14.9955C50.2776 14.2352 49.0117 14.7583 49.0117 15.812V22.2562C49.0117 24.96 51.2168 27.1871 53.8938 27.1871Z"/>
</mask>
<path d="M53.8938 27.1871C55.5809 27.2042 57.9264 27.2116 59.916 27.2042C60.935 27.2018 61.453 25.9721 60.7462 25.2314C58.1902 22.5471 53.6179 17.7433 51.0014 14.9955C50.2776 14.2352 49.0117 14.7583 49.0117 15.812V22.2562C49.0117 24.96 51.2168 27.1871 53.8938 27.1871Z" fill="url(#paint4_linear)"/>
<path d="M59.916 27.2042L59.915 26.8042L59.9145 26.8042L59.916 27.2042ZM60.7462 25.2314L60.4565 25.5072L60.4568 25.5075L60.7462 25.2314ZM51.0014 14.9955L50.7116 15.2713L50.7117 15.2713L51.0014 14.9955ZM53.8898 27.5871C55.5789 27.6042 57.9262 27.6116 59.9175 27.6042L59.9145 26.8042C57.9266 26.8116 55.583 26.8042 53.8979 26.7871L53.8898 27.5871ZM59.917 27.6042C61.2938 27.6009 61.9805 25.9456 61.0356 24.9552L60.4568 25.5075C60.9255 25.9987 60.5762 26.8027 59.915 26.8042L59.917 27.6042ZM61.0359 24.9555C58.477 22.2683 53.9106 17.4706 51.291 14.7196L50.7117 15.2713C53.3252 18.016 57.9034 22.826 60.4565 25.5072L61.0359 24.9555ZM51.2911 14.7197C50.3085 13.6874 48.6117 14.4116 48.6117 15.812H49.4117C49.4117 15.1051 50.2468 14.7829 50.7116 15.2713L51.2911 14.7197ZM48.6117 15.812V22.2562H49.4117V15.812H48.6117ZM48.6117 22.2562C48.6117 25.1772 50.9921 27.5871 53.8938 27.5871V26.7871C51.4414 26.7871 49.4117 24.7429 49.4117 22.2562H48.6117Z" fill="url(#paint5_linear)" mask="url(#path-7-inside-2)"/>
</g>
<defs>
<filter id="filter0_f" x="0.535156" y="-10.7288" width="63.7578" height="67.3831" filterUnits="userSpaceOnUse" color-interpolation-filters="sRGB">
<feFlood flood-opacity="0" result="BackgroundImageFix"/>
<feBlend mode="normal" in="SourceGraphic" in2="BackgroundImageFix" result="shape"/>
<feGaussianBlur stdDeviation="10.5" result="effect1_foregroundBlur"/>
</filter>
<filter id="filter1_b" x="-2.23633" y="-13.3938" width="91.5605" height="98.8938" filterUnits="userSpaceOnUse" color-interpolation-filters="sRGB">
<feFlood flood-opacity="0" result="BackgroundImageFix"/>
<feGaussianBlur in="BackgroundImage" stdDeviation="12"/>
<feComposite in2="SourceAlpha" operator="in" result="effect1_backgroundBlur"/>
<feBlend mode="normal" in="SourceGraphic" in2="effect1_backgroundBlur" result="shape"/>
</filter>
<filter id="filter2_bd" x="34.0117" y="-0.36499" width="42.0605" height="42.572" filterUnits="userSpaceOnUse" color-interpolation-filters="sRGB">
<feFlood flood-opacity="0" result="BackgroundImageFix"/>
<feGaussianBlur in="BackgroundImage" stdDeviation="7.5"/>
<feComposite in2="SourceAlpha" operator="in" result="effect1_backgroundBlur"/>
<feColorMatrix in="SourceAlpha" type="matrix" values="0 0 0 0 0 0 0 0 0 0 0 0 0 0 0 0 0 0 127 0" result="hardAlpha"/>
<feOffset dx="5" dy="5"/>
<feGaussianBlur stdDeviation="5"/>
<feColorMatrix type="matrix" values="0 0 0 0 0.577356 0 0 0 0 0.359375 0 0 0 0 0.9375 0 0 0 0.25 0"/>
<feBlend mode="normal" in2="effect1_backgroundBlur" result="effect2_dropShadow"/>
<feBlend mode="normal" in="SourceGraphic" in2="effect2_dropShadow" result="shape"/>
</filter>
<linearGradient id="paint0_linear" x1="43.5075" y1="0.5" x2="43.5075" y2="49.3952" gradientUnits="userSpaceOnUse">
<stop stop-color="#BC94FF"/>
<stop offset="1" stop-color="#9F66FF"/>
</linearGradient>
<linearGradient id="paint1_linear" x1="29.3793" y1="17.3024" x2="61.2426" y2="50.8463" gradientUnits="userSpaceOnUse">
<stop stop-color="white" stop-opacity="0.25"/>
<stop offset="1" stop-color="white" stop-opacity="0"/>
</linearGradient>
<linearGradient id="paint2_linear" x1="48.9705" y1="33.6513" x2="30.2613" y2="34.2972" gradientUnits="userSpaceOnUse">
<stop stop-color="white"/>
<stop offset="1" stop-color="white" stop-opacity="0.2"/>
</linearGradient>
<linearGradient id="paint3_linear" x1="36.0373" y1="32.6347" x2="46.0211" y2="45.727" gradientUnits="userSpaceOnUse">
<stop stop-color="white" stop-opacity="0.25"/>
<stop offset="1" stop-color="white" stop-opacity="0"/>
</linearGradient>
<linearGradient id="paint4_linear" x1="60.2171" y1="16.9053" x2="46.7818" y2="17.3255" gradientUnits="userSpaceOnUse">
<stop stop-color="white"/>
<stop offset="1" stop-color="white" stop-opacity="0.2"/>
</linearGradient>
<linearGradient id="paint5_linear" x1="50.9316" y1="16.0997" x2="59.015" y2="25.7038" gradientUnits="userSpaceOnUse">
<stop stop-color="white" stop-opacity="0.25"/>
<stop offset="1" stop-color="white" stop-opacity="0"/>
</linearGradient>
</defs>
</svg>
