<svg width="257" height="275" viewBox="0 0 257 275" fill="none" xmlns="http://www.w3.org/2000/svg">
<g clip-path="url(#clip0_1_1278)">
<g style="mix-blend-mode:multiply" opacity="0.36">
<path d="M106.863 189.029C156.958 189.029 197.568 148.42 197.568 98.325C197.568 48.2303 156.958 7.62061 106.863 7.62061C56.7687 7.62061 16.159 48.2303 16.159 98.325C16.159 148.42 56.7687 189.029 106.863 189.029Z" fill="#DADEEA"/>
</g>
<g style="mix-blend-mode:multiply" opacity="0.36">
<path d="M132.126 268.882C201.092 268.882 257 265.158 257 260.563C257 255.969 201.092 252.244 132.126 252.244C63.1608 252.244 7.25315 255.969 7.25315 260.563C7.25315 265.158 63.1608 268.882 132.126 268.882Z" fill="#7DBBF1"/>
</g>
<path d="M93.8746 180.245C93.8746 180.245 93.5238 173.049 83.342 169.214C83.342 169.214 84.9177 178.931 93.8746 180.245Z" fill="#48BE97"/>
<path d="M93.0709 192.972C93.0709 192.972 92.0119 183.683 78.5 179.575C78.5 179.575 81.3581 192.028 93.0709 192.972Z" fill="#48BE97"/>
<path d="M96.4456 211.383C96.4456 211.383 94.9081 200.615 79.0614 196.276C79.0614 196.276 82.7934 210.669 96.4456 211.383Z" fill="#48BE97"/>
<path d="M107.508 230.688C107.508 230.688 101.505 219.051 81.7727 220.391C81.7727 220.391 91.7056 235.275 107.508 230.688Z" fill="#48BE97"/>
<path d="M93.8619 180.379C93.8619 180.379 95.259 173.31 105.887 171.001C105.9 171.001 102.914 180.385 93.8619 180.379Z" fill="#48BE97"/>
<path d="M92.8093 193.093C92.8093 193.093 95.208 184.053 109.166 181.961C109.166 181.961 104.529 193.859 92.8093 193.093Z" fill="#48BE97"/>
<path d="M96.1905 211.3C96.1905 211.3 94.838 200.506 108.981 192.162C108.981 192.155 109.166 207.02 96.1905 211.3Z" fill="#48BE97"/>
<path d="M106.64 230.809C106.64 230.809 101.358 218.828 114.793 204.321C114.793 204.321 120.133 221.399 106.64 230.809Z" fill="#48BE97"/>
<path d="M94.0278 180.021C94.0278 180.021 84.0566 221.527 129.677 251.179" stroke="#48BE97" stroke-width="1.28229" stroke-miterlimit="10" stroke-linecap="round"/>
<path d="M169.179 193.559C169.179 193.559 170.525 186.478 181.14 184.092C181.14 184.092 178.231 193.501 169.179 193.559Z" fill="#48BE97"/>
<path d="M167.96 206.401C167.96 206.401 170.295 197.348 184.241 195.179C184.241 195.179 179.686 207.083 167.96 206.401Z" fill="#48BE97"/>
<path d="M162.448 223.74C162.448 223.74 168.049 214.42 184.336 216.595C184.368 216.595 175.297 228.398 162.448 223.74Z" fill="#48BE97"/>
<path d="M149.281 241.635C149.281 241.635 158.787 232.634 176.968 240.41C176.968 240.41 162.678 251.179 149.281 241.635Z" fill="#48BE97"/>
<path d="M169.173 193.699C169.173 193.699 168.777 186.503 158.563 182.739C158.563 182.739 160.209 192.449 169.173 193.699Z" fill="#48BE97"/>
<path d="M167.967 206.363C167.967 206.363 166.844 197.08 153.294 193.074C153.306 193.074 156.254 205.501 167.967 206.363Z" fill="#48BE97"/>
<path d="M162.589 224.002C162.589 224.002 165.428 213.495 152.573 203.262C152.573 203.262 150.327 217.961 162.589 224.002Z" fill="#48BE97"/>
<path d="M149.543 241.871C149.543 241.871 156.433 230.739 145.134 214.509C145.134 214.509 137.479 230.681 149.543 241.871Z" fill="#48BE97"/>
<path d="M169.058 193.323C169.058 193.323 170.519 228.193 143.214 246.566" stroke="#48BE97" stroke-width="1.28229" stroke-miterlimit="10" stroke-linecap="round"/>
<path d="M38.4874 260.57C41.5688 253.89 47.0552 234.292 38.6023 230.197C33.3009 227.645 31.7443 232.028 31.7443 232.028C31.7443 232.028 35.572 210.586 26.5003 210.541C21.2053 210.541 20.3121 216.595 20.3121 216.595C20.3121 216.595 17.4413 209.891 13.9326 207.938C6.27712 203.709 -2.83287 208.085 4.22929 220.06C5.48263 222.125 7.02028 224.004 8.79704 225.642C8.79704 225.642 0.809853 222.611 0.0315485 228.353C-0.746756 234.095 14.3664 243.115 14.3664 243.115C14.3664 243.115 9.84329 243.287 9.66466 248.519C9.42862 255.581 24.0059 260.576 24.0059 260.576L38.4874 260.57Z" fill="#36A871"/>
<path d="M9.61371 213.163C19.5339 227.702 27.6806 232.027 34.3153 259.096" stroke="white" stroke-width="0.503984" stroke-miterlimit="10" stroke-linecap="round"/>
<path d="M45.2115 260.57C44.8861 250.637 59.5463 230.012 50.666 225.01C45.1031 221.871 43.5273 227.562 43.5273 227.562C43.5273 227.562 56.0695 206.312 44.0696 204.889C39.891 204.391 37.4667 210.503 37.4667 210.503C37.4667 210.503 37.3647 199.562 34.0154 195.46C28.5545 188.774 17.1224 192.513 19.8145 206.943C21.2946 214.847 26.73 217.98 26.73 217.98C26.73 217.98 21.2372 213.788 18.6152 219.294C15.1 226.669 26.8703 236.193 26.8703 236.193C26.8703 236.193 21.6072 232.295 18.124 238.675C13.3967 247.255 31.3041 260.57 31.3041 260.57H45.2115Z" fill="#48BE97"/>
<path d="M29.3457 203.377C36.0634 220.423 39.553 239.102 41.0075 258.879" stroke="white" stroke-width="0.503984" stroke-miterlimit="10" stroke-linecap="round"/>
<path d="M221.529 260.569C223.711 252.506 213.198 236.621 221.364 232.557C226.467 230.005 229.236 232.614 229.236 232.614C229.236 232.614 223.207 216.608 233.217 215.453C234.168 215.317 235.137 215.511 235.964 216.002C236.79 216.492 237.424 217.251 237.759 218.152C237.759 218.152 239.143 213.412 242.863 210.439C249.95 204.8 259.188 206.892 254.218 218.592C251.494 225.01 249.338 225.954 249.338 225.954C249.338 225.954 254.263 224.997 255.328 229.469C256.751 235.46 244.949 245.482 244.949 245.482C244.949 245.482 249.191 245.877 249.753 249.054C250.984 256.072 236.113 260.569 236.113 260.569H221.529Z" fill="#36A871"/>
<path d="M251.009 211.613C237.434 222.637 236.93 245.074 230.052 258.03" stroke="white" stroke-width="0.459327" stroke-miterlimit="10" stroke-linecap="round"/>
<path d="M215.392 260.57C210.474 252.48 199.782 228.755 207.622 223.798C212.534 220.685 215.277 226.012 215.277 226.012C215.277 226.012 205.861 200.06 215.38 200.002C220.93 199.97 223.392 207.326 223.392 207.326C223.392 207.326 225.306 199.715 227.922 195.141C233.995 184.608 248.241 188.813 243.233 205.527C241.957 209.763 238.129 215.141 238.129 215.141C238.129 215.141 246.977 214.605 246.741 222.26C246.518 229.527 234.257 236.353 234.257 236.353C234.257 236.353 242.41 234.541 243.909 240.87C245.944 249.418 227.96 260.57 227.96 260.57H215.392Z" fill="#48BE97"/>
<path d="M236.432 199.339C229.58 222.547 219.545 226.012 219.405 258.796" stroke="white" stroke-width="0.459327" stroke-miterlimit="10" stroke-linecap="round"/>
<path d="M132.197 200.315C132.197 200.315 132.752 195.396 139.897 193.214C139.897 193.214 138.391 199.804 132.197 200.315Z" fill="#36A871"/>
<path d="M132.19 209.074C132.19 209.074 133.326 202.752 142.755 200.532C142.755 200.532 140.254 208.933 132.19 209.074Z" fill="#36A871"/>
<path d="M129.071 221.539C129.071 221.539 130.596 214.222 141.645 211.97C141.626 211.945 138.436 221.642 129.071 221.539Z" fill="#36A871"/>
<path d="M120.65 234.279C120.65 234.279 125.268 226.573 138.729 228.353C138.729 228.353 131.272 238.114 120.65 234.279Z" fill="#36A871"/>
<path d="M132.197 200.411C132.197 200.411 131.559 195.505 124.369 193.457C124.401 193.457 125.996 200.015 132.197 200.411Z" fill="#36A871"/>
<path d="M132.362 209.163C132.362 209.163 131.087 202.867 121.638 200.819C121.638 200.819 124.299 209.176 132.362 209.163Z" fill="#36A871"/>
<path d="M129.249 221.495C129.249 221.495 130.653 214.152 121.326 207.811C121.326 207.811 120.573 217.993 129.249 221.495Z" fill="#36A871"/>
<path d="M121.211 234.401C121.211 234.401 125.358 226.42 116.783 215.9C116.809 215.894 112.407 227.364 121.211 234.401Z" fill="#36A871"/>
<path d="M132.101 200.155C132.101 200.155 137.115 229.029 104.56 247.364" stroke="#36A871" stroke-width="0.880377" stroke-miterlimit="10" stroke-linecap="round"/>
<path d="M132.975 260.57H123.571C117.039 260.57 106.863 242.254 106.863 235.154C106.863 228.053 117 209.387 123.571 209.387H132.975C141.3 209.387 147.877 211.977 152.528 217.08C156.994 221.999 159.259 228.079 159.259 235.154C159.259 242.228 156.968 248.321 152.471 253.131C147.801 258.069 141.249 260.57 132.975 260.57ZM108.095 187.275L108.241 179.919C108.49 167.23 110.213 157.323 113.498 149.636C116.784 141.948 123.176 133.687 132.924 124.711L133.077 124.577L155.661 104.877C163.884 96.9661 167.884 88.9279 167.884 80.2709C167.884 72.0476 165.53 65.8914 160.688 61.4576C155.731 56.9217 148.031 54.6187 137.811 54.6187C127.591 54.6187 119.52 56.8197 113.658 61.1514C108.318 65.0939 105.83 70.019 105.83 76.6664V83.8753H59.2592L59.3294 76.558C59.591 58.3954 67.3102 43.5502 82.2958 32.437C96.6242 21.7832 115.31 16.3861 137.836 16.3861C161.281 16.3861 179.998 21.9427 193.459 32.9028C207.36 44.2264 214.41 59.8627 214.41 79.3714C214.41 98.5674 204.145 117.419 183.896 135.403L183.743 135.537L165.007 151.25C158.11 157.808 154.755 167.237 154.755 180.066V187.275H108.095Z" fill="#7D82FF"/>
<path d="M123.571 260.57C115.278 260.57 108.733 258.05 104.146 253.086C99.7119 248.283 97.4599 242.241 97.4599 235.154C97.4599 228.066 99.6864 222.037 104.063 217.131C108.656 211.989 115.221 209.387 123.571 209.387C131.922 209.387 138.48 211.977 143.125 217.08C147.59 221.999 149.855 228.079 149.855 235.154C149.855 242.228 147.565 248.321 143.048 253.131C138.436 258.069 131.852 260.57 123.571 260.57ZM98.6912 187.275L98.8379 179.919C99.0867 167.23 100.809 157.323 104.101 149.636C107.393 141.948 113.779 133.687 123.527 124.711L123.68 124.577L146.263 104.877C154.493 96.9661 158.487 88.9279 158.487 80.2709C158.487 72.0476 156.133 65.8914 151.291 61.4576C146.334 56.9217 138.64 54.6187 128.42 54.6187C118.2 54.6187 110.13 56.8197 104.261 61.1514C98.9208 65.0939 96.4392 70.019 96.4392 76.6664V83.8753H49.843L49.9515 76.558C50.213 58.3954 57.9323 43.5502 72.9178 32.437C87.2144 21.7832 105.9 16.3861 128.433 16.3861C151.877 16.3861 170.589 21.9427 184.049 32.9028C197.951 44.2264 205 59.8627 205 79.3714C205 98.5674 194.735 117.419 174.487 135.403L174.333 135.537L155.597 151.25C148.7 157.808 145.351 167.237 145.351 180.066V187.275H98.6912Z" fill="url(#paint0_linear_1_1278)"/>
<path d="M63.9929 250.598C64.2289 253.629 63.2337 260.404 63.9929 260.57H86.4042C86.4042 260.57 86.6339 257.157 83.9736 256.417C80.4266 255.428 76.114 254.694 74.5 253.278C73.7025 252.576 73.3198 250.598 73.3198 250.598H63.9929Z" fill="#0A1930"/>
<path d="M80.2928 255.466C80.2928 255.466 77.4411 255.204 76.4204 256.831" stroke="#7DBBF1" stroke-width="0.542261" stroke-linecap="round" stroke-linejoin="round"/>
<path d="M77.7217 254.707C77.7217 254.707 74.87 254.445 73.8493 256.066" stroke="#7DBBF1" stroke-width="0.542261" stroke-linecap="round" stroke-linejoin="round"/>
<path d="M50.9339 250.598C50.6469 254.956 51.3996 260.2 50.1748 260.57H35.2722C35.253 259.744 35.4008 258.923 35.7067 258.155C36.0125 257.388 36.4701 256.69 37.052 256.104C37.8623 255.268 39.7889 254.318 40.6629 253.444C41.5369 252.57 41.5751 250.605 41.5751 250.605L50.9339 250.598Z" fill="#0A1930"/>
<path d="M41.9644 256.015C41.9644 256.015 40.0505 253.769 37.6582 255.581" stroke="#7DBBF1" stroke-width="0.542261" stroke-linecap="round" stroke-linejoin="round"/>
<path d="M44.3057 254.873C44.3057 254.873 41.454 252.525 39.2658 254.362" stroke="#7DBBF1" stroke-width="0.542261" stroke-linecap="round" stroke-linejoin="round"/>
<path d="M80.2671 129.355C80.9051 133.374 80.7009 137.648 80.9051 137.457C81.4409 136.883 87.8205 133.744 88.3372 133.483C90.0258 132.608 91.9305 132.238 93.8236 132.417C94.2511 132.417 95.5333 132.341 95.5333 132.341C96.1014 132.207 96.6955 132.233 97.2494 132.417C97.964 132.743 98.1617 133.304 97.5046 133.521C96.9474 133.678 96.3805 133.8 95.8077 133.885C95.8077 133.885 98.0915 133.84 99.897 133.7C100.573 133.642 100.65 134.561 100.65 134.561C100.65 134.561 100.937 134.522 101.077 134.491C101.996 134.286 102.353 135.664 101.983 135.766C101.644 135.868 101.299 135.947 100.95 136.003C101.179 136.092 101.588 136.73 101.007 136.902C100.426 137.074 98.6848 137.425 98.6848 137.425C99.0868 137.425 99.4185 138.197 99.1888 138.28C97.6944 138.751 96.1761 139.143 94.6402 139.454C93.5094 139.495 92.3771 139.453 91.2527 139.326C90.5254 139.218 88.9816 138.861 88.9816 138.861C88.9816 138.861 78.6467 147.294 77.1156 146.912C75.98 146.624 73.7919 145.266 73.4346 143.237C73.0773 141.208 70.6148 129.113 70.6148 129.113C71.5782 123.014 79.2846 123.275 80.2671 129.355Z" fill="#F4A484"/>
<path d="M88.2161 135.792C88.2161 135.792 88.165 137.763 88.8094 138.656" stroke="#E08D68" stroke-width="0.363634" stroke-linecap="round" stroke-linejoin="round"/>
<path d="M94.2702 134.095C94.2702 134.095 93.2495 135.798 90.0788 135.575C92.4839 136.009 94.0086 138.465 94.0086 138.465" stroke="#E08D68" stroke-width="0.363634" stroke-linecap="round" stroke-linejoin="round"/>
<path d="M98.4679 137.419L95.0102 137.916" stroke="#E08D68" stroke-width="0.363634" stroke-linecap="round" stroke-linejoin="round"/>
<path d="M100.427 135.945L95.2208 136.551" stroke="#E08D68" stroke-width="0.363634" stroke-linecap="round" stroke-linejoin="round"/>
<path d="M100.216 134.567L95.4887 135.007" stroke="#E08D68" stroke-width="0.363634" stroke-linecap="round" stroke-linejoin="round"/>
<path d="M70.6596 86.4399C71.375 87.3557 71.7914 88.4693 71.8525 89.6297C72.0822 91.8434 70.3533 94.7908 70.3533 94.7908L70.6596 86.4399Z" fill="#24292D"/>
<path d="M77.1538 159.256C77.8747 166.133 73.9641 251.517 73.9641 251.517H63.9737C63.9737 251.517 60.8413 190.777 61.2432 181.916C61.6452 173.055 59.7504 164.647 60.3118 159.256C60.8732 153.865 75.9162 147.658 77.1538 159.256Z" fill="#DA7876"/>
<path d="M63.7951 159.511C63.7951 190.382 51.2849 251.517 51.2849 251.517H40.9883C40.9883 251.517 46.1748 181.98 46.3662 173.049C46.5066 166.669 47.2275 162.203 47.8527 156.813C48.918 147.703 63.7951 147.888 63.7951 159.511Z" fill="#DA7876"/>
<g style="mix-blend-mode:multiply" opacity="0.36">
<path d="M77.1921 165.706C76.7327 165.451 76.216 165.157 75.6865 164.832C74.2064 163.932 73.7726 164.13 63.6611 164.762H63.2655C62.2703 164.819 61.2879 164.825 60.3373 164.793C55.8131 164.569 51.3727 163.487 47.2529 161.604C47.4379 160.047 47.642 158.478 47.827 156.832C48.7521 148.953 59.9482 148.002 62.9912 155.358C67.5143 151.875 76.2096 150.542 77.1219 159.25C77.2431 160.168 77.2559 162.439 77.1921 165.706Z" fill="#DA7876"/>
</g>
<path d="M74.0023 110.133C81.326 117.011 80.9177 135.301 80.9177 135.301C80.9177 135.301 74.1682 139.766 70.1554 138.031C70.1554 138.031 67.1252 119.275 68.7264 113.489C69.7216 109.955 72.6562 108.858 74.0023 110.133Z" fill="#021946"/>
<g style="mix-blend-mode:multiply" opacity="0.36">
<path d="M79.106 127.518C79.0103 131.026 79.0358 134.325 78.838 136.5C76.5223 137.687 72.7775 139.16 70.181 138.031C70.181 138.031 67.1507 119.275 68.752 113.495C69.0598 112.203 69.8061 111.058 70.8636 110.255L74.0534 110.133C74.3915 110.523 79.4632 114.676 79.106 127.518Z" fill="#021946"/>
</g>
<path d="M55.2274 107.365C55.2274 107.365 44.4842 109.126 44.1525 111.084C43.8207 113.043 47.9164 141.298 47.9164 147.932C47.8908 152.247 47.631 156.558 47.1381 160.844C47.1381 160.844 55.7505 163.256 63.9673 163.103C68.4902 163.077 73.0001 162.615 77.4346 161.725C77.4346 161.725 76.9561 153.572 76.7966 148.143C76.6371 142.714 77.913 126.886 77.9258 121.087C77.8924 117.098 76.5096 113.237 74.0024 110.133C72.7264 108.653 66.0088 107.09 66.0088 107.09L55.2274 107.365Z" fill="#021946"/>
<g style="mix-blend-mode:multiply" opacity="0.36">
<path d="M50.1045 145.738C49.1795 147.403 48.4522 148.794 47.8844 149.948C47.8844 149.31 47.8844 148.609 47.8844 147.932C47.8844 143.524 46.079 129.566 44.969 120.13L53.2624 115.314C54.3214 118.535 54.3214 138.121 50.1045 145.738Z" fill="#021946"/>
</g>
<path d="M56.2034 103.403L55.2273 107.384C55.2273 107.384 59.4442 114.401 64.4266 113.712C69.409 113.023 66.0279 107.09 66.0279 107.09L66.2256 104.456L57.0455 99.0076L56.2034 103.403Z" fill="#E08D68"/>
<path d="M71.1508 88.341C71.4059 89.6616 71.2975 93.9805 71.0359 97.3106C70.7871 100.5 69.9195 105.202 68.0886 105.604C66.2576 106.006 58.4044 104.5 58.0535 99.9773C56.7138 98.9247 51.6293 92.6919 53.422 89.6105C56.5862 84.1241 70.315 84.0922 71.1508 88.341Z" fill="#F4A484"/>
<path d="M64.733 95.9389C65.036 95.9389 65.2816 95.5734 65.2816 95.1224C65.2816 94.6714 65.036 94.3058 64.733 94.3058C64.43 94.3058 64.1843 94.6714 64.1843 95.1224C64.1843 95.5734 64.43 95.9389 64.733 95.9389Z" fill="#24292D"/>
<path d="M70.1747 94.8928C70.1747 95.3457 69.9323 95.7093 69.6325 95.7093C69.3326 95.7093 69.0838 95.3457 69.0838 94.8928C69.0838 94.4398 69.3262 94.0762 69.6325 94.0762C69.9387 94.0762 70.1747 94.4398 70.1747 94.8928Z" fill="#24292D"/>
<path d="M65.6516 93.1065C65.1768 92.9513 64.6753 92.8948 64.1779 92.9406C63.6907 93.0318 63.2368 93.2521 62.8638 93.5786C62.9614 93.3152 63.1264 93.0821 63.3422 92.9023C63.5635 92.7117 63.8368 92.5917 64.1269 92.5579C64.4064 92.5205 64.6908 92.5509 64.9561 92.6464C65.2215 92.7418 65.46 92.8996 65.6516 93.1065Z" fill="#24292D"/>
<path d="M68.0694 92.9023C68.2598 92.6932 68.4977 92.5329 68.7631 92.4352C69.0285 92.3375 69.3136 92.3052 69.5941 92.3409C69.8842 92.3747 70.1576 92.4947 70.3788 92.6854C70.5946 92.8651 70.7596 93.0983 70.8573 93.3616C70.4825 93.0377 70.0294 92.8178 69.5431 92.7237C69.045 92.6879 68.5446 92.7486 68.0694 92.9023Z" fill="#24292D"/>
<path d="M67.6739 96.092C67.7858 96.5586 67.9756 97.0029 68.2353 97.4062L68.9498 98.6821C69.0798 98.8874 69.197 99.1004 69.3007 99.3201C69.3622 99.4546 69.3969 99.5998 69.4028 99.7475C69.414 99.8065 69.414 99.8671 69.4028 99.9262C69.3799 99.9756 69.3522 100.023 69.3199 100.067C69.2679 100.13 69.2053 100.184 69.1349 100.226C68.9082 100.364 68.6569 100.457 68.3948 100.5C68.1488 100.547 67.8987 100.568 67.6484 100.564V100.519C68.0742 100.342 68.484 100.129 68.8733 99.8815C68.9498 99.8113 68.9881 99.7539 68.9626 99.7794C68.9487 99.6864 68.9273 99.5947 68.8988 99.5051C68.8286 99.2882 68.7393 99.0649 68.65 98.8671L68.0567 97.5338C67.8482 97.0866 67.7145 96.6081 67.6612 96.1176L67.6739 96.092Z" fill="#E5744C"/>
<path d="M69.3963 101.291C68.3775 101.237 67.3614 101.441 66.4426 101.885C66.4426 101.885 68.9625 102.248 69.1922 101.999C69.338 101.793 69.4099 101.544 69.3963 101.291Z" fill="white"/>
<path d="M71.3932 89.4892C70.9913 90.3441 68.2608 91.5945 63.2465 91.3202C63.2465 91.3202 65.7537 90.6312 66.3087 88.6663C65.6277 89.6075 64.7317 90.3725 63.6952 90.8974C62.6588 91.4222 61.5119 91.6919 60.3502 91.6838C60.4826 93.6453 60.0106 95.6002 58.9977 97.285C58.9977 97.285 57.8685 98.7779 58.0344 99.9772C58.2003 101.177 57.0009 103.129 56.2035 103.582C55.725 100.009 51.9866 93.0235 52.7139 89.0873C52.8536 88.0154 53.3614 87.0254 54.1503 86.2864C54.9393 85.5475 55.9605 85.1056 57.0392 85.0363C58.6787 82.4398 64.6947 81.3745 68.65 83.518C71.5654 85.1129 72.1204 87.9263 71.3932 89.4892Z" fill="#24292D"/>
<path d="M59.4058 96.0602C58.5701 93.9996 55.744 94.1464 55.7312 95.9071C55.7312 98.7588 57.4282 99.6072 58.0342 99.9773C58.6403 100.347 59.9162 97.3042 59.4058 96.0602Z" fill="#F4A484"/>
<path d="M42.1941 129.47C41.5562 133.489 41.0075 137.444 40.8034 137.234C40.2675 136.653 30.998 134.133 30.4175 133.789C28.685 132.714 26.6486 132.234 24.6185 132.424L22.9024 132.347C22.3364 132.213 21.7444 132.24 21.1926 132.424C20.4781 132.749 20.274 133.31 20.9375 133.527C21.4925 133.685 22.0572 133.807 22.628 133.891C22.628 133.891 20.3442 133.846 18.5451 133.706C17.8625 133.642 17.786 134.574 17.786 134.574C17.786 134.574 17.5053 134.535 17.3585 134.503C16.4399 134.299 16.0826 135.677 16.4526 135.779C16.7915 135.881 17.1367 135.96 17.4861 136.015C17.2565 136.105 16.8482 136.743 17.4351 136.915C18.022 137.087 19.7509 137.438 19.7509 137.438C19.349 137.438 19.0172 138.21 19.2533 138.293C20.7456 138.764 22.2618 139.156 23.7955 139.467C24.9263 139.508 26.0586 139.465 27.183 139.339C27.9103 139.231 29.4478 139.167 29.4478 139.167C29.4478 139.167 42.5641 145.546 44.1207 145.719C45.5434 145.897 47.9102 145.4 48.6757 143.25C49.3647 141.304 52.2419 129.432 52.2419 129.432C51.2977 123.32 43.1766 123.384 42.1941 129.47Z" fill="#F4A484"/>
<path d="M29.6135 139.001C30.021 138.392 30.2849 137.698 30.3854 136.972" stroke="#E08D68" stroke-width="0.363634" stroke-linecap="round" stroke-linejoin="round"/>
<path d="M24.1653 134.095C24.1653 134.095 25.1861 135.798 28.3631 135.575C25.9516 136.009 24.4269 138.465 24.4269 138.465" stroke="#E08D68" stroke-width="0.363634" stroke-linecap="round" stroke-linejoin="round"/>
<path d="M19.9677 137.419L23.4318 137.916" stroke="#E08D68" stroke-width="0.363634" stroke-linecap="round" stroke-linejoin="round"/>
<path d="M18.009 135.945L23.2147 136.551" stroke="#E08D68" stroke-width="0.363634" stroke-linecap="round" stroke-linejoin="round"/>
<path d="M18.2197 134.567L22.947 135.007" stroke="#E08D68" stroke-width="0.363634" stroke-linecap="round" stroke-linejoin="round"/>
<path d="M44.1397 111.071C40.5735 118.172 40.4523 134.223 40.4523 134.223C40.4523 134.223 47.4698 137.878 51.6484 136.181C51.6484 136.181 54.3597 120.909 53.3007 115.307C52.65 111.888 45.8686 107.614 44.1397 111.071Z" fill="#021946"/>
<path d="M194.748 250.598C194.512 253.629 195.514 260.404 194.748 260.57H172.305C172.305 260.57 172.082 257.157 174.735 256.417C178.282 255.428 182.601 254.694 184.209 253.278C185.007 252.576 185.396 250.598 185.396 250.598H194.748Z" fill="#164081"/>
<path d="M178.455 255.466C178.455 255.466 181.3 255.204 182.321 256.831" stroke="#7DBBF1" stroke-width="0.542261" stroke-linecap="round" stroke-linejoin="round"/>
<path d="M181.026 254.707C181.026 254.707 183.871 254.445 184.892 256.066" stroke="#7DBBF1" stroke-width="0.542261" stroke-linecap="round" stroke-linejoin="round"/>
<path d="M207.813 250.598C208.1 254.956 207.341 260.2 208.566 260.57H223.469C223.488 259.744 223.341 258.924 223.036 258.156C222.732 257.389 222.275 256.691 221.695 256.104C220.879 255.268 218.958 254.318 218.084 253.444C217.21 252.57 217.166 250.605 217.166 250.605L207.813 250.598Z" fill="#164081"/>
<path d="M216.783 256.015C216.783 256.015 218.697 253.769 221.083 255.581" stroke="#7DBBF1" stroke-width="0.542261" stroke-linecap="round" stroke-linejoin="round"/>
<path d="M214.435 254.873C214.435 254.873 217.293 252.525 219.475 254.362" stroke="#7DBBF1" stroke-width="0.542261" stroke-linecap="round" stroke-linejoin="round"/>
<path d="M180.898 158.994C180.171 165.872 184.994 251.498 184.994 251.498H194.984C194.984 251.498 198.116 190.758 197.695 181.897C197.274 173.036 199.188 164.628 198.627 159.237C198.065 153.846 182.116 147.396 180.898 158.994Z" fill="#021946"/>
<path d="M195.169 159.511C195.169 190.382 207.673 251.517 207.673 251.517H217.97C217.97 251.517 212.783 181.98 212.592 173.049C212.451 166.669 211.73 162.203 211.099 156.813C210.04 147.703 195.169 147.888 195.169 159.511Z" fill="#021946"/>
<g style="mix-blend-mode:multiply" opacity="0.36">
<path d="M211.718 161.865C207.571 163.648 203.114 164.596 198.601 164.653C198.027 164.653 197.434 164.653 196.841 164.602L195.265 164.513C187.718 164.117 183.565 164.289 182.263 164.653C181.704 164.856 181.223 165.229 180.885 165.718C180.809 162.305 180.796 159.926 180.885 159.001C181.81 150.216 191.169 151.798 195.909 155.409C196.577 153.721 197.804 152.313 199.386 151.422L206.512 150.899C207.759 151.354 208.851 152.154 209.662 153.205C210.473 154.257 210.969 155.516 211.092 156.838C211.303 158.58 211.52 160.226 211.718 161.865Z" fill="#021946"/>
</g>
<path d="M185.402 110.133C178.078 117.011 178.487 135.301 178.487 135.301C178.487 135.301 185.23 139.766 189.242 138.031C189.242 138.031 192.279 119.275 190.678 113.489C189.702 109.955 186.767 108.858 185.402 110.133Z" fill="#EC786B"/>
<path d="M205.893 107.365C205.893 107.365 216.1 110.612 216.445 112.57C216.789 114.529 211.092 140.979 211.092 147.613C211.092 154.248 211.801 160.844 211.801 160.844C211.801 160.844 203.195 163.256 194.978 163.103C190.144 163.034 185.329 162.485 180.605 161.463C180.605 161.463 181.051 153.349 181.242 147.926C181.434 142.503 181.523 126.873 181.51 121.087C181.538 117.1 182.914 113.239 185.415 110.133C186.691 108.653 195.099 107.09 195.099 107.09L205.893 107.365Z" fill="#EC786B"/>
<g style="mix-blend-mode:multiply" opacity="0.36">
<path d="M211.092 147.613C211.092 149.457 211.15 151.301 211.226 152.991C209.587 149.77 206.512 146.803 204.949 146.306C202.958 145.668 186.136 138.803 184.815 139.077C183.664 139.148 182.509 139.058 181.383 138.81C181.415 136.896 181.427 134.829 181.447 132.826L190.244 108.181C192.681 107.543 195.092 107.09 195.092 107.09C194.372 107.671 193.364 110.95 192.63 112.577C191.896 114.204 187.852 131.288 187.852 131.288L201.593 132.66C203.309 119.55 207.009 114.267 207.009 114.267L215.188 121.176C213.6 130.063 211.092 143.205 211.092 147.613Z" fill="#EC786B"/>
</g>
<path d="M204.911 103.403L205.893 107.384C205.893 107.384 201.676 114.401 196.694 113.712C191.711 113.023 195.086 107.09 195.086 107.09L194.888 104.456L204.075 99.0076L204.911 103.403Z" fill="#E08D68"/>
<path d="M190.333 88.392C189.952 91.3533 189.867 94.3451 190.078 97.3233C190.333 100.513 191.195 105.202 193.025 105.617C194.856 106.031 202.716 104.513 203.086 99.99C204.419 98.9373 209.51 92.7045 207.718 89.6232C204.534 84.124 191.163 84.1751 190.333 88.392Z" fill="#F4A484"/>
<path d="M196.387 95.9389C196.691 95.9389 196.936 95.5734 196.936 95.1224C196.936 94.6714 196.691 94.3058 196.387 94.3058C196.084 94.3058 195.839 94.6714 195.839 95.1224C195.839 95.5734 196.084 95.9389 196.387 95.9389Z" fill="#24292D"/>
<path d="M191.609 95.6136C191.912 95.6136 192.158 95.248 192.158 94.797C192.158 94.3461 191.912 93.9805 191.609 93.9805C191.306 93.9805 191.061 94.3461 191.061 94.797C191.061 95.248 191.306 95.6136 191.609 95.6136Z" fill="#24292D"/>
<path d="M195.424 93.4638C195.58 93.2053 195.801 92.9926 196.066 92.847C196.33 92.7014 196.628 92.6281 196.93 92.6344C197.241 92.6402 197.545 92.7355 197.804 92.9087C198.049 93.0638 198.246 93.2849 198.372 93.5467C198.091 93.4446 197.861 93.3298 197.619 93.266C197.393 93.1907 197.156 93.1519 196.917 93.1512C196.405 93.17 195.901 93.2757 195.424 93.4638Z" fill="#24292D"/>
<path d="M193.427 93.1447C192.949 92.9666 192.445 92.8675 191.935 92.8512C191.696 92.8551 191.46 92.8938 191.233 92.9661C190.99 93.0362 190.761 93.1511 190.48 93.2468C190.605 92.9844 190.802 92.763 191.048 92.6088C191.306 92.4346 191.61 92.3392 191.922 92.3345C192.222 92.3249 192.519 92.3947 192.784 92.537C193.048 92.6793 193.27 92.8889 193.427 93.1447Z" fill="#24292D"/>
<path d="M193.491 96.092C193.445 96.6008 193.315 97.0986 193.108 97.5657L192.521 98.9501C192.432 99.1797 192.343 99.4158 192.279 99.6391C192.246 99.737 192.221 99.8372 192.203 99.9389C192.203 99.9389 192.203 99.9389 192.203 99.9772C192.203 100.015 192.203 99.9772 192.203 99.9772C192.221 100.007 192.242 100.035 192.266 100.06C192.655 100.337 193.072 100.572 193.51 100.762V100.807C193.251 100.816 192.991 100.79 192.738 100.73C192.463 100.685 192.201 100.578 191.973 100.417C191.903 100.365 191.842 100.3 191.794 100.226C191.76 100.171 191.736 100.111 191.724 100.047C191.718 99.9987 191.718 99.9493 191.724 99.9006C191.741 99.7532 191.779 99.6091 191.839 99.4732C191.941 99.2308 192.069 99.0075 192.19 98.7842L192.904 97.4636C193.16 97.0384 193.347 96.5755 193.459 96.092H193.491Z" fill="#E08D68"/>
<path d="M191.577 101.878C192.538 101.576 193.578 101.649 194.487 102.083C194.487 102.083 191.967 102.453 191.737 102.197C191.507 101.942 191.577 101.878 191.577 101.878Z" fill="white"/>
<path d="M190.046 90.0953C190.448 90.9502 197.657 90.8928 201.593 90.8162C201.593 90.8162 200.419 94.4462 202.123 97.2851C202.123 97.2851 203.252 98.7779 203.086 99.9773C202.92 101.177 204.783 103.735 204.898 102.829C205.236 100.003 209.159 91.9837 208.088 88.0985C207.194 84.8322 205.14 84.9853 205.14 84.9853C203.507 82.3889 199.443 83.786 191.277 81.9869C188.037 81.2724 189.319 88.5324 190.046 90.0953Z" fill="#24292D"/>
<path d="M201.708 96.0602C202.55 93.9996 205.376 94.1464 205.389 95.9071C205.389 98.7588 203.692 99.6072 203.086 99.9773C202.48 100.347 201.204 97.3042 201.708 96.0602Z" fill="#F4A484"/>
<path d="M180.49 137.215C181.15 137.511 181.855 137.697 182.576 137.763C183.257 137.786 183.939 137.765 184.617 137.699C184.617 137.699 202.856 144.079 204.592 143.996C205.868 143.92 208.668 143.097 209.874 141.049C211.08 139.001 213.574 131.262 214.518 127.786C216.292 121.253 207.558 120.22 205.274 126.574C203.762 130.778 203.36 135.141 203.175 134.867C202.716 134.14 187.552 132.596 187.227 132.047C186.62 130.963 184.445 130.471 183.826 130.446C183.394 130.426 182.966 130.356 182.55 130.235C181.708 130.05 180.987 130.873 181.798 131.224C182.435 131.505 183.546 131.964 183.546 131.964C183.546 131.964 179.641 130.573 178.895 130.286C178.712 130.23 178.515 130.244 178.343 130.325C178.17 130.407 178.034 130.55 177.961 130.726C177.888 130.903 177.884 131.1 177.95 131.28C178.015 131.459 178.145 131.608 178.314 131.696C179.341 132.277 179.546 132.366 179.546 132.366C179.134 132.095 178.637 131.983 178.148 132.054C177.689 132.168 177.957 133.463 178.467 133.617L178.735 133.693C178.605 133.796 178.508 133.934 178.456 134.092C178.403 134.249 178.398 134.418 178.441 134.578C178.484 134.738 178.573 134.882 178.696 134.993C178.82 135.103 178.973 135.175 179.137 135.199L179.373 135.282C179.373 135.282 178.557 135.977 179.195 136.398C179.833 136.819 180.49 137.215 180.49 137.215Z" fill="#F4A484"/>
<path d="M193.083 109.885C192.63 111.748 191.845 111.295 191.603 111.837C191.361 112.379 186.499 130.842 186.289 131.684C185.708 134.408 182.27 136.545 180.286 135.639C178.123 134.657 177.377 131.633 177.779 129.897C178.18 128.162 186.965 110.408 186.965 110.408C186.965 110.408 187.603 104.864 187.979 104.666C188.943 104.168 189.948 103.756 190.984 103.435C191.622 103.301 194.723 103.435 194.703 103.435C194.66 103.836 194.467 104.205 194.161 104.469C193.291 104.651 192.411 104.783 191.526 104.864C191.526 104.864 193.753 104.985 193.855 105.202C194.046 106.196 194.134 107.208 194.117 108.22C193.853 108.821 193.505 109.382 193.083 109.885Z" fill="#F4A484"/>
<path d="M189.517 105.311L190.582 105.055" stroke="#E08D68" stroke-width="0.363634" stroke-linecap="round" stroke-linejoin="round"/>
<path d="M189.727 106.267C189.727 106.267 192.866 106.306 192.955 106.389C193.045 106.472 193.274 107.856 193.504 108.066C193.734 108.277 193.855 108.258 193.855 108.258" stroke="#E08D68" stroke-width="0.363634" stroke-linecap="round" stroke-linejoin="round"/>
<path d="M189.236 107.499C189.236 107.499 191.788 107.786 191.954 107.856C192.12 107.926 192.394 109.362 192.885 109.387C193.376 109.413 193.523 108.845 193.523 108.845" stroke="#E08D68" stroke-width="0.363634" stroke-linecap="round" stroke-linejoin="round"/>
<path d="M189.383 108.762L191.475 109.081" stroke="#E08D68" stroke-width="0.363634" stroke-linecap="round" stroke-linejoin="round"/>
<path d="M190.748 109.738C190.251 109.789 190.487 110.663 190.748 110.708C191.186 110.778 191.631 110.778 192.069 110.708C192.232 110.589 192.37 110.437 192.472 110.263C192.574 110.088 192.639 109.894 192.662 109.693C192.591 109.367 192.495 109.047 192.375 108.736" stroke="#E08D68" stroke-width="0.363634" stroke-linecap="round" stroke-linejoin="round"/>
<path d="M191.947 111.454C191.052 111.888 190.038 112.014 189.064 111.811" stroke="#E08D68" stroke-width="0.363634" stroke-linecap="round" stroke-linejoin="round"/>
<path d="M191.386 112.175C191.386 112.175 190.876 112.5 189.747 112.086" stroke="#E08D68" stroke-width="0.363634" stroke-linecap="round" stroke-linejoin="round"/>
<path d="M191.309 103.416L194.703 103.454C194.85 103.454 194.569 104.386 194.161 104.488C193.753 104.59 191.526 104.883 191.526 104.883C191.526 104.883 193.81 105.036 193.855 105.221C193.899 105.406 194.027 106.389 194.027 106.389" stroke="#E08D68" stroke-width="0.363634" stroke-linecap="round" stroke-linejoin="round"/>
<path d="M216.464 112.558C219.82 116.213 212.458 136.162 212.458 136.162C212.458 136.162 206.716 135.773 202.55 134.076C202.55 134.076 205.74 116.698 207.016 114.248C208.611 111.154 213.848 109.693 216.464 112.558Z" fill="#EC786B"/>
<path d="M186.385 131.288C185.887 133.368 184.094 136.328 180.943 135.798C178.34 135.365 177.83 132.054 177.83 132.054" stroke="#E08D68" stroke-width="0.363634" stroke-linecap="round" stroke-linejoin="round"/>
<path d="M44.0417 72.071C55.8739 67.051 61.3963 53.3895 56.3762 41.5573C51.3562 29.7251 37.6947 24.2028 25.8625 29.2228C14.0303 34.2428 8.50797 47.9043 13.528 59.7365C18.548 71.5687 32.2095 77.0911 44.0417 72.071Z" fill="#DADEEA"/>
<path d="M27.0362 50.6442C27.0375 51.2327 26.864 51.8084 26.5379 52.2983C26.2117 52.7881 25.7475 53.1702 25.204 53.396C24.6605 53.6218 24.0622 53.6812 23.485 53.5667C22.9077 53.4522 22.3774 53.1689 21.9612 52.7527C21.5451 52.3366 21.2618 51.8063 21.1473 51.229C21.0328 50.6517 21.0922 50.0535 21.318 49.51C21.5438 48.9665 21.9258 48.5023 22.4157 48.1761C22.9056 47.8499 23.4812 47.6765 24.0697 47.6777C24.856 47.6794 25.6095 47.9925 26.1655 48.5485C26.7215 49.1044 27.0345 49.858 27.0362 50.6442Z" fill="white"/>
<path d="M37.9196 50.6442C37.9196 51.2309 37.7457 51.8045 37.4197 52.2923C37.0937 52.7802 36.6304 53.1604 36.0884 53.3849C35.5463 53.6094 34.9499 53.6682 34.3744 53.5537C33.799 53.4392 33.2704 53.1567 32.8555 52.7418C32.4407 52.327 32.1581 51.7984 32.0437 51.223C31.9292 50.6475 31.988 50.0511 32.2125 49.509C32.437 48.9669 32.8172 48.5036 33.3051 48.1777C33.7929 47.8517 34.3664 47.6777 34.9532 47.6777C35.7394 47.6794 36.493 47.9925 37.0489 48.5485C37.6049 49.1044 37.918 49.858 37.9196 50.6442Z" fill="white"/>
<path d="M48.8032 50.6442C48.8032 51.2309 48.6292 51.8045 48.3032 52.2923C47.9773 52.7802 47.514 53.1604 46.9719 53.3849C46.4299 53.6094 45.8334 53.6682 45.258 53.5537C44.6825 53.4392 44.1539 53.1567 43.7391 52.7418C43.3242 52.327 43.0417 51.7984 42.9272 51.223C42.8127 50.6475 42.8715 50.0511 43.096 49.509C43.3206 48.9669 43.7008 48.5036 44.1886 48.1777C44.6764 47.8517 45.25 47.6777 45.8367 47.6777C46.6229 47.6794 47.3765 47.9925 47.9325 48.5485C48.4884 49.1044 48.8015 49.858 48.8032 50.6442Z" fill="white"/>
<path d="M33.9324 72.1944C33.9324 72.1944 36.3248 78.0636 45.8367 78.3762C45.8367 78.3762 41.7602 75.4671 41.7283 70.6442L33.9324 72.1944Z" fill="#DADEEA"/>
<path d="M235.103 91.6082C247.623 88.7016 255.416 76.1958 252.509 63.6756C249.603 51.1555 237.097 43.3622 224.577 46.2688C212.057 49.1755 204.263 61.6813 207.17 74.2014C210.077 86.7216 222.583 94.5149 235.103 91.6082Z" fill="#DADEEA"/>
<path d="M237.759 68.9216C237.759 69.5083 237.933 70.0818 238.259 70.5697C238.585 71.0575 239.048 71.4377 239.59 71.6622C240.132 71.8868 240.729 71.9455 241.304 71.8311C241.88 71.7166 242.408 71.4341 242.823 71.0192C243.238 70.6043 243.52 70.0757 243.635 69.5003C243.749 68.9249 243.691 68.3284 243.466 67.7863C243.242 67.2443 242.861 66.781 242.374 66.455C241.886 66.1291 241.312 65.9551 240.725 65.9551C239.939 65.9551 239.184 66.2676 238.628 66.8239C238.071 67.3803 237.759 68.1348 237.759 68.9216Z" fill="white"/>
<path d="M226.869 68.9216C226.868 69.5098 227.041 70.0852 227.367 70.5749C227.693 71.0647 228.157 71.4467 228.7 71.6727C229.243 71.8987 229.841 71.9585 230.418 71.8445C230.995 71.7305 231.525 71.4478 231.942 71.0323C232.358 70.6168 232.642 70.0871 232.757 69.5103C232.872 68.9334 232.814 68.3354 232.589 67.7918C232.364 67.2482 231.983 66.7835 231.494 66.4565C231.005 66.1296 230.43 65.9551 229.842 65.9551C229.054 65.9551 228.299 66.2674 227.742 66.8236C227.185 67.3797 226.871 68.1342 226.869 68.9216Z" fill="white"/>
<path d="M215.986 68.9216C215.984 69.5098 216.158 70.0852 216.484 70.5749C216.809 71.0647 217.273 71.4467 217.816 71.6727C218.36 71.8987 218.957 71.9585 219.535 71.8445C220.112 71.7305 220.642 71.4478 221.058 71.0323C221.475 70.6168 221.759 70.0871 221.874 69.5103C221.989 68.9334 221.93 68.3354 221.706 67.7918C221.481 67.2482 221.1 66.7835 220.611 66.4565C220.122 66.1296 219.547 65.9551 218.959 65.9551C218.171 65.9551 217.416 66.2674 216.859 66.8236C216.301 67.3797 215.987 68.1342 215.986 68.9216Z" fill="white"/>
<path d="M230.863 90.4654C230.863 90.4654 228.47 96.3345 218.958 96.6535C218.958 96.6535 223.035 93.7444 223.06 88.9215L230.863 90.4654Z" fill="#DADEEA"/>
<path d="M96.2415 260.57C96.2415 260.57 96.5988 251.67 88.2033 245.035C88.2033 245.035 99.9289 246.311 100.886 260.563L96.2415 260.57Z" fill="#48BE97"/>
<path d="M97.4791 260.563C97.4791 260.563 96.3818 245.82 109.524 242.771C109.524 242.771 101.97 248.091 101.23 260.563H97.4791Z" fill="#36A871"/>
<path d="M97.4792 260.563C97.4792 260.563 100.471 247.415 112.918 247.887C112.918 247.887 103.495 253.176 102.953 260.563H97.4792Z" fill="#48BE97"/>
<path d="M160.649 260.57C160.649 260.57 158.978 255.007 166.391 251.989C166.391 251.989 157.989 250.369 157.307 260.563L160.649 260.57Z" fill="#48BE97"/>
<path d="M159.763 260.563C159.763 260.563 158.212 254.362 161.421 246.63C161.421 246.63 155.469 249.558 157.083 260.563H159.763Z" fill="#36A871"/>
<path d="M159.763 260.563C159.763 260.563 159.278 253.463 150.366 253.801C150.366 253.801 156.745 255.861 155.846 260.563H159.763Z" fill="#48BE97"/>
</g>
<defs>
<linearGradient id="paint0_linear_1_1278" x1="49.843" y1="186.339" x2="205" y2="186.339" gradientUnits="userSpaceOnUse">
<stop stop-color="#6F75FF"/>
<stop offset="0.505208" stop-color="#999DFF"/>
<stop offset="1" stop-color="#ADB1FF"/>
</linearGradient>
<clipPath id="clip0_1_1278">
<rect width="257" height="275" fill="white"/>
</clipPath>
</defs>
</svg>
