<svg width="650" height="539" viewBox="0 0 650 539" fill="none" xmlns="http://www.w3.org/2000/svg">
<path d="M148.425 45.6716C104.939 76.9134 71.7637 127.048 54.9821 186.882C46.7201 216.754 42.9628 250.563 53.1888 279.375C65.7632 314.814 96.9536 334.461 127.333 338.779C157.712 343.097 188.177 334.95 218.492 329.668C229.497 327.74 240.791 326.206 251.636 329.274C262.481 332.343 272.984 340.843 277.19 353.918C282.741 371.067 276.475 390.877 279.325 409.099C282.431 429.344 296.628 444.592 312.117 450.702C327.605 456.812 344.268 455.345 360.365 452.793C404.505 445.802 447.702 431.269 488.788 409.588C517.47 394.448 545.469 375.453 567.479 347.591C589.49 319.729 605.096 281.996 605 242.498C604.904 202.999 586.917 162.727 558.032 148.253C533.876 136.155 506.796 142.822 480.9 144.18C454.406 145.537 420.429 138.178 409.243 102.875C406.371 93.7918 405.389 83.9478 403.542 74.4433C391.801 13.9128 317.678 -1.87836 277.201 0.17191C233.81 2.34438 186.245 18.7465 148.425 45.6716Z" fill="#B3B8FF" fill-opacity="0.43"/>
<path d="M386 70.6707L498.199 129.437L529.521 47L386 70.6707Z" fill="#DEE0FF"/>
<path d="M386 70.6709L520.128 70.8041L518.029 118.157L510.257 97.7168L386 70.6709Z" fill="#AEB2FF"/>
<path d="M518.029 118.156L503.939 114.315L510.257 97.7166L518.029 118.156Z" fill="#7177FF"/>
<path d="M535.935 116.5C598.455 162.5 622.329 218.5 640.391 289.604C652.717 338.125 653.115 395.381 632.968 438.312C612.521 481.885 571.626 503.855 535.935 490.424C500.244 476.994 472.415 429.19 469.908 377.001C468.292 343.288 477.413 307.518 496.642 287.527C520.103 263.17 555.41 267.789 577.145 295.155C598.88 322.521 606.591 368.791 598.455 408.365C590.32 447.939 567.75 480.099 540.852 495.626C513.953 511.153 483.261 511.386 455.281 500.129C416.427 484.218 383.265 448.048 362.466 398.894C341.731 349.421 325.218 310.959 318.767 254.131C312.317 197.303 307.411 206.624 285.498 158.18C265.475 114.162 328.17 131.822 292 134.5" stroke="#7177FF" stroke-width="2" stroke-miterlimit="10" stroke-linecap="round" stroke-dasharray="7.99 7.99"/>
<path d="M321.826 112.366C320.371 112.555 318.906 112.788 317.451 113.077" stroke="white" stroke-width="2" stroke-miterlimit="10" stroke-linecap="round"/>
<path d="M37.0038 311.158C35.5271 311.391 34.0503 311.558 32.5625 311.647" stroke="white" stroke-width="2" stroke-miterlimit="10" stroke-linecap="round"/>
<path d="M44 292C35 293.5 25.5 295.5 14.7633 283.949C6.66054 273.052 3.02442 258.833 1.64696 244.814C0.107431 229.173 1.12028 212.932 6.81246 198.48C12.5046 184.028 23.2813 171.586 36.9345 166.809C50.5876 162.033 67.0159 166.021 76.1012 178.196C85.1864 190.371 84.8825 210.41 74.1464 220.853C68.4137 226.407 60.5439 228.884 52.8766 228.828C32.6197 228.695 14.1961 210.833 9.58766 189.182C4.97921 167.531 13.2339 143.826 28.4468 129.118C43.6597 114.41 64.9092 108.356 85.0648 110.5C122.145 114.455 155.194 146.981 162.78 186.982C167.328 210.999 163.418 235.86 158.729 259.877C154.04 283.894 148.459 308.077 149.765 332.56C150.9 354.066 158.334 376.284 173 390.08" stroke="#7177FF" stroke-width="2" stroke-miterlimit="10" stroke-linecap="round" stroke-dasharray="8.08 8.08"/>
<path d="M173.197 404.897C174.385 405.763 175.618 406.596 176.884 407.373" stroke="white" stroke-width="2" stroke-miterlimit="10" stroke-linecap="round"/>
<path d="M125.286 283.391C143.265 284.392 160.863 288.971 177.05 296.858C185.273 300.861 193.064 305.698 200.3 311.291C215.345 322.931 227.779 337.599 236.797 354.347C237.374 355.457 237.907 356.479 238.462 357.556C238.762 358.133 239.717 357.789 239.417 357.201C228.921 336.325 213.232 318.499 193.857 305.437C174.482 292.375 152.073 284.515 128.784 282.613C127.673 282.525 126.563 282.447 125.453 282.391C124.809 282.391 124.62 283.357 125.275 283.391H125.286Z" fill="#858AFF" fill-opacity="0.54"/>
<path d="M235.264 349.806C230.599 343.619 227.491 336.4 226.204 328.76C224.917 321.119 225.488 313.28 227.869 305.906C235.553 318.841 237.884 335.029 235.264 349.806Z" fill="#D2E6A0"/>
<path d="M220.175 329.2C214.952 323.475 211.185 316.576 209.193 309.088C207.2 301.599 207.041 293.741 208.728 286.177C217.61 298.39 221.408 314.2 220.175 329.2Z" fill="#D2E6A0"/>
<path d="M204.131 313.834C197.867 309.269 192.795 303.262 189.343 296.323C185.891 289.383 184.162 281.714 184.301 273.964C195.404 284.134 202.31 298.901 204.131 313.834Z" fill="#858AFF" fill-opacity="0.54"/>
<path d="M185.21 300.522C178.388 296.844 172.551 291.578 168.195 285.167C163.839 278.757 161.091 271.392 160.184 263.695C172.564 272.255 181.424 285.966 185.21 300.522Z" fill="#858AFF" fill-opacity="0.54"/>
<path d="M167.034 291.64C159.811 288.828 153.37 284.319 148.259 278.492C143.147 272.665 139.513 265.693 137.666 258.166C150.99 265.138 161.483 277.662 167.034 291.64Z" fill="#858AFF" fill-opacity="0.54"/>
<path d="M147.16 285.9C140.23 282.431 134.236 277.346 129.685 271.073C125.134 264.801 122.159 257.525 121.012 249.861C133.647 258.032 142.919 271.466 147.16 285.9Z" fill="#858AFF" fill-opacity="0.54"/>
<path d="M133.224 283.524C125.825 281.219 119.089 277.167 113.587 271.709C108.085 266.252 103.978 259.55 101.613 252.17C115.459 258.199 126.74 269.967 133.224 283.524Z" fill="#858AFF" fill-opacity="0.54"/>
<path d="M126.905 283.129C119.174 282.563 111.422 283.867 104.302 286.93C97.1822 289.993 90.9047 294.725 86 300.726C101.034 300.193 115.901 293.365 126.905 283.129Z" fill="#858AFF" fill-opacity="0.54"/>
<path d="M148.881 286.732C141.152 286.167 133.4 287.469 126.281 290.53C119.161 293.591 112.883 298.321 107.977 304.319C123.01 303.764 137.856 296.969 148.881 286.732Z" fill="#858AFF" fill-opacity="0.54"/>
<path d="M167.845 292.372C160.219 290.992 152.372 291.468 144.968 293.76C137.564 296.052 130.821 300.092 125.309 305.54C140.32 306.573 155.787 301.388 167.845 292.372Z" fill="#858AFF" fill-opacity="0.54"/>
<path d="M185.644 301.155C178.018 299.772 170.17 300.247 162.766 302.539C155.362 304.831 148.619 308.873 143.107 314.322C158.119 315.355 173.597 310.17 185.644 301.155Z" fill="#858AFF" fill-opacity="0.54"/>
<path d="M207.206 316.154C200.266 312.706 192.598 310.981 184.849 311.124C177.101 311.267 169.501 313.274 162.693 316.976C176.828 322.139 193.183 321.461 207.206 316.154Z" fill="#858AFF" fill-opacity="0.54"/>
<path d="M221.351 330.965C214.411 327.517 206.742 325.791 198.994 325.934C191.246 326.077 183.646 328.085 176.838 331.787C190.961 336.949 207.272 336.272 221.351 330.965Z" fill="#858AFF" fill-opacity="0.54"/>
<path d="M234.721 350.017C228.183 345.855 220.738 343.329 213.017 342.652C205.296 341.976 197.526 343.169 190.363 346.131C203.876 352.793 220.165 353.814 234.721 350.017Z" fill="#D2E6A0"/>
<path d="M544.835 241.967C535.171 242.512 525.612 244.254 516.377 247.152C507.139 250.047 498.288 254.055 490.018 259.087C481.468 264.283 473.63 270.568 466.701 277.784C451.43 293.776 440.918 313.706 436.344 335.34C436.056 336.694 435.8 338.049 435.567 339.414C435.55 339.501 435.567 339.591 435.616 339.665C435.665 339.739 435.741 339.791 435.828 339.808C435.915 339.826 436.005 339.808 436.079 339.759C436.153 339.711 436.205 339.634 436.222 339.547C438.076 328.742 441.44 318.251 446.215 308.382C451.007 298.513 457.142 289.356 464.447 281.17C471.225 273.615 478.972 266.989 487.486 261.463C503.655 250.966 522.147 244.585 541.348 242.877C542.525 242.777 543.702 242.7 544.879 242.633C544.968 242.633 545.052 242.598 545.115 242.535C545.177 242.473 545.212 242.388 545.212 242.3C545.212 242.212 545.177 242.127 545.115 242.064C545.052 242.002 544.968 241.967 544.879 241.967H544.835Z" fill="#858AFF" fill-opacity="0.54"/>
<path d="M440.053 322.638C444.217 314.456 450.911 307.837 459.139 303.764C461.392 302.57 463.84 301.788 466.368 301.454C468.916 301.132 471.497 301.722 473.651 303.12C472.019 310.026 466.523 315.455 460.072 318.408C453.621 321.361 447.103 321.85 440.053 322.638Z" fill="#858AFF" fill-opacity="0.54"/>
<path d="M441.631 318.375C445.138 309.884 445.808 300.487 443.541 291.584C442.978 289.1 441.978 286.735 440.587 284.601C439.17 282.455 437.037 280.882 434.569 280.16C430.405 285.9 429.861 293.605 431.815 300.422C433.77 307.239 437.634 312.457 441.631 318.375Z" fill="#D2E6A0"/>
<path d="M454.033 294.027C458.478 285.987 460.214 276.729 458.985 267.625C458.712 265.089 457.986 262.622 456.842 260.342C455.682 258.05 453.746 256.244 451.379 255.246C446.582 260.475 445.161 268.058 446.327 275.064C447.493 282.069 450.779 287.743 454.033 294.027Z" fill="#858AFF" fill-opacity="0.54"/>
<path d="M468.455 276.651C474.381 269.626 477.885 260.877 478.448 251.704C478.668 249.162 478.431 246.601 477.749 244.143C477.059 241.669 475.507 239.523 473.374 238.092C467.656 242.289 464.802 249.461 464.591 256.556C464.38 263.65 466.423 269.845 468.455 276.651Z" fill="#858AFF" fill-opacity="0.54"/>
<path d="M487.552 261.296C494.98 255.917 500.481 248.292 503.241 239.546C504.05 237.13 504.426 234.589 504.351 232.041C504.273 229.474 503.285 227.019 501.565 225.113C495.002 227.811 490.461 234.073 488.585 240.912C486.708 247.751 487.23 254.202 487.552 261.296Z" fill="#858AFF" fill-opacity="0.54"/>
<path d="M507.25 250.549C516.129 248.184 524.009 243.022 529.723 235.827C531.362 233.876 532.637 231.646 533.487 229.243C534.334 226.818 534.295 224.171 533.376 221.771C526.281 221.927 519.83 226.212 515.611 231.852C511.392 237.492 509.493 243.821 507.25 250.549Z" fill="#858AFF" fill-opacity="0.54"/>
<path d="M532.521 243.621C541.709 243.731 550.688 240.877 558.126 235.483C560.227 234.042 562.055 232.237 563.522 230.154C564.987 228.044 565.66 225.484 565.421 222.926C558.548 221.172 551.186 223.514 545.579 227.855C539.972 232.197 536.496 237.737 532.521 243.621Z" fill="#858AFF" fill-opacity="0.54"/>
<path d="M452.777 296.525C459.795 290.607 468.531 287.103 477.693 286.533C480.234 286.306 482.795 286.535 485.254 287.21C487.728 287.894 489.877 289.437 491.317 291.562C487.142 297.302 479.98 300.178 472.885 300.444C465.79 300.711 459.584 298.534 452.777 296.525Z" fill="#858AFF" fill-opacity="0.54"/>
<path d="M465.213 279.86C472.225 273.94 480.958 270.437 490.118 269.868C492.658 269.641 495.219 269.87 497.679 270.545C500.157 271.226 502.311 272.769 503.752 274.897C499.578 280.626 492.405 283.513 485.321 283.779C478.237 284.046 471.986 281.869 465.213 279.86Z" fill="#858AFF" fill-opacity="0.54"/>
<path d="M484.699 262.862C493.016 258.988 502.359 257.89 511.347 259.731C513.875 260.193 516.3 261.103 518.509 262.418C520.714 263.732 522.382 265.786 523.217 268.213C517.665 272.654 510.004 273.543 503.097 271.899C496.191 270.256 490.751 266.637 484.699 262.862Z" fill="#858AFF" fill-opacity="0.54"/>
<path d="M509.426 249.827C518.526 248.574 527.787 250.283 535.84 254.701C538.11 255.869 540.152 257.433 541.87 259.32C543.592 261.225 544.58 263.681 544.656 266.248C538.061 268.846 530.466 267.447 524.349 263.839C518.231 260.231 514.067 255.168 509.426 249.827Z" fill="#858AFF" fill-opacity="0.54"/>
<path d="M529.135 244.409C538.296 243.731 547.432 246.029 555.183 250.96C557.371 252.272 559.307 253.964 560.901 255.956C562.498 257.969 563.328 260.483 563.244 263.051C556.493 265.271 548.999 263.339 543.136 259.342C537.273 255.345 533.465 250.038 529.135 244.409Z" fill="#858AFF" fill-opacity="0.54"/>
<path d="M542.625 242.344C551.294 239.301 560.714 239.137 569.484 241.878C571.939 242.567 574.249 243.696 576.301 245.209C578.368 246.732 579.828 248.939 580.421 251.437C574.458 255.301 566.741 255.434 560.035 253.114C553.329 250.793 548.265 246.652 542.625 242.344Z" fill="#858AFF" fill-opacity="0.54"/>
<path d="M480.469 230.664L457.641 231.564L441.485 232.197L411.506 233.373L243.991 239.935L198.345 241.767L178.359 242.555L188.519 235.505L187.275 229.299L197.934 216.52C206.245 207.924 215.72 200.536 226.081 194.57C272.36 167.069 351.315 150.026 429.893 190.129C441.055 195.814 451.751 202.37 461.882 209.736L470.287 219.018L469.887 221.882L480.469 230.664Z" fill="#78A3BA"/>
<path d="M179.248 255.09L477.727 247.496L480.481 230.664H468.722L470.299 218.984C403.757 165.625 262.667 154.278 187.287 229.254L189.852 242.022L178.371 242.522L179.248 255.09Z" fill="#4C768C"/>
<path d="M210.537 436.817L217.066 430L443.473 431.71L449.458 438.815L210.537 436.817Z" fill="#223B44"/>
<path d="M218.198 441.369L197.945 237.604C266.786 165.07 422.398 194.303 458.051 225.846L442.784 441.369H218.198Z" fill="#395D6D"/>
<path d="M234.055 252.992L235.676 263.162L420.401 261.085V251.137L234.055 252.992Z" fill="#223B44"/>
<g style="mix-blend-mode:multiply">
<path d="M217.51 434.408L443.85 426.303L442.962 438.816L217.51 436.817V434.408Z" fill="#BAD1DE"/>
</g>
<g style="mix-blend-mode:multiply">
<path d="M456.908 241.978L458.019 225.846C422.455 194.292 267.308 165.159 198.279 237.326C279.022 183.334 419.901 211.168 456.908 241.978Z" fill="#BAD1DE"/>
</g>
<path d="M213.99 457.324L210.537 436.817L449.458 438.816L447.726 457.324H213.99Z" fill="#78A3BA"/>
<g style="mix-blend-mode:multiply">
<path d="M224.428 297.724L226.715 295.648L436.034 292.972L426.408 420.652L425.564 421.807L224.428 297.724Z" fill="#BAD1DE"/>
</g>
<path d="M434.424 295.026L433.647 306.128L425.564 421.806H234.299L232.966 405.075L224.428 297.724L329.032 296.38L387.857 295.625L409.209 295.348L434.424 295.026Z" fill="#4C768C"/>
<g style="mix-blend-mode:multiply">
<g style="mix-blend-mode:multiply">
<path d="M298.609 350.816L301.763 381.226H361.199L363.342 347.919L330.376 360.92L298.609 350.816Z" fill="#BAD1DE"/>
</g>
<g style="mix-blend-mode:multiply">
<path d="M298.01 345.92L330.109 358.91L362.753 344.277L298.01 345.92Z" fill="#BAD1DE"/>
</g>
</g>
<g style="mix-blend-mode:multiply">
<path d="M240.028 307.361H238.129L238.207 308.172L246.967 409.971H414.46L422.388 305.174L240.028 307.361ZM409.908 405.064H251.464L243.536 313.001L243.458 312.202L247.833 312.146L417.092 310.126L409.908 405.064Z" fill="#BAD1DE"/>
</g>
<path d="M241.304 308.149H238.206H237.273L246.156 410.759H413.616L413.683 409.938L421.544 305.962L241.304 308.149ZM250.62 405.852L242.614 312.979H243.536L249.087 312.901L416.247 310.914L409.141 405.086L409.075 405.896L250.62 405.852Z" fill="#78A3BA"/>
<g style="mix-blend-mode:multiply">
<path d="M269.795 354.625C269.995 359.599 266.886 363.762 262.833 363.929C258.78 364.095 255.338 360.198 255.127 355.235C254.916 350.273 258.047 346.098 262.089 345.931C266.131 345.765 269.562 349.662 269.795 354.625Z" fill="#BAD1DE"/>
</g>
<path d="M268.74 355.624C268.94 360.598 265.831 364.761 261.778 364.928C257.726 365.094 254.284 361.197 254.073 356.234C253.862 351.272 256.982 347.097 261.034 346.93C265.087 346.764 268.54 350.661 268.74 355.624Z" fill="#78A3BA"/>
<g style="mix-blend-mode:soft-light" opacity="0.3">
<g style="mix-blend-mode:soft-light" opacity="0.3">
<path d="M387.856 295.625L303.282 421.806H234.297L232.965 405.075L329.031 296.38L387.856 295.625Z" fill="white"/>
</g>
<g style="mix-blend-mode:soft-light" opacity="0.3">
<path d="M434.423 295.026L433.646 306.128L351.893 421.806H315.951L409.208 295.348L434.423 295.026Z" fill="white"/>
</g>
</g>
<g style="mix-blend-mode:multiply">
<path d="M429.906 190.085C429.906 196.058 417.315 246.141 378.475 261.585L282.498 262.917C242.227 243.221 227.049 201.454 226.094 194.548C272.372 167.047 351.328 150.004 429.906 190.085Z" fill="#BAD1DE"/>
</g>
<path d="M416.759 211.479C410.374 232.208 396.798 249.976 378.475 261.585L348.562 262.007L336.771 262.162L282.498 262.917C270.542 255.755 260.378 245.96 252.778 234.278C245.178 222.596 240.343 209.334 238.64 195.502C238.351 193.193 238.151 190.873 238.063 188.53C238.063 187.897 238.063 187.275 237.996 186.643C237.91 183.093 238.028 179.542 238.351 176.006C238.518 174.319 238.718 172.676 238.984 170.921C239.058 170.359 239.147 169.793 239.251 169.223C239.439 168.112 239.65 167.002 239.895 165.892C240.017 165.326 240.139 164.782 240.272 164.193C240.527 163.083 240.805 161.973 241.105 160.862C241.405 159.752 241.738 158.642 242.082 157.532C242.237 157.021 242.404 156.51 242.57 156.011L243.37 153.679C244.047 151.792 244.78 149.926 245.591 148.128C245.946 147.295 246.312 146.496 246.701 145.685C247.589 143.798 248.537 141.947 249.543 140.134C250.284 138.779 251.072 137.447 251.908 136.137C252.175 135.704 252.452 135.282 252.73 134.838C253.318 133.916 253.94 133.017 254.562 132.118C264.237 118.207 277.582 107.253 293.113 100.475C294.723 99.7871 296.377 99.1321 298.031 98.5214C312.396 93.2969 327.839 91.7475 342.956 94.0143C358.072 96.2812 372.381 102.292 384.582 111.5C386.036 112.611 387.468 113.721 388.845 114.942C390.033 115.952 391.177 116.985 392.309 118.051L394.008 119.639C394.552 120.183 395.119 120.749 395.618 121.304C396.943 122.695 398.216 124.12 399.438 125.578C400.148 126.411 400.837 127.266 401.503 128.121C402.169 128.976 402.669 129.653 403.235 130.43C404.079 131.541 404.912 132.784 405.711 133.994C406.078 134.549 406.433 135.104 406.821 135.671C407.21 136.237 407.643 136.992 408.032 137.658C414.593 148.658 418.762 160.918 420.266 173.638C421.77 186.358 420.575 199.252 416.759 211.479Z" fill="#9499FF"/>
<g style="mix-blend-mode:multiply">
<g style="mix-blend-mode:multiply">
<path d="M408.009 137.691C407.62 137.025 407.22 136.359 406.799 135.704C406.377 135.049 406.088 134.594 405.688 134.028C404.889 132.817 404.056 131.629 403.212 130.464C402.646 129.686 402.102 128.92 401.48 128.154C400.525 127.644 399.592 127.222 398.749 126.844H398.626C398.127 126.633 397.516 126.333 396.928 126.034L399.415 125.656C398.193 124.176 396.92 122.751 395.595 121.382C395.073 120.816 394.485 120.271 393.985 119.716L392.331 118.095C391.221 116.985 390.055 115.997 388.867 114.987C387.49 113.799 386.058 112.644 384.603 111.545C383.689 111.948 382.691 112.127 381.694 112.067L381.428 112C380.258 111.475 379.173 110.779 378.208 109.935L377.097 109.113C375.564 107.907 373.842 106.962 372.001 106.316C370.041 105.674 367.936 105.628 365.95 106.182C364.762 106.541 363.638 107.085 362.619 107.792C362.241 108.048 361.886 108.314 361.508 108.558C361.085 108.891 360.636 109.188 360.165 109.446C359.154 109.902 357.056 109.446 355.524 109.136L333.317 104.473C330.418 103.656 327.355 103.614 324.434 104.35C319.66 105.827 316.729 110.657 317.939 115.075C319.216 119.905 324.179 121.482 326.055 122.07L332.407 124.08C331.085 124.634 329.935 125.531 329.076 126.678C326.611 130.008 327.665 133.717 328.298 135.915C328.454 136.481 328.609 137.025 328.687 137.414C329.042 139.546 326.955 142.377 324.934 145.108L324.59 145.563C318.594 153.768 319.571 159.508 321.459 162.883C321.566 163.086 321.685 163.282 321.814 163.472C324.212 167.258 328.198 168.668 331.429 169.822C333.484 170.544 335.427 171.232 336.304 172.265C337.181 173.297 337.492 175.263 337.836 177.372C338.391 180.636 339.068 184.689 342.211 187.764C343.954 189.325 345.988 190.528 348.195 191.306C349.178 191.656 350.114 192.126 350.982 192.705C351.627 193.348 352.153 194.1 352.537 194.925C352.859 195.491 353.203 196.124 353.647 196.779C354.585 198.147 355.754 199.342 357.1 200.31C357.601 200.664 358.062 201.069 358.477 201.52C358.618 201.732 358.716 201.97 358.766 202.22C358.444 202.431 357.833 202.741 357.389 202.964C355.463 203.798 353.768 205.085 352.448 206.716C351.436 208.045 350.799 209.621 350.605 211.279C350.227 214.31 351.404 217.097 352.215 219.051C352.677 219.959 352.995 220.933 353.159 221.938C353.051 222.473 352.895 222.997 352.692 223.503C352.348 224.458 352.077 225.438 351.882 226.434C351.515 228.79 351.307 231.168 351.26 233.551C351.26 234.439 351.182 235.339 351.127 236.205C351.128 237.217 350.959 238.223 350.627 239.18C349.762 239.648 348.823 239.964 347.851 240.113C345.443 240.539 343.164 241.512 341.189 242.955C338.48 245.176 337.347 248.262 336.592 250.349L335.216 254.169C334.812 255.194 334.604 256.286 334.605 257.388C334.682 259.221 335.48 260.949 336.826 262.196L348.617 262.04C349.161 261.596 349.661 261.13 350.105 260.697L350.527 260.286C351.014 259.729 351.574 259.239 352.193 258.832C353.264 258.714 354.349 258.796 355.39 259.076C356.012 259.198 356.778 259.398 357.611 259.631C359.763 260.329 362.011 260.681 364.273 260.675C367.126 260.53 372.667 258.321 374.555 254.446C375.341 253.229 376.032 251.952 376.62 250.627C377.048 249.584 377.612 248.602 378.296 247.707C379.64 246.23 382.482 245.72 385.491 245.187C389.633 244.454 394.807 243.532 398.316 239.391C401.225 235.96 402.257 231.208 401.391 225.213C401.202 224.103 400.991 222.926 400.781 221.882C400.277 219.803 400.031 217.671 400.048 215.532C400.103 214.766 400.259 213.9 400.414 212.967C400.57 212.034 400.792 210.857 400.892 209.636C401.105 208.016 400.99 206.369 400.556 204.794C400.121 203.219 399.374 201.747 398.36 200.465C396.995 198.882 395.203 197.725 393.197 197.135C390.879 196.528 388.486 196.255 386.091 196.324C385.032 196.345 383.975 196.222 382.949 195.958C382.688 195.887 382.441 195.774 382.216 195.625C382.133 195.353 382.077 195.074 382.049 194.792C382.049 194.437 381.972 194.026 381.949 193.682C381.899 191.929 381.522 190.201 380.839 188.586C380.351 187.591 379.667 186.705 378.827 185.982C377.987 185.259 377.01 184.713 375.954 184.378C372.623 183.334 369.192 184.711 367.559 185.366C367.086 185.576 366.591 185.732 366.083 185.832L365.694 185.455L364.406 185.144C364.284 185.144 363.973 185.011 363.707 184.467C363.352 183.65 363.324 182.728 363.629 181.891C363.762 181.569 363.995 181.136 364.24 180.67C364.633 179.963 364.981 179.232 365.283 178.482C365.799 177.214 366.048 175.854 366.016 174.485C366.397 174.668 366.79 174.824 367.193 174.952C367.447 175.033 367.707 175.096 367.97 175.14C372.878 176.084 375.909 172.032 377.364 170.089C377.947 169.157 378.733 168.368 379.662 167.779H379.751C382.057 167.025 384.211 165.867 386.113 164.36C390.358 160.829 393.13 155.84 393.885 150.371C393.885 150.371 393.952 149.838 393.952 149.793C394.598 149.916 395.25 149.998 395.906 150.038C397.602 150.143 399.3 149.859 400.869 149.205C403.553 148.136 405.742 146.105 407.009 143.509C407.857 141.694 408.202 139.685 408.009 137.691ZM353.469 168.29C352.652 168.801 351.906 169.417 351.249 170.122C351.037 169.897 350.847 169.651 350.683 169.389C350.476 169.111 350.337 168.789 350.277 168.448C350.217 168.106 350.238 167.756 350.338 167.424C350.809 166.938 351.44 166.638 352.115 166.58C353.703 166.424 355.305 166.48 356.878 166.747C357.578 166.836 358.288 166.925 358.954 167.058C357.042 166.887 355.124 167.317 353.469 168.29Z" fill="#8489FF" fill-opacity="0.62"/>
</g>
<g style="mix-blend-mode:multiply">
<path d="M300.995 237.515C299.531 238.31 297.916 238.786 296.255 238.913C294.594 239.039 292.925 238.812 291.358 238.247C290.131 237.861 288.944 237.355 287.816 236.738C287.038 236.316 286.328 235.894 285.595 235.483C284.422 234.7 283.163 234.055 281.842 233.562C281.636 233.492 281.424 233.44 281.209 233.407C279.721 233.288 278.223 233.396 276.768 233.729C275.935 233.873 275.058 234.017 274.148 234.117C270.593 234.504 266.998 234.149 263.588 233.074C253.762 230.009 246.156 221.782 244.257 212.123C243.913 210.336 243.769 208.604 243.613 206.927C243.543 204.688 243.135 202.472 242.403 200.354C241.469 198.506 240.178 196.861 238.606 195.514C238.332 193.204 238.136 190.876 238.017 188.53C237.194 169.481 242.316 150.647 252.674 134.638C253.262 133.717 253.873 132.806 254.506 131.918C264.218 118.07 277.582 107.19 293.112 100.487C294.733 99.7835 296.373 99.1284 298.031 98.5215C299.907 100.659 301.314 103.167 302.161 105.882C303.211 109.152 303.391 112.638 302.685 115.998C301.978 119.358 300.408 122.476 298.131 125.046C297.42 125.834 296.687 126.533 295.988 127.266C294.988 128.232 293.29 129.842 293.323 130.475C293.323 130.63 293.789 131.43 295.188 132.218C295.987 132.628 296.806 132.999 297.642 133.328C299.239 133.963 300.774 134.743 302.228 135.66C305.085 137.555 307.295 140.278 308.562 143.464C309.828 146.65 310.091 150.147 309.314 153.487C308.537 156.826 306.759 159.849 304.216 162.149C301.674 164.45 298.489 165.918 295.088 166.358C292.357 166.607 289.604 166.458 286.916 165.914C285.684 165.714 284.518 165.537 283.43 165.47C281.12 165.326 279.222 166.036 278.9 166.791C278.696 167.859 278.696 168.955 278.9 170.022C279.315 172.676 279.036 175.391 278.089 177.905C277.568 179.069 276.867 180.144 276.013 181.091C278.009 179.891 280.234 179.119 282.546 178.827C284.857 178.534 287.204 178.727 289.437 179.393C294.267 180.892 297.265 184.711 297.265 189.385C297.235 190.646 297.053 191.899 296.72 193.115C296.582 193.62 296.493 194.137 296.454 194.659C296.803 195.346 297.236 195.987 297.742 196.568C299.573 198.564 300.717 201.093 301.006 203.785C301.039 205.625 300.57 207.438 299.651 209.032C298.732 210.626 297.396 211.94 295.788 212.834C295.142 213.206 294.461 213.514 293.756 213.755C297.087 214.769 300.113 216.597 302.561 219.073C303.885 220.551 304.87 222.301 305.446 224.2C306.021 226.099 306.173 228.101 305.892 230.065C305.697 231.598 305.155 233.066 304.307 234.357C303.458 235.648 302.325 236.728 300.995 237.515Z" fill="#8489FF" fill-opacity="0.62"/>
</g>
</g>
<path d="M394.585 236.216C389.855 241.767 379.617 238.969 374.676 244.387C372.7 246.608 372.045 249.639 370.235 251.992C369.647 253.902 365.705 255.712 363.906 255.812C361.519 255.934 358.577 254.701 356.134 254.291C354.158 253.913 352.059 253.558 350.205 254.291C348.827 255.01 347.601 255.991 346.596 257.177C345.574 258.36 344.201 259.184 342.677 259.531C341.145 259.731 339.346 258.698 339.346 257.144C339.362 256.616 339.479 256.096 339.69 255.612C340.134 254.368 340.589 253.114 341.045 251.87C341.744 249.927 342.521 247.873 344.131 246.574C347.018 244.254 351.77 245.009 354.18 242.133C355.501 240.59 355.69 238.403 355.823 236.371C355.882 233.275 356.108 230.184 356.5 227.111C356.789 225.502 357.611 223.981 357.822 222.348C358.344 218.03 353.114 213.644 356.212 209.436C357.833 207.216 361.286 206.949 362.796 204.662C363.312 203.718 363.538 202.643 363.447 201.571C363.356 200.499 362.952 199.477 362.285 198.633C360.975 196.779 358.788 195.924 357.589 194.059C356.389 192.194 355.701 190.262 353.924 188.819C351.426 186.787 347.795 186.443 345.497 184.189C341.578 180.359 343.421 173.208 339.945 169.023C336.281 164.671 328.376 165.359 325.611 160.385C323.479 156.543 325.833 151.803 328.431 148.25C331.029 144.697 334.116 140.778 333.372 136.448C332.961 134.039 331.44 131.352 332.906 129.375C333.95 127.977 335.97 127.854 337.714 127.71C339.457 127.566 341.544 126.977 342.033 125.29C342.16 124.687 342.113 124.061 341.897 123.485C341.68 122.909 341.304 122.406 340.811 122.037C339.81 121.316 338.679 120.796 337.48 120.504L327.532 117.496C325.489 116.852 323.091 115.908 322.602 113.843C322.114 111.778 323.812 109.568 325.933 108.925C328.073 108.462 330.296 108.546 332.395 109.169L354.602 113.832C357.133 114.365 359.865 114.875 362.219 113.832C364.017 113.021 365.372 111.367 367.282 110.812C369.713 110.112 372.256 111.434 374.299 112.955C376.342 114.476 378.318 116.286 380.806 116.752C383.14 117.009 385.498 116.577 387.59 115.508L388.878 114.953C391.231 116.974 393.48 119.112 395.617 121.359C394.189 121.422 392.831 121.993 391.787 122.969C391.25 123.741 390.986 124.67 391.036 125.609C391.087 126.548 391.448 127.444 392.064 128.154C393.341 129.543 394.938 130.599 396.717 131.23C398.485 131.863 400.109 132.844 401.491 134.116C402.404 135.091 403.003 136.317 403.21 137.636C403.418 138.955 403.224 140.305 402.654 141.513C402.085 142.72 401.165 143.729 400.015 144.408C398.866 145.086 397.538 145.404 396.206 145.319C394.329 145.186 392.22 144.331 390.654 145.441C389.366 146.396 389.266 148.239 389.066 149.882C388.471 154.114 386.327 157.975 383.048 160.718C381.514 161.896 379.785 162.798 377.941 163.383C376.121 164.24 374.582 165.595 373.5 167.291C372.3 168.89 370.801 170.888 368.825 170.511C368.271 170.332 367.765 170.03 367.344 169.629C366.923 169.227 366.598 168.735 366.393 168.19C365.965 167.099 365.448 166.045 364.85 165.037C363.24 162.816 360.187 162.306 357.455 161.984C355.433 161.647 353.373 161.599 351.337 161.839C350.319 161.968 349.34 162.311 348.464 162.845C347.587 163.379 346.834 164.092 346.252 164.937C345.665 166.046 345.396 167.295 345.474 168.547C345.553 169.799 345.976 171.005 346.696 172.032C347.684 173.564 349.339 175.163 351.26 175.362C353.702 175.551 354.147 173.553 355.979 172.465C357.511 171.543 359.798 171.632 360.775 173.12C361.08 173.684 361.247 174.312 361.26 174.953C361.274 175.594 361.134 176.229 360.853 176.806C360.375 177.994 359.632 179.026 359.187 180.259C357.788 184.078 359.298 188.73 363.218 189.818C364.761 191.328 367.315 190.673 369.325 189.818C371.334 188.963 373.766 188.175 375.476 189.474C377.841 191.25 376.586 195.114 377.908 197.745C379.229 200.376 382.948 201.076 386.046 201.076C389.144 201.076 392.708 201.143 394.685 203.496C395.881 205.125 396.388 207.159 396.095 209.159C395.928 211.146 395.384 213.1 395.251 215.087C394.996 218.707 396.095 222.271 396.628 225.857C397.161 229.443 396.939 233.484 394.585 236.216Z" fill="#777DFF"/>
<path d="M298.598 233.362C296.011 234.861 292.713 233.929 290.093 232.519C287.472 231.109 285.007 229.188 282.065 228.677C279.123 228.166 276.513 229.032 273.671 229.343C262.568 230.598 251.131 222.227 249.011 211.213C248.189 206.96 248.566 202.42 246.79 198.445C245.013 194.47 241.338 191.583 238.007 188.519C237.186 169.474 242.308 150.644 252.664 134.638C253.33 133.77 253.942 132.862 254.496 131.918C264.216 118.071 277.583 107.188 293.113 100.476C295.242 102.294 296.787 104.7 297.554 107.392C298.336 109.856 298.466 112.48 297.933 115.01C297.4 117.539 296.221 119.887 294.512 121.826C292.058 124.546 288.327 126.933 288.472 130.597C288.572 133.095 290.603 135.116 292.78 136.337C294.956 137.558 297.432 138.247 299.519 139.668C301.566 141.02 303.149 142.966 304.056 145.245C304.964 147.523 305.152 150.025 304.596 152.413C304.04 154.802 302.766 156.963 300.945 158.607C299.125 160.25 296.845 161.297 294.412 161.606C290.848 162.073 287.272 160.918 283.675 160.685C280.078 160.452 275.903 161.584 274.437 164.893C272.971 168.201 275.103 172.565 273.593 175.995C272.261 179.049 268.352 180.681 267.808 183.967C267.264 187.253 270.196 189.751 271.772 192.605C274.881 198.156 272.883 205.761 276.658 210.946C279.145 214.388 283.497 215.831 287.594 216.953C291.692 218.074 296.055 219.173 298.942 222.315C301.829 225.457 302.273 231.242 298.598 233.362Z" fill="#777DFF"/>
<path d="M276.08 189.074C276.147 191.022 276.939 192.875 278.301 194.27C279.662 195.644 280.817 197.207 281.732 198.911C282.609 200.954 282.487 203.352 283.375 205.35C283.767 206.265 284.349 207.085 285.081 207.759C285.814 208.432 286.68 208.943 287.624 209.258C288.568 209.572 289.568 209.684 290.558 209.584C291.548 209.485 292.505 209.177 293.368 208.681C294.211 208.226 294.917 207.554 295.413 206.734C295.909 205.914 296.176 204.976 296.188 204.018C296.022 200.687 292.135 198.6 291.669 195.314C291.391 193.337 292.446 191.395 292.446 189.385C292.468 181.136 276.458 182.024 276.08 189.074Z" fill="#979DFF"/>
<g style="mix-blend-mode:soft-light" opacity="0.5">
<path d="M324.836 162.7C353.657 155.091 373.346 135.005 368.813 117.835C364.279 100.666 337.24 92.9159 308.419 100.525C279.598 108.134 259.909 128.22 264.443 145.39C268.976 162.559 296.015 170.309 324.836 162.7Z" fill="white"/>
</g>
<g style="mix-blend-mode:multiply">
<path d="M416.759 211.479C410.374 232.208 396.798 249.977 378.475 261.585L348.563 262.007L336.771 262.162L282.498 262.917C270.542 255.755 260.378 245.96 252.778 234.278C245.178 222.596 240.343 209.334 238.64 195.503C238.351 193.193 238.152 190.873 238.063 188.53C238.063 187.897 238.063 187.276 237.996 186.643C237.996 185.244 237.996 183.834 237.996 182.435C248.877 197.372 264.052 208.638 281.499 214.732C282.609 215.11 283.653 215.476 284.741 215.842C290.675 217.682 296.779 218.917 302.961 219.529C316.512 220.828 330.181 219.094 342.978 214.452C355.775 209.811 367.377 202.378 376.943 192.694C378.238 191.376 379.5 190.018 380.729 188.619C389.116 179.001 395.392 167.729 399.149 155.533C399.801 153.431 400.371 151.325 400.859 149.216C401.414 146.907 401.858 144.575 402.214 142.255C402.514 140.334 402.747 138.402 402.902 136.47C403.058 134.538 403.202 132.462 403.246 130.464C404.09 131.574 404.923 132.817 405.722 134.028C406.089 134.583 406.444 135.138 406.833 135.704C407.221 136.27 407.654 137.025 408.043 137.691C414.598 148.688 418.762 160.943 420.264 173.657C421.766 186.37 420.572 199.258 416.759 211.479Z" fill="#9499FF" fill-opacity="0.25"/>
</g>
<path d="M374.011 227.567C374.011 227.567 355.291 183.912 361.065 153.868C367.105 122.481 383.96 119.45 407.554 127.499C421.988 132.396 437.711 145.874 430.505 168.801C422.865 193.149 374.011 227.567 374.011 227.567Z" fill="#FF991F"/>
<path d="M364.451 225.057L374.011 227.567L377.209 210.968L365.573 219.24L364.451 225.057Z" fill="#FF991F"/>
<path d="M420.945 166.269C420.403 167.972 419.723 169.628 418.913 171.221C417.431 174.133 415.712 176.918 413.772 179.548C397.917 201.465 364.463 225.069 364.463 225.069C361.457 217.981 358.862 210.726 356.69 203.341C356.102 201.331 355.513 199.233 354.947 197.079C353.837 192.849 352.815 188.341 352.016 183.756C350.724 176.834 350.125 169.801 350.228 162.761C350.311 158.94 350.742 155.135 351.516 151.392C357.956 121.482 384.426 121.259 398.017 125.023C405.983 127.165 412.96 132.003 417.758 138.713C421.603 144.334 423.341 151.132 422.666 157.909C422.398 160.75 421.821 163.553 420.945 166.269Z" fill="#FFC74A"/>
<g style="mix-blend-mode:soft-light" opacity="0.5">
<g style="mix-blend-mode:soft-light" opacity="0.5">
<path d="M418.913 171.243C417.431 174.156 415.711 176.941 413.772 179.57C394.177 186.061 375.093 194.003 356.679 203.33C356.09 201.32 355.502 199.222 354.936 197.068C375.528 186.745 396.924 178.108 418.913 171.243Z" fill="white"/>
</g>
<g style="mix-blend-mode:soft-light" opacity="0.5">
<path d="M422.654 157.876C408.337 161.766 394.225 166.376 380.373 171.688C371.594 175.055 362.922 178.701 354.358 182.624L352.004 183.734C350.712 176.812 350.114 169.779 350.216 162.739C372.041 152.915 394.625 144.873 417.747 138.691C421.589 144.309 423.327 151.103 422.654 157.876Z" fill="white"/>
</g>
</g>
<path d="M397.041 173.51C407.308 166.791 410.514 153.525 404.202 143.879C397.889 134.233 384.448 131.86 374.181 138.578C363.913 145.297 360.707 158.563 367.02 168.209C373.332 177.855 386.773 180.228 397.041 173.51Z" fill="#9499FF"/>
<path d="M506.495 205.128C506.216 204.856 505.876 204.655 505.502 204.543C505.129 204.43 504.734 204.411 504.352 204.484C504.199 204.513 504.051 204.558 503.908 204.618C503.764 204.679 503.626 204.753 503.497 204.84C503.371 204.926 503.252 205.023 503.141 205.128L503.075 205.206C502.912 204.852 502.663 204.543 502.351 204.309C502.039 204.074 501.673 203.921 501.287 203.863C501.022 204.149 500.691 204.365 500.323 204.493C499.955 204.621 499.561 204.656 499.176 204.596C498.791 204.536 498.426 204.381 498.115 204.147C497.804 203.913 497.555 203.605 497.39 203.252C497.127 203.541 496.797 203.76 496.429 203.891C496.061 204.021 495.666 204.058 495.28 203.999C494.894 203.939 494.529 203.785 494.217 203.55C493.905 203.316 493.656 203.007 493.493 202.653C493.107 202.594 492.713 202.631 492.345 202.761C491.977 202.89 491.647 203.109 491.383 203.396C491.222 203.041 490.973 202.731 490.661 202.496C490.348 202.262 489.982 202.109 489.595 202.053C489.331 202.337 489.002 202.552 488.635 202.679C488.269 202.806 487.877 202.842 487.493 202.783C487.11 202.724 486.747 202.572 486.436 202.34C486.125 202.108 485.876 201.804 485.709 201.453C485.325 201.394 484.931 201.43 484.563 201.558C484.196 201.686 483.865 201.901 483.6 202.186C482.565 202.356 481.505 202.267 480.513 201.928C479.522 201.589 478.629 201.01 477.915 200.243C477.532 200.184 477.14 200.22 476.774 200.348C476.408 200.476 476.079 200.691 475.816 200.976C475.645 200.627 475.392 200.325 475.079 200.095C474.766 199.865 474.402 199.714 474.017 199.655C473.634 199.591 473.241 199.624 472.874 199.752C472.507 199.88 472.179 200.099 471.919 200.388C470.885 200.55 469.827 200.458 468.836 200.12C467.845 199.781 466.952 199.206 466.234 198.445C465.849 198.387 465.456 198.423 465.089 198.551C464.721 198.678 464.39 198.893 464.124 199.177C463.957 198.827 463.706 198.523 463.394 198.291C463.082 198.06 462.718 197.908 462.334 197.849C461.95 197.79 461.557 197.825 461.19 197.952C460.823 198.079 460.493 198.294 460.227 198.578C459.193 198.747 458.133 198.659 457.141 198.32C456.149 197.981 455.257 197.402 454.542 196.635C454.157 196.576 453.762 196.613 453.394 196.743C453.027 196.873 452.696 197.091 452.433 197.379C452.319 197.13 452.165 196.901 451.977 196.702C451.863 196.592 451.741 196.492 451.611 196.402C451.48 196.321 451.343 196.25 451.2 196.191C451.056 196.131 450.908 196.083 450.756 196.047C450.448 195.991 450.132 195.991 449.823 196.047C449.672 196.083 449.523 196.131 449.379 196.191C449.237 196.25 449.099 196.321 448.968 196.402C448.842 196.492 448.724 196.593 448.613 196.702C448.501 196.814 448.401 196.936 448.313 197.068C448.226 197.194 448.152 197.327 448.091 197.468C448.037 197.616 447.992 197.768 447.958 197.923C447.942 198.074 447.942 198.227 447.958 198.378C447.942 198.533 447.942 198.689 447.958 198.844C447.991 198.996 448.035 199.144 448.091 199.288C448.152 199.432 448.226 199.57 448.313 199.699C448.401 199.831 448.501 199.954 448.613 200.066H448.669C448.281 200.196 447.933 200.425 447.659 200.73C447.386 201.035 447.195 201.405 447.107 201.805C447.019 202.205 447.035 202.621 447.155 203.013C447.275 203.404 447.494 203.758 447.791 204.04C447.404 204.17 447.058 204.4 446.787 204.706C446.516 205.011 446.33 205.383 446.248 205.783C446.163 206.181 446.18 206.593 446.299 206.982C446.417 207.37 446.633 207.722 446.925 208.004C446.539 208.136 446.194 208.366 445.923 208.671C445.653 208.977 445.466 209.348 445.382 209.747C445.291 210.145 445.307 210.56 445.428 210.95C445.549 211.34 445.771 211.691 446.07 211.968C445.683 212.1 445.337 212.33 445.064 212.635C444.792 212.94 444.603 213.311 444.516 213.711C444.429 214.109 444.446 214.523 444.567 214.912C444.688 215.301 444.907 215.652 445.204 215.931C444.817 216.063 444.47 216.293 444.198 216.599C443.926 216.904 443.737 217.274 443.65 217.674C443.563 218.074 443.58 218.49 443.701 218.881C443.822 219.272 444.041 219.625 444.338 219.906C443.951 220.038 443.604 220.268 443.332 220.573C443.06 220.879 442.871 221.249 442.784 221.649C442.697 222.049 442.714 222.464 442.835 222.855C442.955 223.246 443.175 223.599 443.472 223.881C443.087 224.015 442.743 224.246 442.472 224.552C442.202 224.857 442.014 225.227 441.928 225.626C441.841 226.025 441.858 226.439 441.976 226.829C442.095 227.219 442.312 227.573 442.606 227.855C442.222 227.99 441.878 228.221 441.608 228.526C441.337 228.831 441.15 229.2 441.063 229.599C440.972 229.996 440.988 230.411 441.109 230.801C441.23 231.191 441.451 231.542 441.751 231.819C441.364 231.951 441.017 232.181 440.745 232.486C440.473 232.792 440.284 233.162 440.197 233.562C440.109 233.962 440.127 234.377 440.248 234.768C440.368 235.159 440.588 235.513 440.885 235.794C440.5 235.929 440.155 236.159 439.883 236.464C439.611 236.769 439.421 237.138 439.331 237.537C439.251 237.935 439.272 238.347 439.392 238.735C439.513 239.123 439.728 239.474 440.019 239.757C439.629 239.887 439.28 240.116 439.006 240.422C438.732 240.728 438.543 241.101 438.457 241.503C438.372 241.905 438.393 242.322 438.519 242.713C438.645 243.104 438.871 243.456 439.175 243.732C438.829 243.842 438.513 244.032 438.254 244.287C438.142 244.399 438.042 244.522 437.954 244.654C437.778 244.911 437.658 245.202 437.599 245.509C437.582 245.663 437.582 245.82 437.599 245.975C437.598 246.287 437.659 246.596 437.779 246.884C437.899 247.172 438.076 247.433 438.298 247.651C438.743 248.096 439.346 248.348 439.975 248.351C440.132 248.349 440.288 248.33 440.441 248.295C440.595 248.273 440.745 248.228 440.885 248.162C441.029 248.105 441.166 248.035 441.296 247.951L441.518 247.762C441.624 248.146 441.825 248.497 442.103 248.782C442.38 249.067 442.725 249.278 443.106 249.394C443.486 249.504 443.887 249.519 444.274 249.438C444.661 249.356 445.023 249.181 445.327 248.928C446.388 248.899 447.439 249.135 448.386 249.616C449.332 250.097 450.143 250.807 450.745 251.682C451.045 251.425 451.404 251.246 451.79 251.163C452.175 251.079 452.576 251.093 452.955 251.204C453.334 251.314 453.68 251.517 453.961 251.794C454.242 252.071 454.449 252.414 454.565 252.792C454.864 252.535 455.223 252.357 455.609 252.273C455.995 252.19 456.395 252.204 456.775 252.314C457.154 252.424 457.499 252.627 457.78 252.904C458.061 253.182 458.269 253.524 458.384 253.902C458.684 253.645 459.043 253.467 459.429 253.383C459.814 253.3 460.215 253.314 460.594 253.424C460.973 253.534 461.319 253.737 461.6 254.015C461.881 254.292 462.088 254.635 462.204 255.012C462.503 254.755 462.862 254.577 463.248 254.494C463.634 254.41 464.035 254.424 464.414 254.534C464.793 254.645 465.138 254.847 465.419 255.125C465.7 255.402 465.908 255.745 466.023 256.123C466.323 255.866 466.682 255.687 467.068 255.604C467.454 255.52 467.854 255.534 468.233 255.645C468.612 255.755 468.958 255.958 469.239 256.235C469.52 256.512 469.727 256.855 469.843 257.233C470.222 257.347 470.625 257.365 471.013 257.283C471.401 257.202 471.762 257.024 472.063 256.767C472.176 257.148 472.38 257.495 472.659 257.778C472.938 258.061 473.283 258.27 473.662 258.388C474.043 258.5 474.445 258.515 474.833 258.431C475.221 258.348 475.582 258.169 475.883 257.91C476.945 257.885 477.996 258.124 478.942 258.607C479.888 259.09 480.699 259.8 481.301 260.675C481.681 260.785 482.083 260.801 482.47 260.719C482.857 260.638 483.219 260.462 483.522 260.208C483.639 260.584 483.848 260.925 484.129 261.201C484.411 261.476 484.756 261.678 485.134 261.788C485.512 261.898 485.911 261.912 486.297 261.831C486.682 261.749 487.041 261.573 487.341 261.319C487.456 261.698 487.663 262.043 487.945 262.322C488.227 262.601 488.574 262.805 488.955 262.915C489.336 263.025 489.738 263.039 490.125 262.954C490.513 262.869 490.872 262.688 491.172 262.429C491.277 262.814 491.479 263.166 491.761 263.45C491.873 263.562 491.995 263.662 492.127 263.75C492.256 263.837 492.394 263.912 492.538 263.972C492.682 264.03 492.83 264.074 492.982 264.105C493.133 264.117 493.286 264.117 493.437 264.105C494.07 264.104 494.677 263.853 495.125 263.406C495.344 263.185 495.518 262.924 495.636 262.636C495.754 262.349 495.814 262.04 495.813 261.729C495.83 261.574 495.83 261.418 495.813 261.263C495.79 261.11 495.745 260.96 495.68 260.819C495.621 260.674 495.547 260.536 495.458 260.408C495.377 260.278 495.28 260.159 495.169 260.053C495.548 259.914 495.885 259.681 496.149 259.376C496.413 259.071 496.595 258.704 496.679 258.31C496.759 257.912 496.738 257.5 496.618 257.112C496.497 256.724 496.282 256.372 495.991 256.089C496.368 255.948 496.702 255.714 496.964 255.409C497.225 255.103 497.405 254.736 497.486 254.343C497.567 253.949 497.546 253.541 497.427 253.157C497.307 252.773 497.092 252.426 496.801 252.148C497.179 252.007 497.515 251.772 497.777 251.466C498.039 251.16 498.22 250.793 498.302 250.398C498.384 250.003 498.365 249.595 498.246 249.209C498.127 248.824 497.913 248.475 497.623 248.195C498 248.054 498.334 247.82 498.596 247.515C498.857 247.209 499.037 246.842 499.118 246.449C499.199 246.055 499.178 245.647 499.059 245.263C498.939 244.879 498.724 244.532 498.434 244.254C498.812 244.114 499.149 243.88 499.412 243.573C499.675 243.267 499.856 242.898 499.937 242.503C500.018 242.107 499.997 241.698 499.876 241.312C499.755 240.927 499.537 240.579 499.244 240.301C499.622 240.162 499.957 239.928 500.22 239.624C500.483 239.319 500.663 238.952 500.746 238.558C500.828 238.164 500.808 237.756 500.69 237.371C500.571 236.987 500.356 236.639 500.066 236.36C500.445 236.22 500.781 235.986 501.044 235.679C501.307 235.373 501.488 235.004 501.569 234.609C501.65 234.213 501.629 233.804 501.508 233.418C501.387 233.033 501.169 232.685 500.876 232.407C501.255 232.267 501.592 232.033 501.855 231.727C502.118 231.42 502.299 231.052 502.38 230.656C502.461 230.261 502.44 229.851 502.319 229.466C502.197 229.081 501.98 228.733 501.687 228.455C502.066 228.318 502.405 228.086 502.669 227.781C502.934 227.476 503.116 227.109 503.198 226.714C503.28 226.319 503.26 225.909 503.14 225.524C503.019 225.139 502.802 224.791 502.509 224.514C502.886 224.372 503.222 224.136 503.484 223.83C503.746 223.523 503.926 223.155 504.008 222.759C504.096 222.361 504.079 221.947 503.958 221.558C503.837 221.168 503.617 220.817 503.319 220.539C503.697 220.401 504.033 220.168 504.296 219.863C504.558 219.558 504.738 219.19 504.818 218.796C504.902 218.399 504.884 217.986 504.766 217.598C504.648 217.21 504.432 216.858 504.141 216.575C504.517 216.434 504.852 216.2 505.113 215.895C505.375 215.589 505.554 215.222 505.635 214.829C505.716 214.435 505.696 214.027 505.576 213.643C505.457 213.259 505.242 212.912 504.951 212.634C505.329 212.492 505.665 212.257 505.927 211.95C506.189 211.643 506.368 211.275 506.448 210.879C506.528 210.484 506.506 210.075 506.384 209.69C506.262 209.306 506.044 208.958 505.751 208.681C506.075 208.563 506.37 208.378 506.617 208.137C506.729 208.025 506.829 207.903 506.917 207.771C507.001 207.644 507.076 207.51 507.139 207.371C507.195 207.223 507.239 207.071 507.272 206.916C507.289 206.765 507.289 206.612 507.272 206.461C507.167 205.943 506.893 205.475 506.495 205.128Z" fill="white"/>
<path d="M501.964 208.815L500.588 215.476L499.744 219.562L497.29 231.453L496.635 234.628L491.605 258.976L456.275 248.384L442.729 244.321L443.983 238.558L444.894 234.328L446.959 224.869L447.392 222.87L452.122 201.109L498.667 208.304L501.964 208.815Z" fill="#4C768C"/>
<path d="M497.29 231.453L491.605 258.976L442.729 244.332L447.392 222.87L462.292 212.201L472.341 227.256L491.661 214.166L497.29 231.453Z" fill="#395D6D"/>
<g style="mix-blend-mode:soft-light" opacity="0.3">
<path d="M501.965 208.815L500.589 215.476C492.194 217.23 483.878 219.373 475.695 221.882C465.214 225.113 454.432 228.721 444.895 234.328L446.96 224.869C455.2 220.932 463.739 217.654 472.497 215.065C481.106 212.38 489.845 210.127 498.679 208.315L501.965 208.815Z" fill="white"/>
</g>
<g style="mix-blend-mode:soft-light" opacity="0.3">
<path d="M499.745 219.562L497.291 231.453L496.636 234.628C482.726 237.703 469.207 242.333 456.331 248.428L442.785 244.365L444.04 238.603C461.594 229.606 480.356 223.193 499.745 219.562Z" fill="white"/>
</g>
<path d="M220.03 308.782C220.287 308.668 220.568 308.618 220.849 308.637C221.13 308.656 221.401 308.744 221.64 308.893C221.738 308.947 221.828 309.014 221.907 309.093C221.989 309.166 222.064 309.248 222.129 309.337C222.193 309.428 222.248 309.525 222.295 309.626C222.3 309.648 222.3 309.67 222.295 309.692C222.497 309.497 222.743 309.354 223.013 309.276C223.282 309.198 223.567 309.187 223.842 309.244C224.116 309.301 224.373 309.424 224.589 309.603C224.806 309.782 224.975 310.011 225.082 310.27C225.284 310.075 225.53 309.932 225.799 309.855C226.068 309.777 226.353 309.767 226.627 309.825C226.901 309.883 227.157 310.008 227.371 310.188C227.586 310.368 227.753 310.598 227.858 310.858C228.057 310.66 228.303 310.514 228.572 310.435C228.842 310.355 229.127 310.344 229.401 310.403C229.675 310.462 229.931 310.587 230.146 310.766C230.36 310.946 230.528 311.176 230.634 311.436C230.833 311.238 231.079 311.094 231.349 311.017C231.619 310.939 231.903 310.93 232.177 310.991C232.45 311.049 232.705 311.172 232.92 311.35C233.134 311.528 233.302 311.756 233.41 312.013C233.611 311.818 233.857 311.675 234.127 311.598C234.396 311.52 234.68 311.51 234.954 311.568C235.229 311.626 235.484 311.751 235.699 311.931C235.914 312.111 236.081 312.341 236.186 312.601C236.385 312.403 236.63 312.257 236.9 312.178C237.169 312.098 237.454 312.088 237.729 312.146C238.003 312.205 238.258 312.33 238.473 312.51C238.688 312.69 238.856 312.919 238.961 313.179C239.163 312.986 239.409 312.845 239.677 312.768C239.945 312.691 240.228 312.681 240.501 312.738C240.774 312.795 241.029 312.917 241.245 313.094C241.46 313.272 241.629 313.499 241.737 313.756C241.939 313.561 242.185 313.418 242.454 313.341C242.723 313.263 243.008 313.253 243.282 313.311C243.556 313.369 243.812 313.494 244.026 313.674C244.241 313.854 244.408 314.084 244.513 314.344C244.712 314.146 244.957 314.001 245.227 313.921C245.496 313.842 245.782 313.831 246.056 313.889C246.33 313.948 246.586 314.073 246.801 314.253C247.015 314.433 247.183 314.662 247.289 314.922C247.491 314.729 247.736 314.588 248.004 314.511C248.273 314.435 248.555 314.424 248.829 314.481C249.102 314.538 249.357 314.66 249.572 314.837C249.788 315.015 249.957 315.242 250.065 315.499C250.266 315.304 250.512 315.162 250.781 315.085C251.05 315.007 251.334 314.997 251.608 315.055C251.883 315.112 252.139 315.236 252.354 315.416C252.569 315.596 252.736 315.827 252.841 316.088C253.04 315.89 253.285 315.744 253.554 315.664C253.824 315.584 254.109 315.572 254.384 315.63C254.659 315.687 254.915 315.811 255.13 315.992C255.346 316.173 255.513 316.404 255.616 316.665C255.815 316.467 256.061 316.321 256.33 316.241C256.6 316.162 256.885 316.151 257.16 316.21C257.434 316.27 257.69 316.397 257.905 316.579C258.12 316.761 258.287 316.992 258.392 317.253C258.533 317.11 258.699 316.994 258.881 316.909C258.984 316.863 259.092 316.829 259.203 316.809C259.309 316.792 259.418 316.792 259.525 316.809C259.635 316.798 259.747 316.798 259.858 316.809C260.082 316.85 260.297 316.933 260.491 317.053C260.585 317.113 260.674 317.18 260.757 317.253C260.833 317.333 260.904 317.419 260.968 317.509C261.034 317.598 261.09 317.695 261.135 317.797C261.188 317.898 261.225 318.007 261.246 318.119C261.263 318.226 261.263 318.335 261.246 318.441C261.263 318.555 261.263 318.671 261.246 318.785C261.232 318.895 261.206 319.003 261.168 319.107C261.125 319.212 261.073 319.312 261.013 319.407C260.953 319.501 260.886 319.59 260.813 319.674L260.557 319.896C260.468 319.962 260.371 320.018 260.269 320.062H260.213C260.444 320.247 260.623 320.488 260.732 320.763C260.841 321.037 260.877 321.336 260.836 321.628C260.794 321.921 260.677 322.198 260.496 322.431C260.315 322.665 260.075 322.847 259.802 322.96C260.027 323.149 260.2 323.391 260.305 323.666C260.409 323.94 260.442 324.236 260.399 324.527C260.357 324.817 260.241 325.092 260.063 325.325C259.885 325.558 259.65 325.741 259.38 325.858C259.608 326.046 259.783 326.289 259.888 326.564C259.994 326.839 260.027 327.137 259.983 327.429C259.939 327.721 259.821 327.996 259.64 328.229C259.458 328.461 259.22 328.643 258.947 328.756C259.175 328.941 259.351 329.183 259.458 329.457C259.565 329.731 259.598 330.028 259.556 330.319C259.513 330.61 259.396 330.884 259.215 331.117C259.035 331.349 258.797 331.53 258.525 331.642C258.753 331.832 258.928 332.076 259.035 332.352C259.142 332.627 259.176 332.926 259.136 333.219C259.093 333.51 258.975 333.784 258.794 334.016C258.613 334.247 258.375 334.428 258.103 334.54C258.328 334.729 258.501 334.971 258.606 335.246C258.71 335.52 258.743 335.816 258.701 336.107C258.658 336.397 258.543 336.672 258.364 336.905C258.186 337.138 257.951 337.321 257.682 337.438C257.906 337.626 258.079 337.869 258.184 338.143C258.288 338.418 258.321 338.714 258.279 339.004C258.236 339.295 258.121 339.569 257.942 339.802C257.764 340.035 257.529 340.219 257.26 340.336C257.487 340.522 257.663 340.764 257.769 341.039C257.874 341.314 257.907 341.611 257.864 341.902C257.82 342.193 257.701 342.468 257.52 342.699C257.338 342.931 257.099 343.111 256.827 343.222C257.056 343.406 257.235 343.644 257.346 343.916C257.457 344.188 257.497 344.484 257.461 344.776C257.426 345.067 257.316 345.345 257.143 345.582C256.969 345.82 256.738 346.009 256.471 346.131C256.699 346.317 256.874 346.56 256.979 346.834C257.084 347.109 257.116 347.406 257.071 347.697C257.03 347.988 256.914 348.263 256.735 348.497C256.556 348.73 256.32 348.913 256.049 349.029C256.276 349.217 256.451 349.462 256.556 349.737C256.66 350.013 256.692 350.312 256.647 350.603C256.603 350.895 256.483 351.17 256.301 351.402C256.118 351.634 255.878 351.815 255.605 351.927C255.912 352.152 256.122 352.485 256.194 352.859C256.211 352.966 256.211 353.075 256.194 353.181C256.21 353.295 256.21 353.411 256.194 353.525C256.177 353.635 256.151 353.743 256.116 353.847C255.953 354.268 255.629 354.608 255.217 354.791C255.009 354.879 254.787 354.924 254.562 354.924C254.336 354.924 254.114 354.879 253.906 354.791C253.802 354.748 253.702 354.696 253.607 354.636C253.509 354.582 253.419 354.515 253.34 354.436C253.26 354.356 253.186 354.271 253.118 354.18L253.018 354.003C252.851 354.237 252.627 354.425 252.367 354.548C252.107 354.671 251.82 354.726 251.533 354.707C251.246 354.688 250.969 354.596 250.727 354.44C250.486 354.283 250.288 354.068 250.154 353.814C249.982 354.043 249.756 354.225 249.496 354.345C249.237 354.466 248.951 354.519 248.666 354.502C248.381 354.483 248.106 354.392 247.866 354.239C247.625 354.086 247.427 353.875 247.289 353.625C247.118 353.854 246.892 354.036 246.632 354.154C246.372 354.273 246.087 354.325 245.802 354.305C245.517 354.285 245.242 354.194 245.001 354.04C244.761 353.887 244.562 353.675 244.424 353.426C244.255 353.656 244.029 353.841 243.769 353.961C243.509 354.082 243.223 354.134 242.937 354.114C242.651 354.095 242.375 354.003 242.134 353.847C241.893 353.692 241.696 353.478 241.56 353.226C241.391 353.455 241.167 353.638 240.909 353.758C240.651 353.879 240.367 353.932 240.083 353.914C239.797 353.894 239.521 353.803 239.278 353.65C239.036 353.497 238.836 353.287 238.695 353.037C238.523 353.265 238.297 353.447 238.037 353.565C237.777 353.683 237.492 353.735 237.207 353.714C236.923 353.691 236.65 353.6 236.41 353.447C236.17 353.294 235.971 353.085 235.83 352.837C235.66 353.066 235.435 353.248 235.176 353.366C234.918 353.485 234.633 353.537 234.349 353.517C234.065 353.497 233.79 353.406 233.55 353.253C233.311 353.099 233.113 352.887 232.977 352.637C232.806 352.866 232.581 353.049 232.322 353.168C232.063 353.288 231.778 353.341 231.493 353.322C231.208 353.303 230.933 353.213 230.691 353.061C230.45 352.908 230.251 352.698 230.112 352.448C229.941 352.677 229.715 352.859 229.455 352.977C229.195 353.096 228.91 353.148 228.625 353.128C228.341 353.108 228.065 353.017 227.825 352.864C227.584 352.71 227.385 352.499 227.247 352.249C227.075 352.475 226.85 352.655 226.591 352.773C226.332 352.891 226.048 352.943 225.764 352.924C225.481 352.905 225.206 352.817 224.965 352.666C224.724 352.515 224.524 352.307 224.383 352.06C224.21 352.287 223.983 352.467 223.724 352.585C223.464 352.703 223.18 352.755 222.895 352.737C222.609 352.716 222.334 352.624 222.093 352.469C221.853 352.313 221.655 352.1 221.518 351.849C221.352 352.081 221.128 352.265 220.87 352.386C220.611 352.507 220.326 352.559 220.041 352.537C219.769 352.511 219.506 352.42 219.277 352.271C219.047 352.122 218.856 351.92 218.72 351.682C218.548 351.91 218.321 352.091 218.062 352.209C217.802 352.327 217.517 352.379 217.232 352.36C217.066 352.349 216.901 352.315 216.744 352.26C216.36 352.112 216.041 351.833 215.844 351.471C215.678 351.707 215.452 351.895 215.189 352.015C215.086 352.064 214.978 352.101 214.867 352.127H214.534H214.201L213.879 352.038C213.668 351.958 213.474 351.837 213.309 351.682C213.145 351.527 213.012 351.341 212.919 351.135C212.826 350.928 212.775 350.706 212.768 350.48C212.762 350.254 212.799 350.029 212.88 349.817C212.92 349.715 212.973 349.619 213.035 349.529C213.092 349.429 213.159 349.336 213.235 349.251C213.313 349.172 213.398 349.101 213.49 349.04C213.579 348.972 213.676 348.916 213.779 348.873C213.556 348.687 213.385 348.446 213.283 348.173C213.182 347.901 213.154 347.606 213.202 347.319C213.246 347.032 213.363 346.76 213.541 346.531C213.72 346.301 213.955 346.122 214.223 346.009C214.001 345.821 213.831 345.579 213.729 345.307C213.628 345.034 213.598 344.74 213.642 344.452C213.687 344.165 213.804 343.893 213.984 343.664C214.163 343.435 214.399 343.256 214.667 343.145C214.449 342.952 214.283 342.708 214.184 342.434C214.085 342.161 214.056 341.867 214.101 341.579C214.15 341.293 214.269 341.024 214.447 340.795C214.625 340.567 214.857 340.386 215.123 340.269C214.906 340.079 214.741 339.838 214.642 339.567C214.544 339.296 214.516 339.005 214.56 338.72C214.604 338.436 214.72 338.167 214.896 337.939C215.072 337.711 215.303 337.531 215.567 337.416C215.348 337.224 215.182 336.98 215.083 336.707C214.984 336.433 214.956 336.139 215.001 335.852C215.047 335.565 215.164 335.294 215.343 335.065C215.521 334.835 215.755 334.655 216.022 334.54C215.8 334.353 215.632 334.111 215.532 333.838C215.433 333.565 215.407 333.272 215.456 332.986C215.508 332.701 215.631 332.434 215.814 332.209C215.996 331.984 216.232 331.808 216.499 331.698C216.279 331.51 216.11 331.268 216.011 330.995C215.912 330.723 215.885 330.429 215.933 330.143C215.976 329.857 216.091 329.586 216.268 329.357C216.445 329.128 216.677 328.947 216.944 328.833C216.727 328.642 216.562 328.4 216.463 328.128C216.364 327.857 216.335 327.565 216.377 327.279C216.423 326.992 216.541 326.722 216.719 326.492C216.898 326.263 217.132 326.083 217.399 325.969C217.179 325.78 217.011 325.538 216.912 325.266C216.813 324.994 216.786 324.7 216.833 324.414C216.877 324.127 216.995 323.856 217.173 323.627C217.352 323.398 217.586 323.218 217.854 323.104C217.632 322.916 217.462 322.674 217.36 322.402C217.258 322.129 217.228 321.835 217.273 321.548C217.318 321.26 217.435 320.989 217.615 320.76C217.794 320.531 218.03 320.352 218.298 320.24C218.081 320.049 217.915 319.807 217.816 319.535C217.717 319.264 217.688 318.971 217.732 318.686C217.776 318.398 217.893 318.126 218.072 317.897C218.25 317.668 218.485 317.488 218.753 317.375C218.537 317.184 218.372 316.942 218.274 316.67C218.176 316.399 218.148 316.107 218.192 315.822C218.236 315.536 218.351 315.267 218.527 315.038C218.703 314.809 218.933 314.628 219.198 314.511C218.981 314.317 218.816 314.073 218.717 313.8C218.618 313.526 218.589 313.233 218.631 312.945C218.679 312.659 218.799 312.39 218.979 312.162C219.16 311.935 219.396 311.758 219.664 311.646C219.476 311.484 219.324 311.283 219.22 311.058C219.171 310.955 219.134 310.847 219.109 310.736C219.098 310.625 219.098 310.514 219.109 310.403C219.109 310.292 219.109 310.181 219.109 310.07C219.128 309.96 219.158 309.852 219.198 309.748C219.34 309.331 219.639 308.985 220.03 308.782Z" fill="white"/>
<path d="M222.163 312.379L221.408 317.22L220.942 320.185L219.587 328.811L219.221 331.121L216.434 348.796L242.915 350.606L253.074 351.305L253.696 347.097L254.151 344.022L255.151 337.127L255.373 335.673L257.693 319.807L224.517 312.879L222.163 312.379Z" fill="#FFC74A"/>
<path d="M219.586 328.811L216.443 348.796L253.073 351.305L255.372 335.673L248.032 324.714L237.451 332.308L227.747 318.586L219.586 328.811Z" fill="#FF991F"/>
<g style="mix-blend-mode:soft-light" opacity="0.3">
<path d="M222.163 312.379L221.408 317.22C226.616 320.551 231.679 324.07 236.553 327.845C242.804 332.664 249.144 337.838 254.141 344.022L255.162 337.127C250.609 332.387 245.686 328.018 240.439 324.059C235.317 320.062 230.01 316.336 224.517 312.879L222.163 312.379Z" fill="white"/>
</g>
<g style="mix-blend-mode:soft-light" opacity="0.3">
<path d="M220.942 320.185L219.587 328.811L219.221 331.121C227.827 336.695 235.779 343.22 242.926 350.572L253.075 351.272L253.696 347.064C244.128 336.575 233.096 327.522 220.942 320.185Z" fill="white"/>
</g>
<path d="M220.185 204.396C220.005 204.353 219.818 204.349 219.637 204.384C219.455 204.418 219.283 204.49 219.131 204.595C219.413 204.403 219.608 204.105 219.671 203.769C219.735 203.433 219.662 203.085 219.469 202.802C219.276 202.52 218.979 202.325 218.643 202.262C218.306 202.198 217.959 202.271 217.676 202.464C217.826 202.373 217.956 202.253 218.058 202.11C218.16 201.967 218.232 201.805 218.269 201.634C218.306 201.462 218.308 201.285 218.274 201.113C218.241 200.941 218.172 200.777 218.073 200.633C217.973 200.488 217.846 200.365 217.697 200.272C217.549 200.178 217.383 200.116 217.21 200.089C217.036 200.062 216.859 200.07 216.689 200.114C216.519 200.158 216.36 200.236 216.222 200.343C216.361 200.247 216.481 200.124 216.574 199.982C216.666 199.839 216.73 199.68 216.761 199.513C216.792 199.346 216.789 199.174 216.754 199.008C216.719 198.842 216.651 198.685 216.555 198.545C216.458 198.405 216.336 198.285 216.193 198.192C216.051 198.1 215.891 198.036 215.724 198.006C215.557 197.975 215.386 197.977 215.22 198.012C215.053 198.048 214.896 198.115 214.756 198.211C215.037 198.017 215.23 197.719 215.291 197.383C215.352 197.047 215.278 196.7 215.083 196.418C214.889 196.137 214.591 195.945 214.255 195.883C213.918 195.822 213.571 195.897 213.29 196.091C213.572 195.896 213.765 195.597 213.827 195.26C213.889 194.923 213.816 194.575 213.623 194.292C213.43 194.012 213.133 193.819 212.798 193.756C212.463 193.694 212.117 193.767 211.836 193.959C211.975 193.863 212.094 193.74 212.186 193.598C212.278 193.456 212.34 193.297 212.371 193.13C212.401 192.964 212.399 192.793 212.363 192.628C212.327 192.462 212.259 192.305 212.163 192.166C212.067 192.027 211.944 191.908 211.802 191.816C211.66 191.724 211.501 191.661 211.335 191.631C211.168 191.601 210.997 191.603 210.832 191.639C210.666 191.674 210.509 191.742 210.37 191.839C210.695 191.621 210.921 191.282 210.997 190.898C211.073 190.514 210.993 190.116 210.775 189.79C210.557 189.465 210.219 189.239 209.835 189.163C209.451 189.087 209.052 189.167 208.727 189.385C208.877 189.294 209.007 189.174 209.109 189.031C209.211 188.888 209.283 188.726 209.32 188.555C209.357 188.383 209.359 188.206 209.325 188.034C209.291 187.862 209.223 187.698 209.123 187.554C209.024 187.409 208.896 187.286 208.748 187.193C208.6 187.099 208.434 187.037 208.26 187.01C208.087 186.983 207.91 186.991 207.74 187.035C207.57 187.079 207.411 187.157 207.272 187.264C207.412 187.168 207.532 187.045 207.624 186.903C207.717 186.76 207.78 186.601 207.811 186.434C207.842 186.267 207.84 186.096 207.805 185.929C207.769 185.763 207.702 185.606 207.605 185.466C207.509 185.326 207.386 185.206 207.244 185.114C207.101 185.021 206.942 184.958 206.775 184.927C206.608 184.896 206.436 184.898 206.27 184.933C206.104 184.969 205.947 185.036 205.807 185.133C205.952 185.028 206.075 184.895 206.169 184.743C206.262 184.59 206.325 184.421 206.354 184.244C206.382 184.067 206.375 183.886 206.334 183.712C206.292 183.538 206.217 183.374 206.112 183.229C206.007 183.083 205.874 182.96 205.722 182.867C205.569 182.773 205.4 182.71 205.223 182.682C205.046 182.653 204.866 182.66 204.691 182.701C204.517 182.743 204.353 182.818 204.208 182.923C204.502 182.726 204.706 182.42 204.775 182.072C204.844 181.724 204.771 181.364 204.574 181.069C204.377 180.775 204.071 180.571 203.723 180.502C203.375 180.433 203.014 180.505 202.72 180.703C203.001 180.509 203.193 180.213 203.256 179.878C203.318 179.543 203.245 179.197 203.053 178.915C202.859 178.632 202.562 178.437 202.225 178.372C201.888 178.308 201.539 178.379 201.254 178.571C201.537 178.377 201.731 178.078 201.793 177.741C201.856 177.403 201.782 177.055 201.587 176.772C201.393 176.49 201.094 176.296 200.757 176.233C200.42 176.171 200.071 176.245 199.789 176.439C199.939 176.349 200.069 176.228 200.171 176.086C200.273 175.943 200.345 175.781 200.382 175.609C200.419 175.438 200.421 175.261 200.387 175.088C200.353 174.916 200.285 174.753 200.185 174.608C200.086 174.464 199.958 174.341 199.81 174.247C199.661 174.154 199.495 174.091 199.322 174.064C199.149 174.037 198.972 174.046 198.802 174.089C198.632 174.133 198.473 174.211 198.334 174.319C198.615 174.125 198.808 173.829 198.87 173.494C198.932 173.159 198.86 172.813 198.667 172.531C198.472 172.25 198.173 172.057 197.836 171.994C197.5 171.932 197.152 172.005 196.868 172.198C197.15 172.004 197.342 171.706 197.404 171.369C197.465 171.033 197.39 170.686 197.196 170.405C197.002 170.124 196.704 169.931 196.367 169.87C196.031 169.809 195.684 169.883 195.403 170.078C195.658 169.907 195.843 169.651 195.925 169.356C196.014 169.027 195.97 168.676 195.803 168.379C195.719 168.231 195.606 168.101 195.47 167.998C195.335 167.895 195.179 167.821 195.014 167.779C194.929 167.768 194.844 167.768 194.759 167.779C194.678 167.768 194.596 167.768 194.515 167.779C194.434 167.767 194.351 167.767 194.27 167.779C194.105 167.831 193.954 167.918 193.826 168.035C193.76 168.083 193.703 168.143 193.66 168.212C193.605 168.278 193.557 168.349 193.515 168.423C193.479 168.502 193.449 168.584 193.426 168.668C193.347 168.981 193.386 169.314 193.537 169.6C193.371 169.328 193.109 169.128 192.803 169.038C192.497 168.948 192.169 168.975 191.882 169.113C191.594 169.251 191.368 169.491 191.248 169.786C191.127 170.081 191.12 170.41 191.228 170.71C191.098 170.381 190.843 170.116 190.518 169.974C190.193 169.833 189.826 169.826 189.496 169.955C189.166 170.085 188.901 170.34 188.76 170.665C188.618 170.99 188.611 171.358 188.741 171.687C188.551 171.446 188.282 171.28 187.98 171.22C187.679 171.159 187.366 171.209 187.098 171.359C186.83 171.509 186.625 171.75 186.519 172.038C186.413 172.326 186.413 172.643 186.52 172.931C186.353 172.645 186.081 172.436 185.762 172.346C185.443 172.257 185.102 172.296 184.81 172.453C184.517 172.608 184.294 172.869 184.189 173.184C184.083 173.498 184.103 173.841 184.244 174.141C184.054 173.913 183.79 173.759 183.499 173.703C183.207 173.647 182.905 173.693 182.644 173.834C182.383 173.975 182.179 174.202 182.066 174.477C181.952 174.751 181.938 175.056 182.023 175.34C181.852 175.056 181.579 174.847 181.259 174.756C180.94 174.666 180.598 174.7 180.302 174.852C180.01 175.004 179.787 175.263 179.682 175.576C179.576 175.888 179.596 176.23 179.736 176.528C179.576 176.226 179.302 176.001 178.975 175.901C178.648 175.801 178.295 175.835 177.993 175.995C177.691 176.156 177.465 176.429 177.365 176.756C177.265 177.083 177.299 177.436 177.46 177.738C177.301 177.435 177.028 177.207 176.701 177.105C176.374 177.003 176.02 177.035 175.717 177.194C175.413 177.353 175.186 177.626 175.084 177.953C174.982 178.28 175.014 178.634 175.173 178.937C174.982 178.71 174.719 178.555 174.427 178.499C174.136 178.443 173.834 178.49 173.573 178.631C173.312 178.772 173.107 178.999 172.994 179.273C172.881 179.547 172.866 179.852 172.952 180.136C172.794 179.833 172.523 179.605 172.197 179.502C171.871 179.399 171.518 179.429 171.214 179.587C170.911 179.744 170.683 180.016 170.58 180.342C170.477 180.668 170.507 181.021 170.665 181.324C170.492 181.045 170.22 180.84 169.903 180.752C169.586 180.664 169.248 180.697 168.955 180.847C168.805 180.926 168.673 181.034 168.565 181.165C168.457 181.296 168.376 181.446 168.327 181.608C168.277 181.77 168.26 181.94 168.277 182.109C168.293 182.277 168.342 182.441 168.422 182.59C168.376 182.515 168.324 182.445 168.266 182.379C168.216 182.312 168.156 182.252 168.089 182.202L167.878 182.068L167.634 181.979H167.389H167.134H166.89C166.73 182.036 166.583 182.123 166.457 182.235C166.389 182.29 166.329 182.353 166.279 182.424C166.23 182.491 166.185 182.561 166.146 182.635C166.111 182.71 166.082 182.788 166.057 182.868C165.968 183.197 166.012 183.548 166.179 183.845C166.224 183.92 166.276 183.99 166.334 184.056C166.388 184.117 166.448 184.173 166.512 184.222C166.579 184.277 166.654 184.322 166.734 184.355C166.807 184.4 166.885 184.434 166.967 184.455C167.048 184.466 167.131 184.466 167.212 184.455C167.297 184.461 167.382 184.461 167.467 184.455C167.55 184.44 167.632 184.418 167.711 184.389C167.794 184.369 167.873 184.335 167.944 184.289H168.033C167.739 184.471 167.529 184.763 167.45 185.101C167.371 185.438 167.429 185.793 167.611 186.087C167.794 186.382 168.086 186.592 168.423 186.671C168.761 186.75 169.116 186.692 169.41 186.509H169.499C169.353 186.599 169.226 186.717 169.126 186.855C169.026 186.994 168.953 187.151 168.914 187.317C168.874 187.484 168.868 187.657 168.895 187.826C168.922 187.995 168.982 188.157 169.071 188.302C169.161 188.448 169.279 188.575 169.417 188.675C169.556 188.776 169.713 188.848 169.879 188.888C170.046 188.927 170.219 188.934 170.388 188.907C170.557 188.88 170.719 188.82 170.865 188.73H170.953C170.659 188.911 170.448 189.202 170.368 189.538C170.288 189.874 170.345 190.228 170.526 190.523C170.707 190.817 170.998 191.028 171.334 191.108C171.67 191.188 172.025 191.131 172.319 190.95H172.408C172.113 191.133 171.904 191.425 171.824 191.762C171.745 192.1 171.803 192.455 171.986 192.749C172.169 193.043 172.461 193.253 172.798 193.332C173.135 193.412 173.49 193.353 173.785 193.171L173.874 193.115C173.579 193.298 173.369 193.59 173.29 193.927C173.211 194.265 173.269 194.62 173.452 194.914C173.634 195.208 173.926 195.418 174.264 195.497C174.601 195.577 174.956 195.518 175.25 195.336H175.339C175.045 195.517 174.834 195.808 174.754 196.144C174.674 196.48 174.731 196.835 174.912 197.129C175.093 197.423 175.383 197.634 175.72 197.714C176.056 197.794 176.41 197.738 176.705 197.556H176.794C176.499 197.738 176.289 198.028 176.209 198.364C176.128 198.701 176.185 199.055 176.366 199.349C176.547 199.644 176.838 199.854 177.174 199.935C177.511 200.015 177.865 199.958 178.159 199.777H178.248C177.954 199.958 177.743 200.249 177.663 200.585C177.583 200.921 177.64 201.276 177.821 201.57C178.002 201.864 178.293 202.075 178.629 202.155C178.965 202.235 179.319 202.179 179.614 201.997H179.703C179.408 202.179 179.198 202.469 179.118 202.805C179.038 203.142 179.094 203.496 179.275 203.791C179.456 204.085 179.747 204.295 180.083 204.376C180.42 204.456 180.774 204.399 181.068 204.218L181.157 204.162C180.863 204.344 180.652 204.634 180.572 204.97C180.492 205.307 180.549 205.661 180.73 205.956C180.911 206.25 181.202 206.46 181.538 206.541C181.874 206.621 182.229 206.564 182.523 206.383H182.612C182.317 206.566 182.107 206.858 182.028 207.195C181.949 207.532 182.007 207.887 182.19 208.182C182.373 208.476 182.665 208.686 183.002 208.765C183.339 208.844 183.694 208.786 183.989 208.603H184.066C183.772 208.786 183.562 209.078 183.483 209.415C183.404 209.753 183.462 210.108 183.644 210.402C183.827 210.697 184.119 210.906 184.456 210.986C184.794 211.065 185.149 211.007 185.443 210.824H185.532C185.238 211.005 185.027 211.296 184.947 211.632C184.867 211.968 184.923 212.323 185.105 212.617C185.286 212.912 185.576 213.122 185.913 213.202C186.249 213.282 186.603 213.226 186.898 213.045H186.987C186.841 213.135 186.714 213.253 186.614 213.392C186.514 213.532 186.442 213.689 186.403 213.856C186.364 214.023 186.358 214.197 186.386 214.366C186.413 214.535 186.474 214.697 186.565 214.843C186.655 214.989 186.773 215.116 186.913 215.216C187.052 215.316 187.21 215.387 187.377 215.427C187.544 215.466 187.717 215.472 187.886 215.444C188.055 215.416 188.218 215.355 188.363 215.265L188.441 215.21C188.16 215.403 187.968 215.699 187.905 216.034C187.843 216.37 187.916 216.716 188.108 216.997C188.293 217.264 188.571 217.451 188.887 217.523C189.204 217.595 189.536 217.546 189.818 217.386H189.896C189.615 217.579 189.422 217.876 189.36 218.211C189.297 218.546 189.37 218.892 189.563 219.173C189.747 219.44 190.026 219.628 190.342 219.699C190.658 219.771 190.99 219.722 191.272 219.562H191.35C191.056 219.744 190.846 220.036 190.767 220.374C190.688 220.711 190.746 221.066 190.928 221.36C191.111 221.655 191.403 221.865 191.74 221.944C192.078 222.023 192.432 221.965 192.727 221.782H192.816C192.535 221.976 192.342 222.272 192.28 222.607C192.217 222.942 192.29 223.288 192.483 223.57C192.668 223.836 192.946 224.024 193.262 224.096C193.579 224.168 193.911 224.119 194.193 223.958H194.281C194.001 224.152 193.808 224.448 193.746 224.783C193.683 225.118 193.756 225.465 193.948 225.746C194.133 226.013 194.411 226.2 194.728 226.272C195.044 226.344 195.376 226.295 195.658 226.134H195.747C195.702 226.154 195.661 226.18 195.625 226.212C195.557 226.267 195.498 226.33 195.447 226.401C195.39 226.463 195.345 226.534 195.314 226.612C195.278 226.687 195.248 226.765 195.225 226.845C195.137 227.178 195.18 227.532 195.347 227.833C195.532 228.098 195.81 228.284 196.125 228.354C196.441 228.424 196.771 228.373 197.05 228.211C197.33 228.049 197.538 227.788 197.634 227.479C197.73 227.171 197.706 226.837 197.568 226.545C197.523 226.461 197.467 226.382 197.401 226.312C197.597 226.533 197.864 226.679 198.155 226.726C198.447 226.772 198.745 226.716 199 226.567C199.081 226.521 199.156 226.466 199.222 226.401C199.348 226.287 199.45 226.15 199.522 225.997C199.595 225.844 199.636 225.678 199.644 225.509C199.653 225.34 199.627 225.171 199.57 225.011C199.513 224.852 199.425 224.705 199.311 224.58C199.508 224.799 199.775 224.944 200.065 224.99C200.356 225.037 200.655 224.982 200.91 224.835L201.143 224.669C201.394 224.438 201.544 224.117 201.561 223.777C201.577 223.436 201.459 223.102 201.232 222.848C201.427 223.066 201.692 223.211 201.981 223.257C202.27 223.304 202.566 223.249 202.82 223.103C202.904 223.058 202.983 223.002 203.053 222.937C203.304 222.706 203.454 222.385 203.47 222.045C203.487 221.704 203.369 221.37 203.142 221.116C203.34 221.333 203.607 221.476 203.898 221.52C204.189 221.565 204.486 221.508 204.741 221.36C204.82 221.316 204.894 221.264 204.963 221.205C205.214 220.974 205.364 220.653 205.38 220.313C205.397 219.972 205.279 219.638 205.052 219.384C205.25 219.601 205.517 219.744 205.808 219.788C206.099 219.833 206.396 219.776 206.65 219.628L206.873 219.473C207.127 219.241 207.279 218.919 207.296 218.575C207.312 218.232 207.192 217.896 206.961 217.641C207.157 217.862 207.424 218.008 207.715 218.054C208.007 218.101 208.305 218.045 208.56 217.896C208.641 217.85 208.716 217.794 208.782 217.73C209.035 217.5 209.187 217.181 209.205 216.84C209.224 216.499 209.108 216.165 208.882 215.909C209.076 216.129 209.341 216.275 209.63 216.321C209.92 216.368 210.217 216.312 210.47 216.164C210.553 216.116 210.631 216.061 210.703 215.998C210.954 215.767 211.104 215.446 211.121 215.106C211.137 214.765 211.019 214.431 210.792 214.177C210.988 214.398 211.254 214.544 211.546 214.59C211.837 214.637 212.136 214.581 212.391 214.432C212.472 214.386 212.546 214.33 212.613 214.266C212.864 214.035 213.014 213.714 213.03 213.374C213.047 213.033 212.929 212.699 212.702 212.445C212.901 212.661 213.167 212.803 213.457 212.849C213.747 212.895 214.044 212.843 214.301 212.7C214.381 212.654 214.456 212.598 214.523 212.534C214.648 212.42 214.75 212.283 214.823 212.13C214.895 211.977 214.936 211.811 214.945 211.642C214.953 211.473 214.928 211.304 214.871 211.144C214.813 210.985 214.725 210.838 214.612 210.713C214.811 210.929 215.077 211.071 215.367 211.117C215.657 211.163 215.954 211.111 216.21 210.968C216.291 210.922 216.366 210.866 216.432 210.802C216.559 210.689 216.662 210.552 216.736 210.399C216.809 210.246 216.851 210.08 216.859 209.91C216.867 209.74 216.842 209.571 216.784 209.411C216.726 209.252 216.637 209.106 216.521 208.981C216.72 209.198 216.987 209.341 217.278 209.385C217.569 209.43 217.866 209.373 218.12 209.225C218.199 209.181 218.274 209.129 218.342 209.07C218.593 208.839 218.743 208.518 218.76 208.178C218.776 207.837 218.658 207.503 218.431 207.249C218.595 207.437 218.812 207.572 219.053 207.638C219.134 207.649 219.216 207.649 219.297 207.638H219.552C219.637 207.627 219.719 207.605 219.797 207.571C219.878 207.547 219.956 207.513 220.03 207.471L220.23 207.327C220.295 207.269 220.354 207.206 220.407 207.138C220.458 207.072 220.503 207.001 220.541 206.927C220.575 206.851 220.605 206.773 220.63 206.694C220.635 206.609 220.635 206.524 220.63 206.438C220.635 206.357 220.635 206.276 220.63 206.194C220.641 206.113 220.641 206.031 220.63 205.95C220.6 205.871 220.567 205.793 220.53 205.717C220.599 205.486 220.604 205.241 220.543 205.008C220.482 204.775 220.359 204.563 220.185 204.396Z" fill="white"/>
<path d="M217.022 205.317L204.797 216.386L201.455 219.417L197.947 222.604L197.281 223.203L188.032 209.758L185.278 205.739L170.277 183.922L189.564 173.775L193.805 171.532L198.113 177.805L200.223 180.869L200.967 181.946L203.51 185.654L217.022 205.317Z" fill="#FF991F"/>
<path d="M217.021 205.317L197.279 223.203L185.276 205.739L186.831 202.73L177.26 188.142L186.675 188.219L191.761 195.591L193.848 193.804L186.686 183.39L191.283 174.929L199.999 187.309L201.054 186.798L197.701 182.135L200.965 181.946L217.021 205.317Z" fill="#FFC74A"/>
<g style="mix-blend-mode:soft-light" opacity="0.3">
<path d="M198.112 177.794C196.375 192.677 196.319 207.708 197.946 222.604L197.28 223.203L188.03 209.758C187.524 197.742 188.037 185.704 189.563 173.775L193.804 171.554L198.112 177.794Z" fill="white"/>
</g>
<g style="mix-blend-mode:soft-light" opacity="0.3">
<path d="M203.509 185.655C202.437 195.907 202.871 206.26 204.797 216.387L201.466 219.418C198.771 206.743 198.353 193.69 200.233 180.869L200.977 181.98L203.509 185.655Z" fill="white"/>
</g>
<path d="M130.199 378.186L101.23 432.822L164.852 514.615L198.606 429.735L130.199 378.186Z" fill="#72B289"/>
<path d="M174.313 483.105L164.664 506.332L148.387 487.48L157.725 470.282L174.313 483.105Z" fill="#ECF7CB"/>
<path d="M164.854 514.615L270.746 503.579L284.247 439.861L198.608 429.735L164.854 514.615Z" fill="#497C5A"/>
<g style="mix-blend-mode:multiply">
<path d="M125.115 387.768L188.515 454.139L280.617 456.992L284.248 439.861L126.559 385.047L125.115 387.768Z" fill="#D9EBD8"/>
</g>
<path d="M128.846 367.85L122.75 381.917L194.111 440.594L284.381 452.107L288.666 431.367L128.846 367.85Z" fill="#72B289"/>
<path d="M222.136 387.701L128.846 367.85L202.372 419.477L288.666 431.368L222.136 387.701Z" fill="#8ED8AA"/>
<path d="M222.179 390.588C222.179 390.588 220.314 402.256 211.809 404.011C220.169 405.476 222.179 417.434 222.179 417.434C222.179 417.434 224.178 405.476 232.538 404.011C224.044 402.268 222.179 390.588 222.179 390.588Z" fill="white"/>
<path d="M230.933 226.512C230.933 226.512 229.068 238.181 220.562 239.935C228.923 241.401 230.933 253.358 230.933 253.358C230.933 253.358 232.932 241.401 241.292 239.935C232.765 238.181 230.933 226.512 230.933 226.512Z" fill="white"/>
<g style="mix-blend-mode:multiply">
<path d="M369.886 162.533C371.406 156.918 374.975 152.077 379.89 148.965C384.805 145.854 390.708 144.697 396.434 145.724C400.61 146.495 404.439 148.557 407.382 151.62C406.682 147.584 404.76 143.86 401.874 140.953C398.989 138.045 395.279 136.095 391.248 135.365C385.523 134.338 379.62 135.495 374.705 138.607C369.79 141.719 366.22 146.56 364.7 152.175C363.799 155.497 363.767 158.995 364.607 162.333C365.447 165.671 367.131 168.738 369.497 171.238C369.01 168.341 369.143 165.375 369.886 162.533Z" fill="#878CFF" fill-opacity="0.26"/>
</g>
<path d="M554.235 431.76L552.969 434.125C549.611 440.371 545.611 446.25 541.033 451.667C536.095 457.505 530.697 462.937 524.889 467.91C518.544 473.37 511.869 478.435 504.903 483.076C499.94 486.407 494.81 489.582 489.558 492.613C483.574 496.055 477.456 499.275 471.271 502.395C466.275 504.893 461.223 507.269 456.193 509.511C450.419 512.087 444.657 514.519 438.994 516.795C433.953 518.804 429.001 520.692 424.149 522.457C423.038 522.879 421.928 523.279 420.818 523.667C416.254 525.31 411.935 526.798 407.816 528.108C402.42 529.885 397.512 531.439 393.215 532.705C386.064 534.848 380.635 536.302 377.57 537.09L374.772 537.801L369.676 539L368.11 534.07L367.544 532.316C365.601 526.321 363.403 520.47 361.104 514.841C359.017 509.778 356.83 504.848 354.631 500.263C353.721 498.331 352.799 496.455 351.877 494.612C349.512 489.871 347.159 485.441 344.905 481.4C341.907 475.993 339.109 471.285 336.744 467.466C332.524 460.638 329.704 456.619 329.626 456.508L326.129 451.567L331.336 448.503C334.586 446.586 337.765 444.643 340.874 442.674C345.005 440.043 349.024 437.389 352.91 434.669C359.128 430.361 365.027 425.968 370.609 421.49C374.672 418.27 378.548 415.017 382.278 411.775C388.463 406.38 394.203 400.973 399.533 395.632C403.434 391.739 407.102 387.89 410.536 384.086C416.576 377.424 421.939 370.985 426.691 364.911C430.367 360.193 433.664 355.696 436.596 351.5C442.991 342.329 447.699 334.579 450.763 329.05C453.95 323.343 455.482 319.99 455.56 319.835L458.047 314.284L459.246 314.961L463.366 317.315C469.014 320.552 474.407 324.216 479.499 328.273C483.679 331.548 487.685 335.039 491.501 338.732C491.812 339.02 492.145 339.331 492.445 339.631C499.263 346.278 505.649 353.354 511.565 360.815C515.662 365.944 519.493 371.162 523.046 376.269C529.086 384.974 534.305 393.456 538.59 400.973C542.31 407.479 545.363 413.274 547.695 417.915C550.959 424.388 552.814 428.607 553.125 429.318L554.235 431.76Z" fill="#FFC74A"/>
<path d="M352.92 434.669C351.384 450.419 348.709 466.037 344.915 481.4C341.917 475.993 339.119 471.285 336.754 467.466C338.464 459.261 339.841 450.979 340.884 442.674C345.015 440.043 349.034 437.389 352.92 434.669Z" fill="#FF991F"/>
<path d="M382.29 411.776C380.839 447.048 373.688 481.853 361.116 514.841C359.028 509.778 356.841 504.849 354.643 500.263C363.327 474.8 368.697 448.325 370.62 421.49C374.684 418.271 378.559 415.029 382.29 411.776Z" fill="#FF991F"/>
<path d="M410.548 384.086C412.103 437.007 400.766 489.513 377.516 537.079L374.718 537.79L369.677 539L368.111 534.07L367.545 532.316C388.438 489.771 399.381 443.03 399.545 395.632C403.446 391.739 407.113 387.89 410.548 384.086Z" fill="#FF991F"/>
<path d="M436.607 351.5C437.029 355.097 437.396 358.705 437.718 362.325C442.382 419.25 432.054 476.404 407.761 528.097C402.365 529.874 397.457 531.428 393.16 532.694C399.933 519.513 405.758 505.867 410.592 491.858C424.571 451.086 430.054 407.883 426.703 364.911C430.378 360.193 433.676 355.696 436.607 351.5Z" fill="#FF991F"/>
<path d="M459.257 314.939C462.414 329.05 464.596 343.362 465.786 357.773C470.232 412.169 461.011 466.814 438.96 516.739C433.919 518.749 428.967 520.636 424.115 522.402C429.689 511.012 434.55 499.287 438.672 487.295C456.096 436.433 460.247 381.965 450.73 329.05C453.917 323.343 455.449 319.99 455.526 319.835L458.014 314.284L459.257 314.939Z" fill="#FF991F"/>
<path d="M492.457 339.609C493.034 344.139 493.508 348.676 493.878 353.221C498.026 404.011 490.275 455.069 471.238 502.339C466.242 504.838 461.19 507.213 456.16 509.456C460.106 500.73 463.644 491.825 466.775 482.743C483.792 433.104 488.169 380.007 479.51 328.251C484.028 331.8 488.35 335.591 492.457 339.609Z" fill="#FF991F"/>
<path d="M523.057 376.247C522.953 412.6 516.807 448.683 504.87 483.021C499.907 486.352 494.777 489.527 489.525 492.558C491.42 487.821 493.201 483.032 494.866 478.191C507.792 440.464 513.444 400.626 511.521 360.792C515.674 365.922 519.504 371.14 523.057 376.247Z" fill="#FF991F"/>
<path d="M547.74 417.893C546.125 429.244 543.901 440.5 541.078 451.612C536.14 457.45 530.741 462.881 524.934 467.855C531.928 446.118 536.537 423.685 538.679 400.951C542.355 407.457 545.408 413.252 547.74 417.893Z" fill="#FF991F"/>
<path d="M334.145 453.288C426.302 399.063 460.633 322.111 460.633 322.111C513.729 352.399 548.072 431.505 548.072 431.505C512.064 499.064 373.417 532.394 373.417 532.394C359.826 489.416 334.145 453.288 334.145 453.288Z" fill="white"/>
<path d="M345.404 456.486C357.14 472.029 366.734 493.48 366.734 493.48C387.608 488.417 407.638 476.382 407.638 476.382C399.189 451.256 383.822 429.051 383.822 429.051C367.733 445.25 345.404 456.486 345.404 456.486Z" fill="#78A3BA"/>
<path d="M370.631 501.085C381.932 498.163 392.978 494.335 403.663 489.638C414.223 484.984 424.477 479.666 434.364 473.717C439.908 470.393 445.349 466.922 450.686 463.303C451.274 462.903 450.686 461.948 450.131 462.348C440.644 468.78 430.827 474.71 420.718 480.112C410.581 485.536 400.069 490.23 389.263 494.157C383.045 496.377 376.738 498.342 370.331 499.974C370.184 500.014 370.059 500.111 369.983 500.243C369.907 500.375 369.886 500.532 369.926 500.679C369.966 500.827 370.063 500.952 370.195 501.028C370.327 501.104 370.484 501.124 370.631 501.085Z" fill="#78A3BA"/>
<path d="M373.118 508.046C384.511 505.152 395.711 501.544 406.65 497.243C417.534 492.952 428.114 487.926 438.317 482.199C444.179 478.898 449.901 475.382 455.482 471.652C456.071 471.263 455.482 470.308 454.927 470.697C445.063 477.292 434.757 483.201 424.082 488.383C413.648 493.436 402.892 497.794 391.883 501.429C385.606 503.509 379.262 505.359 372.852 506.98C372.712 507.018 372.593 507.111 372.521 507.237C372.449 507.363 372.43 507.512 372.469 507.652C372.507 507.792 372.599 507.911 372.725 507.983C372.851 508.054 373 508.073 373.14 508.035L373.118 508.046Z" fill="#78A3BA"/>
<path d="M375.616 515.007C386.949 512.346 398.113 509.009 409.048 505.015C420.257 500.92 431.187 496.099 441.769 490.582C448.068 487.288 454.227 483.75 460.245 479.968C460.37 479.894 460.461 479.774 460.497 479.633C460.534 479.493 460.513 479.343 460.439 479.218C460.366 479.093 460.245 479.002 460.105 478.966C459.964 478.929 459.815 478.95 459.69 479.024C449.218 485.583 438.316 491.429 427.057 496.521C416.304 501.368 405.253 505.521 393.969 508.956C387.803 510.836 381.586 512.517 375.316 513.997C374.628 514.152 374.927 515.218 375.616 515.052V515.007Z" fill="#78A3BA"/>
<path d="M378.103 521.969C389.917 518.949 401.631 515.551 413.167 511.588C424.734 507.669 436.054 503.056 447.066 497.776C453.184 494.812 459.18 491.603 464.987 488.072C465.586 487.706 465.042 486.751 464.431 487.129C454.043 493.349 443.192 498.764 431.976 503.327C420.623 507.979 409.042 512.055 397.279 515.54C390.828 517.472 384.343 519.248 377.815 520.925C377.675 520.963 377.556 521.056 377.484 521.182C377.412 521.307 377.393 521.457 377.432 521.597C377.47 521.737 377.562 521.855 377.688 521.927C377.814 521.999 377.963 522.018 378.103 521.98V521.969Z" fill="#78A3BA"/>
<g style="mix-blend-mode:multiply">
<path d="M554.234 431.76L552.969 434.125C549.611 440.371 545.61 446.251 541.033 451.667C536.095 457.505 530.696 462.937 524.888 467.91C518.543 473.37 511.869 478.435 504.903 483.076C499.939 486.407 494.81 489.582 489.558 492.613C483.573 496.055 477.455 499.275 471.271 502.395C466.274 504.893 461.222 507.269 456.192 509.512C450.419 512.087 444.656 514.519 438.993 516.795C433.952 518.804 429 520.692 424.148 522.457C423.038 522.879 421.928 523.279 420.817 523.667C416.254 525.311 411.935 526.798 407.815 528.108C402.419 529.885 397.511 531.439 393.215 532.705C386.064 534.848 380.634 536.302 377.57 537.09L374.772 537.801L369.676 539L368.11 534.07L367.544 532.316C365.823 527.031 363.924 521.847 361.914 516.85C361.648 516.173 361.37 515.507 361.104 514.841C359.016 509.778 356.829 504.848 354.631 500.263C353.72 498.331 352.799 496.455 351.877 494.612C363.391 496.977 375.649 494.534 386.897 490.759C418.459 480.179 445.728 459.628 464.595 432.204C483.462 404.779 492.905 371.967 491.501 338.709C491.812 338.998 492.145 339.309 492.445 339.609C499.262 346.256 505.649 353.332 511.564 360.793C515.662 365.922 519.492 371.14 523.045 376.247C527.487 382.654 531.484 388.938 535.004 394.811C536.28 396.92 537.48 398.963 538.623 400.951C542.343 407.457 545.396 413.252 547.728 417.893C550.992 424.366 552.847 428.585 553.157 429.295L554.234 431.76Z" fill="#FFFBEB"/>
</g>
<g style="mix-blend-mode:multiply">
<path d="M554.234 431.76L552.968 434.125C549.61 440.371 545.61 446.251 541.032 451.667C536.095 457.505 530.696 462.937 524.888 467.91C518.543 473.37 511.869 478.435 504.902 483.076C499.939 486.407 494.809 489.582 489.558 492.613C483.573 496.055 477.455 499.275 471.27 502.395C466.274 504.893 461.222 507.269 456.192 509.512C450.418 512.087 444.656 514.519 438.993 516.795C433.952 518.804 429 520.692 424.148 522.457C423.038 522.879 421.927 523.279 420.817 523.667C416.254 525.311 411.934 526.798 407.815 528.108C402.419 529.885 397.511 531.439 393.214 532.705C386.064 534.848 380.634 536.302 377.57 537.09L374.772 537.801L369.675 539L368.11 534.07L367.543 532.316C365.822 527.031 363.924 521.847 361.914 516.85C399.012 513.731 434.607 500.779 465.033 479.328C495.459 457.877 519.616 428.703 535.014 394.811C536.291 396.92 537.49 398.963 538.634 400.951C542.354 407.457 545.407 413.252 547.739 417.893C551.003 424.366 552.857 428.585 553.168 429.295L554.234 431.76Z" fill="#FFFBEB"/>
</g>
<path d="M350.89 416.472C350.89 416.472 349.025 428.13 340.52 429.895C348.88 431.36 350.89 443.318 350.89 443.318C350.89 443.318 352.889 431.36 361.249 429.895C352.744 428.13 350.89 416.472 350.89 416.472Z" fill="white"/>
<path d="M364.435 401.128C364.435 401.128 363.202 408.833 357.584 410.01C363.136 410.976 364.435 418.892 364.435 418.892C364.435 418.892 365.756 410.998 371.274 410.01C365.656 408.833 364.435 401.128 364.435 401.128Z" fill="white"/>
<path d="M282.919 107.281C282.919 107.281 281.687 114.975 276.068 116.163C281.62 117.129 282.919 125.045 282.919 125.045C282.919 125.045 284.24 117.151 289.759 116.163C284.14 114.975 282.919 107.281 282.919 107.281Z" fill="white"/>
<path d="M219.22 254.835C219.22 254.835 217.988 262.54 212.381 263.717C217.933 264.683 219.22 272.599 219.22 272.599C219.22 272.599 220.542 264.705 226.06 263.717C220.453 262.54 219.22 254.835 219.22 254.835Z" fill="white"/>
<path d="M418.912 193.271C418.912 193.271 417.691 200.976 412.072 202.153C417.624 203.119 418.912 211.035 418.912 211.035C418.912 211.035 420.244 203.141 425.763 202.153C420.144 200.976 418.912 193.271 418.912 193.271Z" fill="white"/>
<path d="M56.7108 292.098L73.7218 285.211L65.9852 274.251L56.7108 292.098Z" fill="#7177FF"/>
<path d="M47 247.36L135.429 243.848L78.982 292.664L47 247.36Z" fill="white"/>
<path d="M135.43 243.848L58.3735 263.471L56.711 292.098L65.9854 274.251L135.43 243.848Z" fill="#858AFF" fill-opacity="0.54"/>
</svg>
