<svg width="234" height="269" viewBox="0 0 234 269" fill="none" xmlns="http://www.w3.org/2000/svg">
<path d="M160.842 90.2855L145.252 81.2905L145.219 99.3536L160.842 108.375L160.863 108.362V90.2743L160.842 90.2855Z" fill="url(#paint0_linear_9_42839)"/>
<path d="M176.528 81.2324V81.2568L160.893 90.3192L160.897 108.39L176.528 99.3461L176.558 81.2512L176.528 81.2324Z" fill="url(#paint1_linear_9_42839)"/>
<path d="M176.526 81.238V81.2136L160.932 72.2092L145.276 81.2829V81.3073L160.87 90.3116L176.526 81.238Z" fill="url(#paint2_linear_9_42839)"/>
<path d="M176.56 81.4592V81.2193L176.352 81.1069L160.87 90.0907L145.451 81.1763L145.249 81.2905L145.25 81.4873L160.679 90.4223L160.685 108.285L160.885 108.397L161.088 108.281L161.061 90.4204L176.56 81.4592Z" fill="white"/>
<g style="mix-blend-mode:soft-light">
<path style="mix-blend-mode:soft-light" d="M160.827 90.2794L140.231 78.386L140.192 102.253L160.827 114.169L160.855 114.152V90.2625L160.827 90.2794Z" fill="url(#paint3_linear_9_42839)"/>
<path style="mix-blend-mode:soft-light" d="M181.543 78.3206V78.3543L160.895 90.3226V114.213L181.543 102.244L181.584 78.3449L181.543 78.3206Z" fill="url(#paint4_linear_9_42839)"/>
<path style="mix-blend-mode:soft-light" d="M181.541 78.3282V78.2945L160.945 66.4048L140.269 78.3881V78.42L160.865 90.3115L181.541 78.3282Z" fill="url(#paint5_linear_9_42839)"/>
</g>
<path d="M169.886 95.7752C169.726 95.6721 169.942 95.2543 170.139 95.3555L202.381 114.878C202.408 114.895 202.432 114.917 202.451 114.943C202.471 114.969 202.484 114.998 202.492 115.03C202.5 115.061 202.501 115.093 202.496 115.125C202.491 115.157 202.48 115.188 202.463 115.215C202.429 115.271 202.375 115.31 202.312 115.326C202.248 115.341 202.182 115.331 202.126 115.298L169.886 95.7752Z" fill="url(#paint6_linear_9_42839)"/>
<path d="M44.3737 86.7409L28.7837 77.7458L28.75 95.8089L44.3737 104.83L44.3943 104.817V86.7296L44.3737 86.7409Z" fill="url(#paint7_linear_9_42839)"/>
<path d="M60.059 77.6875V77.7119L44.4241 86.7743L44.4278 104.845L60.059 95.8012L60.089 77.7062L60.059 77.6875Z" fill="url(#paint8_linear_9_42839)"/>
<path d="M60.0574 77.6933V77.6689L44.4636 68.6646L28.8081 77.7382V77.7626L44.4018 86.767L60.0574 77.6933Z" fill="url(#paint9_linear_9_42839)"/>
<path d="M60.0911 77.9142V77.6744L59.8831 77.562L44.4018 86.5458L28.9824 77.6313L28.78 77.7456L28.7819 77.9423L44.2107 86.8755L44.2164 104.74L44.4168 104.852L44.6192 104.736L44.5929 86.8755L60.0911 77.9142Z" fill="white"/>
<g style="mix-blend-mode:soft-light">
<path style="mix-blend-mode:soft-light" d="M44.3588 110.727L23.6296 98.7628L23.669 74.6799L44.3588 86.6258L44.4806 86.5546V110.662L44.3588 110.727ZM23.817 98.656L44.2932 110.478V86.8038L23.8563 75.0003L23.817 98.656Z" fill="url(#paint10_linear_9_42839)"/>
<path style="mix-blend-mode:soft-light" d="M65.0749 74.7773V74.8092L44.4263 86.7776V110.667L65.0749 98.6991L65.1161 74.7998L65.0749 74.7773Z" fill="url(#paint11_linear_9_42839)"/>
<path style="mix-blend-mode:soft-light" d="M65.0731 74.783V74.7493L44.477 62.8596L23.8003 74.843V74.8748L44.3964 86.7664L65.0731 74.783Z" fill="url(#paint12_linear_9_42839)"/>
</g>
<path d="M53.4174 92.2303C53.2582 92.1272 53.4736 91.7094 53.6704 91.8106L85.9182 111.333C85.9458 111.35 85.9698 111.372 85.9888 111.398C86.0079 111.424 86.0216 111.453 86.0293 111.485C86.037 111.516 86.0384 111.549 86.0335 111.58C86.0285 111.612 86.0174 111.643 86.0007 111.67C85.9665 111.726 85.912 111.765 85.8489 111.781C85.7858 111.796 85.7192 111.786 85.6634 111.753L53.4174 92.2303Z" fill="url(#paint13_linear_9_42839)"/>
<path d="M98.7445 71.2067C98.7445 71.0193 99.2222 70.9912 99.2354 71.2067L98.7201 108.894C98.7196 108.926 98.7128 108.958 98.7 108.987C98.6872 109.017 98.6687 109.044 98.6456 109.066C98.6225 109.088 98.5951 109.106 98.5652 109.118C98.5352 109.13 98.5032 109.136 98.4709 109.135C98.4062 109.134 98.3444 109.108 98.2991 109.061C98.2539 109.015 98.2288 108.953 98.2293 108.888L98.7445 71.2067Z" fill="url(#paint14_linear_9_42839)"/>
<path d="M98.87 56.3512L83.28 47.3562L83.2444 65.4193L98.87 74.4405L98.8906 74.4274V56.34L98.87 56.3512Z" fill="url(#paint15_linear_9_42839)"/>
<path d="M114.553 47.2981V47.3243L98.9204 56.3849L98.9223 74.4555L114.553 65.4118L114.585 47.3168L114.553 47.2981Z" fill="url(#paint16_linear_9_42839)"/>
<path d="M114.554 47.3036V47.2793L98.96 38.2749L83.3044 47.3486V47.373L98.8982 56.3773L114.554 47.3036Z" fill="url(#paint17_linear_9_42839)"/>
<path d="M114.587 47.5248V47.285L114.379 47.1726L98.8982 56.1564L83.4787 47.2419L83.2764 47.3562L83.2782 47.5529L98.7071 56.488L98.7108 74.3506L98.9132 74.463L99.1155 74.3468L99.0893 56.488L114.587 47.5248Z" fill="white"/>
<g style="mix-blend-mode:soft-light">
<path style="mix-blend-mode:soft-light" d="M98.8552 56.3461L78.2591 44.4546L78.2197 68.322L98.8552 80.236L98.8833 80.2191V56.3293L98.8552 56.3461Z" fill="url(#paint18_linear_9_42839)"/>
<path style="mix-blend-mode:soft-light" d="M119.571 44.3887V44.4205L98.9207 56.3889V80.2788L119.571 68.3104L119.612 44.4112L119.571 44.3887Z" fill="url(#paint19_linear_9_42839)"/>
<path style="mix-blend-mode:soft-light" d="M119.569 44.3943V44.3625L98.9733 32.4709L78.2966 44.4543V44.4861L98.8928 56.3777L119.569 44.3943Z" fill="url(#paint20_linear_9_42839)"/>
</g>
<path d="M160.486 38.8431C160.486 38.6558 160.966 38.6296 160.977 38.8431L160.462 76.53C160.461 76.5622 160.455 76.594 160.442 76.6236C160.429 76.6532 160.41 76.68 160.387 76.7024C160.364 76.7249 160.337 76.7425 160.307 76.7544C160.277 76.7663 160.245 76.7722 160.213 76.7717C160.148 76.7707 160.086 76.7441 160.041 76.6978C159.996 76.6515 159.97 76.5891 159.971 76.5244L160.486 38.8431Z" fill="url(#paint21_linear_9_42839)"/>
<path d="M160.614 23.9891L145.024 14.9941L144.988 33.0572L160.614 42.0784L160.634 42.0653V23.9779L160.614 23.9891Z" fill="url(#paint22_linear_9_42839)"/>
<path d="M176.297 14.9363V14.9625L160.664 24.0231L160.666 42.0937L176.297 33.0499L176.329 14.955L176.297 14.9363Z" fill="url(#paint23_linear_9_42839)"/>
<path d="M176.297 14.9418V14.9175L160.704 5.91309L145.048 14.9887V15.0111L160.642 24.0155L176.297 14.9418Z" fill="url(#paint24_linear_9_42839)"/>
<path d="M176.331 15.163V14.9232L176.123 14.8108L160.642 23.7946L145.222 14.8801L145.02 14.9944L145.022 15.1911L160.45 24.1262L160.456 41.9888L160.657 42.1012L160.859 41.985L160.833 24.1262L176.331 15.163Z" fill="white"/>
<g style="mix-blend-mode:soft-light">
<path style="mix-blend-mode:soft-light" d="M160.598 23.9833L140.002 12.0918L139.963 35.9592L160.598 47.8732L160.626 47.8563V23.9665L160.598 23.9833Z" fill="url(#paint25_linear_9_42839)"/>
<path style="mix-blend-mode:soft-light" d="M181.314 12.0264V12.0582L160.666 24.0266V47.9165L181.314 35.9481L181.356 12.0488L181.314 12.0264Z" fill="url(#paint26_linear_9_42839)"/>
<path style="mix-blend-mode:soft-light" d="M160.636 24.1241L160.589 24.0978L139.946 12.1782V12.0396L139.993 12.0114L160.716 0L160.763 0.02623L181.406 11.9459V12.0864L181.359 12.1126L160.636 24.1241ZM140.199 12.1089L160.636 23.9124L181.153 12.0189L160.716 0.21546L140.199 12.1089Z" fill="url(#paint27_linear_9_42839)"/>
</g>
<path d="M210.299 125.252L195.563 116.75L195.53 133.821L210.299 142.348L210.318 142.337V125.241L210.299 125.252Z" fill="url(#paint28_linear_9_42839)"/>
<path d="M225.124 116.694V116.718L210.346 125.282L210.349 142.363L225.124 133.814L225.153 116.71L225.124 116.694Z" fill="url(#paint29_linear_9_42839)"/>
<path d="M225.123 116.699V116.675L210.383 108.165L195.586 116.742V116.764L210.325 125.274L225.123 116.699Z" fill="url(#paint30_linear_9_42839)"/>
<path d="M225.154 116.907V116.68L224.96 116.575L210.325 125.066L195.751 116.641L195.56 116.749L195.561 116.935L210.145 125.379L210.149 142.264L210.34 142.37L210.531 142.26L210.505 125.379L225.154 116.907Z" fill="white"/>
<g style="mix-blend-mode:soft-light">
<path style="mix-blend-mode:soft-light" d="M210.284 125.244L190.817 114.005L190.778 136.565L210.284 147.827L210.31 147.81V125.229L210.284 125.244Z" fill="url(#paint31_linear_9_42839)"/>
<path style="mix-blend-mode:soft-light" d="M210.254 148.029V125.232L210.301 125.205L229.771 113.913V113.775L229.997 113.906V113.96L229.958 136.602L229.913 136.63L210.254 148.029ZM210.441 125.34V147.705L229.773 136.501L229.81 114.114L210.441 125.34Z" fill="url(#paint32_linear_9_42839)"/>
<path style="mix-blend-mode:soft-light" d="M229.864 113.949V113.917L210.396 102.677L190.853 114.007V114.035L210.319 125.276L229.864 113.949Z" fill="url(#paint33_linear_9_42839)"/>
</g>
<path d="M224.563 137.215C224.563 137.215 226.249 136.503 226.249 133.164C225.125 132.645 225.597 134.333 224.428 135.066C223.259 135.798 220.791 135.495 221.329 137.479C221.222 139.09 224.212 137.655 224.563 137.215Z" fill="#D47E66"/>
<path d="M192.195 139.161C192.195 139.161 190.947 138.953 190.945 135.614C192.069 135.097 192.11 137.04 192.11 137.04C192.11 137.04 195.966 137.441 195.428 139.425C194.379 139.122 193.279 139.032 192.195 139.161Z" fill="#D47E66"/>
<path d="M205.757 162.369C211.565 165.164 207.756 173.09 203.616 172.091C203.616 172.091 192.562 161.99 190.463 156.743C189.422 154.14 190.909 140.467 190.909 140.467C190.883 139.783 190.896 139.391 191.846 138.998C191.846 138.998 195.796 138.998 196.446 139.225C197.096 139.451 197.287 140.102 197.195 140.78L197.534 153.987L205.757 162.369Z" fill="#3B5FC7"/>
<path d="M221.018 190.763C222.753 207.161 226.698 230.561 226.698 242.874L221.683 243.062C218.786 228.129 211.708 209.759 207.024 190.754L221.018 190.763Z" fill="#282554"/>
<path d="M200.841 189.054C197.495 205.866 199.835 224.339 199.631 243.972C202.885 244.649 205.137 244.684 205.027 243.019C208.186 225.317 208.903 207.9 214.835 190.763L200.841 189.054Z" fill="#282554"/>
<path d="M221.656 193.568C220.832 195.11 204.079 196.236 199.711 193.615C199.715 193.413 199.771 193.215 199.874 193.041C200.015 192.76 200.193 192.479 200.18 192.149C198.981 190.978 200.075 188.681 200.109 185.056C200.18 177.543 202.271 166.032 203.653 164.072C215.194 162.438 219.878 166.44 219.878 166.44C220.143 179.555 223.401 190.083 221.145 191.614L221.656 193.568Z" fill="#3B5FC7"/>
<path d="M196.725 242.518L198.166 242.078C199.118 240.204 203.176 240.437 202.61 242.715C204.202 242.953 205.046 242.153 205.046 242.153C205.754 243.515 205.795 244.963 205.521 246.462H196.926L196.725 242.518Z" fill="#48C6C6"/>
<path d="M229.829 242.518L228.388 242.078C227.436 240.204 223.378 240.437 223.944 242.715C222.351 242.953 221.508 242.153 221.508 242.153C220.862 243.333 220.892 244.868 221.032 246.462H229.628L229.829 242.518Z" fill="#48C6C6"/>
<path d="M201.265 246.468C201.265 246.447 201.265 246.429 201.265 246.408C201.265 245.357 200.847 244.348 200.103 243.605C199.36 242.861 198.352 242.444 197.3 242.444C196.249 242.444 195.24 242.861 194.497 243.605C193.753 244.348 193.336 245.357 193.336 246.408V246.468H201.265Z" fill="#54E8E8"/>
<path d="M225.289 246.468C225.289 246.447 225.289 246.429 225.289 246.408C225.289 245.357 225.707 244.348 226.45 243.605C227.194 242.861 228.202 242.444 229.254 242.444C230.305 242.444 231.314 242.861 232.057 243.605C232.801 244.348 233.218 245.357 233.218 246.408V246.468H225.289Z" fill="#54E8E8"/>
<path d="M218.458 173.667C214.925 175.803 212.088 168.678 214.018 164.112L219.264 153.455C219.264 153.455 220.699 139.694 220.603 139.118C220.508 138.543 220.085 138.11 221.064 138.011C222.044 137.912 224.701 137.449 224.701 137.449C224.701 137.449 225.345 137.397 225.561 138.3C226.397 141.818 226.931 153.311 226.663 154.84C225.671 160.494 220.815 172.018 218.458 173.667Z" fill="#3B5FC7"/>
<path d="M207.528 164.565C207.528 164.565 206.32 165.056 206.282 166.679C206.245 168.301 209.076 169.472 211.112 168.679C213.149 167.887 215.609 166.566 214.886 163.849C214.162 161.133 207.528 164.565 207.528 164.565Z" fill="#314FA6"/>
<path d="M207.344 165.852L207.307 165.513L206.837 161.425L206.438 157.959L211.153 156.404L213.817 164.036C214.288 167.055 207.089 168.55 207.344 165.852Z" fill="#D47E66"/>
<path d="M212.384 160.102C211.547 162.467 210.625 164.754 207.241 164.865L206.835 161.425C209.137 159.559 212.384 160.102 212.384 160.102Z" fill="#B3614B"/>
<path d="M203.307 154.757C201.321 156.619 202.355 161.961 205.428 163.04C208.5 164.119 212.497 161.931 213.756 158.356C215.015 154.781 213.544 150.995 210.471 149.925C207.399 148.855 203.665 150.485 203.307 154.757Z" fill="#D47E66"/>
<path d="M213.3 154.122C213.3 154.122 211.179 154.633 206.887 153.455C198.164 151.06 203.061 148.379 206.527 148.248C207.86 148.198 214.584 147.516 214.348 152.87C217.22 155.325 215.06 158.156 213.651 159.209C212.693 157.395 213.3 154.122 213.3 154.122Z" fill="#FD9E4E"/>
<path d="M214.365 160.983C214.965 160.462 215.03 159.553 214.509 158.953C213.988 158.353 213.08 158.288 212.479 158.809C211.879 159.33 211.814 160.239 212.335 160.839C212.856 161.439 213.765 161.504 214.365 160.983Z" fill="#D47E66"/>
<path d="M213.134 155.774C213.134 155.774 213.169 158.249 212.553 159.233C213.623 158.577 214.261 158.781 214.271 158.772C214.28 158.763 215.436 156.231 213.134 155.774Z" fill="#FD9E4E"/>
<path d="M212.221 193.727C208.208 194.004 200.069 192.356 199.874 193.051C200.015 192.77 200.193 192.489 200.18 192.159C198.981 190.988 200.075 188.691 200.109 185.066C200.296 188.251 199.415 191.535 201.63 191.852C205.579 192.414 215.434 192.706 216.628 192.665C217.821 192.624 217.838 193.33 212.221 193.727Z" fill="#314FA6"/>
<path d="M84.0857 155.578C83.977 160.951 87.8066 168.226 89.9349 172.695L98.1487 170.446C95.7898 165.826 91.4806 155.992 89.9705 153.639C87.1321 149.015 83.7128 152.696 84.0857 155.578Z" fill="#FFA88F"/>
<path d="M99.1192 171.299C98.3173 167.711 94.0006 161.103 94.0006 161.103L85.7925 165.153L91.2652 175.554C93.4947 179.089 99.0068 177.836 99.1192 171.299Z" fill="#34508F"/>
<path d="M89.9029 153.369C89.7568 151.683 86.9801 138.079 86.9801 138.079L84.4714 137.238C84.4714 137.238 83.0513 150.928 84.1361 156.421C84.8817 160.191 90.1296 155.975 89.9029 153.369Z" fill="#FFA88F"/>
<path d="M87.4936 136.703L87.4168 132.123C87.4168 132.123 87.0552 131.98 86.8847 132.256C86.7142 132.531 86.806 133.38 86.806 133.38C86.806 133.38 86.7198 134.588 86.4051 134.418C86.0903 134.247 85.1685 130.588 84.7526 130.815C84.3367 131.042 85.3147 134.03 85.3147 134.03C85.3147 134.03 83.8308 130.903 83.5479 131.13C83.265 131.356 84.4847 134.511 84.4847 134.511C84.4847 134.511 82.6261 132.117 82.435 132.237C82.2439 132.357 83.7746 134.931 83.7746 134.931C83.7746 134.931 82.4631 133.406 82.302 133.539C82.1408 133.672 84.6177 137.719 84.6177 137.719C85.7793 139.328 87.4955 138.36 87.4936 136.703Z" fill="#FFA88F"/>
<path d="M97.9652 119.236L82.3752 110.241L82.3396 128.302L97.9652 137.324L97.9858 137.312V119.223L97.9652 119.236Z" fill="url(#paint34_linear_9_42839)"/>
<path d="M113.649 110.183V110.207L98.0156 119.27L98.0175 137.339L113.649 128.295L113.681 110.2L113.649 110.183Z" fill="url(#paint35_linear_9_42839)"/>
<path d="M113.649 110.187V110.162L98.0531 101.16L82.3994 110.234V110.258L97.9931 119.26L113.649 110.187Z" fill="url(#paint36_linear_9_42839)"/>
<path d="M113.682 110.408V110.168L113.474 110.056L97.9932 119.041L82.5718 110.127L82.3713 110.241L82.3732 110.438L97.802 119.371L97.8077 137.236L98.0081 137.346L98.2105 137.23L98.1843 119.371L113.682 110.408Z" fill="white"/>
<g style="mix-blend-mode:soft-light">
<path style="mix-blend-mode:soft-light" d="M97.9497 119.229L77.3535 107.338L77.3142 131.205L97.9497 143.119L97.9778 143.104V119.212L97.9497 119.229Z" fill="url(#paint37_linear_9_42839)"/>
<path style="mix-blend-mode:soft-light" d="M118.666 107.272V107.304L98.0173 119.272V143.162L118.666 131.193L118.705 107.294L118.666 107.272Z" fill="url(#paint38_linear_9_42839)"/>
<path style="mix-blend-mode:soft-light" d="M118.664 107.277V107.246L98.0678 95.354L77.3911 107.339V107.371L97.9873 119.263L118.664 107.277Z" fill="url(#paint39_linear_9_42839)"/>
</g>
<path d="M88.5469 244.769L88.7042 250.59H93.4931L93.8266 244.803L88.5469 244.769Z" fill="#FFA88F"/>
<path d="M109.456 244.63L110.537 250.452H115.809L115.039 244.666L109.456 244.63Z" fill="#FFA88F"/>
<path d="M89.0845 192.791C88.1009 199.039 87.3739 224.201 88.5468 244.055L94.1675 244.091L101.19 192.791H89.0845Z" fill="#267FBF"/>
<path d="M115.176 244.952L110.349 193.017H97.7046L109.057 244.952H115.176Z" fill="#267FBF"/>
<path d="M96.0635 202.777C96.0635 202.777 99.2223 203.449 103.183 202.306C99.3553 204.877 96.0635 202.777 96.0635 202.777Z" fill="#185078"/>
<path d="M88.054 247.396C87.5987 248.426 86.4371 248.82 84.1195 249.217C81.6257 249.029 80.451 251.767 81.6969 252.912H94.0213C94.2086 252.076 94.04 249.661 93.9089 248.471C92.8353 249.177 91.7055 249.046 90.5364 248.6C91.4001 246.496 88.2338 246.152 88.054 247.396Z" fill="#195580"/>
<path d="M84.1214 249.217C84.1214 249.217 86.2105 249.359 86.3528 251.684H94.4092V253.078H81.1968C81.0189 252.207 81.0837 251.304 81.3841 250.468C81.8825 249.108 83.9453 249.185 84.1214 249.217Z" fill="#5DADE8"/>
<path d="M88.972 248.831C88.9503 248.872 88.9142 248.903 88.8706 248.919C88.827 248.935 88.779 248.934 88.7359 248.917L86.9242 248.087C86.8828 248.066 86.8508 248.03 86.8346 247.986C86.8183 247.942 86.8189 247.894 86.8362 247.851C86.8575 247.81 86.8935 247.778 86.9372 247.761C86.9808 247.745 87.029 247.746 87.0722 247.763L88.884 248.593C88.9258 248.614 88.9581 248.651 88.9744 248.695C88.9907 248.739 88.9899 248.787 88.972 248.831Z" fill="#F2F2F2"/>
<path d="M88.2581 249.312C88.2368 249.354 88.2008 249.386 88.1571 249.402C88.1135 249.418 88.0653 249.418 88.0221 249.4L86.2103 248.568C86.1689 248.547 86.137 248.511 86.1207 248.467C86.1044 248.424 86.105 248.376 86.1223 248.332C86.1437 248.29 86.18 248.258 86.2241 248.242C86.2682 248.226 86.3167 248.226 86.3602 248.244L88.1701 249.076C88.2115 249.097 88.2434 249.133 88.2597 249.177C88.276 249.221 88.2754 249.269 88.2581 249.312Z" fill="#F2F2F2"/>
<path d="M87.398 249.666C87.3764 249.707 87.3402 249.739 87.2966 249.755C87.253 249.771 87.205 249.77 87.162 249.753L85.3558 248.923C85.3144 248.901 85.2825 248.865 85.2662 248.822C85.2499 248.778 85.2505 248.73 85.2678 248.687C85.2892 248.645 85.3255 248.612 85.3696 248.596C85.4137 248.58 85.4623 248.581 85.5057 248.598L87.3156 249.428C87.3564 249.451 87.3875 249.488 87.4028 249.532C87.418 249.576 87.4163 249.624 87.398 249.666Z" fill="#F2F2F2"/>
<path d="M118.381 248.964C116.959 248.632 116.369 248.085 116.015 247.278C115.828 246.034 112.105 246.566 112.965 248.67C111.797 249.116 111.232 249.06 110.154 248.353C110.025 249.545 109.851 251.958 110.042 252.794H118.574L118.381 248.964Z" fill="#195580"/>
<path d="M117.311 249.063C117.311 249.063 114.835 249.251 114.688 251.572H109.667V252.966H120.954C121.679 250.635 119.093 248.361 117.311 249.063Z" fill="#5DADE8"/>
<path d="M115.457 249.11C115.469 249.155 115.497 249.194 115.536 249.219C115.575 249.244 115.622 249.254 115.668 249.247C116.184 248.84 116.849 248.73 117.617 248.823C117.662 248.811 117.7 248.782 117.725 248.743C117.75 248.704 117.759 248.657 117.752 248.612C117.74 248.566 117.711 248.527 117.672 248.502C117.633 248.477 117.586 248.467 117.54 248.475C116.863 248.406 116.181 248.554 115.593 248.898C115.548 248.91 115.509 248.938 115.484 248.978C115.459 249.017 115.449 249.064 115.457 249.11Z" fill="#F2F2F2"/>
<path d="M114.689 248.647C114.701 248.692 114.729 248.731 114.768 248.757C114.807 248.782 114.854 248.792 114.9 248.784C115.416 248.378 116.079 248.267 116.847 248.361C116.892 248.349 116.931 248.321 116.956 248.281C116.981 248.242 116.991 248.195 116.984 248.149C116.972 248.104 116.943 248.065 116.904 248.04C116.865 248.014 116.818 248.005 116.772 248.012C116.095 247.942 115.412 248.09 114.825 248.436C114.78 248.448 114.741 248.476 114.716 248.515C114.691 248.554 114.681 248.601 114.689 248.647Z" fill="#F2F2F2"/>
<path d="M114.022 248.186C114.034 248.232 114.062 248.271 114.102 248.296C114.141 248.322 114.189 248.331 114.235 248.323C114.749 247.917 115.414 247.806 116.182 247.9C116.227 247.888 116.266 247.859 116.291 247.82C116.316 247.781 116.326 247.734 116.319 247.688C116.307 247.643 116.278 247.604 116.239 247.579C116.2 247.553 116.153 247.544 116.107 247.551C115.429 247.482 114.746 247.63 114.158 247.975C114.113 247.987 114.074 248.015 114.049 248.054C114.024 248.093 114.014 248.14 114.022 248.186Z" fill="#F2F2F2"/>
<path d="M88.1404 243.752C88.1404 243.724 94.6398 243.752 94.6398 243.752V245.148L88.1404 245.286V243.752Z" fill="#5DADE8"/>
<path d="M108.63 244.516C108.63 244.488 115.453 244.516 115.453 244.516L115.597 245.981L108.774 246.12L108.63 244.516Z" fill="#5DADE8"/>
<path d="M88.3987 197.634C91.803 199.942 106.572 200.459 111.818 198.078C111.766 197.433 111.717 196.802 111.667 196.185C110.741 184.665 110.038 177.907 108.682 166.969C102.613 163.662 94.8513 164.23 92.2882 166.426L88.6066 195.921L88.3987 197.634Z" fill="#34508F"/>
<path d="M97.0546 164.955C95.8911 165.18 94.3023 166.216 95.7431 168.567C97.1838 170.918 105.557 170.664 105.913 167.891C106.269 165.118 98.218 164.728 97.0546 164.955Z" fill="#5582E8"/>
<path d="M96.8617 166.351L97.0753 165.431L97.851 162.137L98.8721 157.783L104.369 157.931L104.556 167.089C103.918 170.409 95.5802 169.067 96.8617 166.351Z" fill="#FFA88F"/>
<g style="mix-blend-mode:soft-light" opacity="0.5">
<path d="M103.001 162.859C101.282 164.216 99.2403 165.104 97.0752 165.437L97.8509 162.143L103.001 162.859Z" fill="#0D0D0D"/>
</g>
<path d="M95.9813 153.923C94.1958 156.471 93.5794 160.681 96.5434 162.793C99.5073 164.904 104.002 163.475 106.473 160.007C108.945 156.539 108.521 152.016 105.548 149.905C102.574 147.793 97.6862 149.442 95.9813 153.923Z" fill="#FFA88F"/>
<path d="M96.3259 153.138C96.3259 153.138 97.0566 150.394 100.676 150.815C100.146 151.61 98.917 152.115 97.5962 152.582C97.5962 152.582 100.719 153.552 103.08 152.445C102.743 153.382 101.418 154.032 101.418 154.032C101.418 154.032 103.65 155.064 105.025 154.167C104.613 156.134 105.849 158.991 104.693 161.905C108.512 159.79 110.089 159.076 110.966 156.395C112.223 152.548 108.405 148.526 104.734 147.315C98.1114 144.874 95.0556 148.775 96.3259 153.138Z" fill="#C2593C"/>
<path d="M106.429 159.675C106.941 159.205 106.975 158.41 106.505 157.899C106.035 157.387 105.24 157.353 104.729 157.823C104.217 158.293 104.183 159.088 104.653 159.599C105.123 160.111 105.918 160.145 106.429 159.675Z" fill="#FFA88F"/>
<path d="M114.22 154.944C115.292 160.211 111.972 167.883 110.69 172.663L103.466 171.994C104.965 167.025 107.376 157.717 108.082 154.105C110.046 149.035 114.07 152.046 114.22 154.944Z" fill="#FFA88F"/>
<path d="M101.913 173.279C102.057 169.605 103.503 165.506 104.826 162.126C107.084 161.465 114.194 163.124 114.26 163.231L110.436 177.253C108.877 181.135 103.196 179.691 101.913 173.279Z" fill="#34508F"/>
<path d="M108.101 153.82C107.944 152.134 108.232 138.255 108.232 138.255L110.548 136.977C110.548 136.977 114.396 150.184 114.321 155.786C114.265 159.628 108.347 156.421 108.101 153.82Z" fill="#FFA88F"/>
<path d="M88.3987 197.634C91.803 199.942 106.572 200.459 111.818 198.078C111.766 197.433 111.717 196.802 111.667 196.185C109.649 196.875 104.294 198.531 100.062 198.286C95.8293 198.04 90.602 196.538 88.6141 195.921L88.3987 197.634Z" fill="#5582E8"/>
<path d="M110.876 138.114C111.747 136.718 112.594 135.652 113.413 134.953C113.413 134.953 113.669 134.798 113.369 134.674C112.839 134.459 112.313 134.922 112.313 134.922C112.313 134.922 111.522 135.95 111.376 135.626C111.23 135.302 112.654 131.808 112.183 131.752C111.713 131.695 110.728 134.674 110.728 134.674C110.728 134.674 111.398 131.278 111.035 131.302C110.672 131.326 109.772 134.573 109.772 134.573C109.772 134.573 109.703 131.544 109.478 131.527C109.253 131.51 108.952 134.487 108.952 134.487C108.952 134.487 108.807 132.484 108.597 132.492C108.388 132.499 107.968 137.23 107.968 137.23C107.934 139.206 109.9 139.446 110.876 138.114Z" fill="#FFA88F"/>
<path d="M106.027 124.653C105.868 124.55 106.083 124.132 106.28 124.233L138.522 143.754C138.55 143.77 138.574 143.792 138.593 143.818C138.612 143.844 138.626 143.874 138.633 143.905C138.641 143.937 138.642 143.969 138.637 144.001C138.633 144.033 138.621 144.063 138.605 144.091C138.588 144.119 138.566 144.143 138.54 144.162C138.514 144.181 138.485 144.195 138.453 144.203C138.422 144.21 138.389 144.212 138.357 144.207C138.325 144.202 138.295 144.19 138.267 144.173L106.027 124.653Z" fill="url(#paint40_linear_9_42839)"/>
<path d="M89.9988 124.201C90.1636 124.107 90.4353 124.491 90.2536 124.619L58.0488 144.201C58.0214 144.218 57.991 144.23 57.9592 144.235C57.9275 144.24 57.895 144.238 57.8638 144.231C57.8325 144.223 57.8032 144.209 57.7773 144.19C57.7515 144.171 57.7298 144.147 57.7134 144.119C57.6795 144.064 57.6689 143.997 57.684 143.934C57.6991 143.87 57.7386 143.816 57.794 143.782L89.9988 124.201Z" fill="url(#paint41_linear_9_42839)"/>
<path d="M32.8544 155.001L30.844 154.474C30.3981 155.447 29.5082 156.91 28.7231 158.617L31.9588 159.773C32.3654 157.848 32.6764 156.143 32.8544 155.001Z" fill="#BF5F45"/>
<path d="M28.9855 157.91L23.2542 167.722L14.9299 176.153C9.17059 181.783 16.8841 190.58 22.0814 183.306L27.5578 172.655C27.5578 172.655 31.8352 163.874 32.1143 159.317L28.9855 157.91Z" fill="#7364CA"/>
<path d="M30.6977 154.523L32.2321 150.214C32.2321 150.214 32.62 150.195 32.693 150.511C32.7661 150.828 32.4101 151.591 32.4101 151.591C32.4101 151.591 32.1066 152.764 32.4588 152.704C32.8111 152.644 34.8645 149.474 35.1774 149.828C35.4903 150.182 33.6111 152.692 33.6111 152.692C33.6111 152.692 36.0167 150.202 36.2116 150.508C36.4065 150.813 34.2462 153.416 34.2462 153.416C34.2462 153.416 36.7737 151.741 36.9161 151.917C37.0584 152.093 34.7858 154.041 34.7858 154.041C34.7858 154.041 36.5132 153.015 36.6257 153.193C36.7381 153.371 33.0959 156.413 33.0959 156.413C31.4827 157.567 30.1675 156.093 30.6977 154.523Z" fill="#BF5F45"/>
<path d="M45.7724 147.803L30.1824 138.808L30.1487 156.869L45.7724 165.89L45.793 165.879V147.791L45.7724 147.803Z" fill="url(#paint42_linear_9_42839)"/>
<path d="M61.4579 138.749V138.774L45.823 147.836L45.8267 165.907L61.4579 156.861L61.4879 138.766L61.4579 138.749Z" fill="url(#paint43_linear_9_42839)"/>
<path d="M61.4563 138.753V138.729L45.8626 129.726L30.207 138.8V138.824L45.8007 147.827L61.4563 138.753Z" fill="url(#paint44_linear_9_42839)"/>
<path d="M61.4898 138.974V138.736L61.2818 138.622L45.8005 147.608L30.3811 138.693L30.1787 138.808L30.1806 139.004L45.6094 147.937L45.615 165.802L45.8155 165.912L46.0179 165.796L45.9916 147.937L61.4898 138.974Z" fill="white"/>
<g style="mix-blend-mode:soft-light">
<path style="mix-blend-mode:soft-light" d="M45.7578 147.795L25.1617 135.904L25.1223 159.771L45.7578 171.685L45.7859 171.67V147.78L45.7578 147.795Z" fill="url(#paint45_linear_9_42839)"/>
<path style="mix-blend-mode:soft-light" d="M66.474 135.838V135.87L45.8254 147.838V171.73L66.474 159.762L66.5153 135.862L66.474 135.838Z" fill="url(#paint46_linear_9_42839)"/>
<path style="mix-blend-mode:soft-light" d="M66.4721 135.844V135.812L45.8759 123.92L25.1992 135.906V135.937L45.7954 147.829L66.4721 135.844Z" fill="url(#paint47_linear_9_42839)"/>
</g>
<path d="M24.2449 175.087L24.6196 179.846L24.6946 180.728C24.822 181.841 17.8186 183.694 17.8991 182.319L18.0078 181.287L18.5699 175.956L24.2449 175.087Z" fill="#BF5F45"/>
<path d="M35.7226 263.445C36.1516 262.989 38.1788 262.982 38.3643 263.654C38.5498 264.327 38.1919 264.808 39.0463 265.875C38.5554 266.017 36.8092 266.03 36.2753 265.875C35.7413 265.719 35.2935 263.9 35.7226 263.445Z" fill="#48C6C6"/>
<path d="M36.8298 266.422H32.9065C32.7679 264.957 32.5787 263.574 32.3445 262.242C31.0798 254.735 28.7435 248.752 28.6948 237.682C27.698 234.105 26.9374 230.985 26.364 228.259C23.7766 215.982 24.9532 211.641 25.1556 209.213C25.7514 203.864 34.1337 202.046 35.9174 207.948C36.7998 210.871 36.9347 213.333 36.9815 218.2C37.1202 231.789 37.1914 249.837 36.8298 266.422Z" fill="#34508F"/>
<path d="M40.0785 266.062C39.3516 266.025 37.6523 265.324 37.3319 264.841C36.8597 265.367 35.878 265.513 34.6902 265.337C33.2887 265.127 33.1032 264.477 32.099 264.563C31.6756 265.742 30.6432 268.385 31.6381 269H42.0214C42.9488 268.153 42.9245 266.347 40.0785 266.062Z" fill="#48C6C6"/>
<path d="M14.7312 263.574C15.1209 263.162 16.9607 263.156 17.1275 263.761C17.2942 264.367 16.972 264.809 17.7476 265.776C17.2998 265.905 15.7167 265.918 15.2333 265.776C14.7499 265.633 14.3471 263.986 14.7312 263.574Z" fill="#48C6C6"/>
<path d="M28.1047 219.189C27.6869 221.9 27.0574 224.81 26.2855 227.849C23.6175 238.382 19.2615 250.558 16.1195 262.053C15.7285 263.484 15.3582 264.904 15.0085 266.311C14.7218 267.477 11.014 267.171 11.162 265.86C11.8552 257.953 12.0276 241.056 16.3387 232.917C15.0272 214.979 15.8759 211.787 16.1364 208.914C16.8595 203.577 27.7319 202.949 28.5338 209.062C28.9253 212.088 28.8504 214.378 28.1047 219.189Z" fill="#34508F"/>
<path d="M18.6996 265.485C17.9146 265.442 16.7567 264.421 16.4101 263.9C15.9005 264.462 14.9281 265.236 13.6485 265.045C12.1346 264.818 11.936 264.108 10.8512 264.209C10.3941 265.481 9.27929 268.331 10.3547 268.998H21.2551C22.2556 268.086 21.7704 265.792 18.6996 265.485Z" fill="#48C6C6"/>
<path d="M34.497 189.941C34.2291 188.007 29.6258 184.333 25.5639 178.917C22.4163 177.594 15.737 179.38 15.634 182.835C17.2115 187.683 18.1895 190.629 17.8822 200.169C15.8888 204.984 15.5347 207.807 15.04 212.456C15.04 212.456 16.9436 214.678 23.7915 214.442C27.4393 214.318 34.4146 214.108 36.8034 212.176C36.2713 206.931 34.2347 201.872 33.5528 197.413C33.5584 197.413 34.7687 191.876 34.497 189.941Z" fill="#937FFF"/>
<path d="M32.6029 186.259C33.223 191.029 31.3738 193.828 31.3944 199.011C31.4169 204.337 32.9514 209.853 32.6966 215.423C26.6468 219.153 12.4714 216.465 10.9182 214.719C16.6644 202.318 16.7619 186.126 16.7619 186.126C17.8954 175.43 29.8975 176.964 32.6029 186.259Z" fill="#7364CA"/>
<path d="M25.4722 166.787C28.5861 170.92 29.1332 175.198 25.0619 176.824C21.6726 178.176 17.1667 178.534 14.0172 173.378C12.0125 170.092 13.1066 165.86 16.2655 164.04C19.4243 162.221 22.7181 163.134 25.4722 166.787Z" fill="#BF5F45"/>
<path d="M26.3921 168.342C26.3921 168.342 28.3181 168.488 27.9378 169.517C27.5574 170.546 26.735 170.418 26.735 170.418L26.3921 168.342Z" fill="#BF5F45"/>
<path d="M26.2856 227.849C23.6176 238.382 19.2616 250.558 16.1196 262.053C15.8998 261.287 15.8037 260.49 15.8348 259.694C16.1027 253.273 22.1206 244.143 22.3548 237.801C22.1881 230.88 25.834 225.623 25.834 225.623L26.2856 227.849Z" fill="#456CBF"/>
<path d="M46.0835 162.176L44.1593 161.395C43.5972 162.3 42.5181 163.632 41.5176 165.226L44.5827 166.793C45.2291 164.938 45.7593 163.285 46.0835 162.176Z" fill="#BF5F45"/>
<path d="M41.8696 164.561L34.9187 173.554L25.5733 180.829C19.1339 185.667 25.6445 195.381 31.7392 188.848L38.5478 178.995C38.5478 178.995 43.9249 170.841 44.7924 166.36L41.8696 164.561Z" fill="#7364CA"/>
<path d="M44.0077 161.423L46.0874 157.341C46.0874 157.341 46.4752 157.374 46.5071 157.697C46.5389 158.019 46.0874 158.731 46.0874 158.731C46.0874 158.731 45.6321 159.855 45.99 159.84C46.3478 159.825 48.8003 156.949 49.0589 157.341C49.3174 157.732 47.1347 159.979 47.1347 159.979C47.1347 159.979 49.842 157.82 49.9975 158.148C50.1531 158.476 47.6724 160.771 47.6724 160.771C47.6724 160.771 50.3929 159.441 50.5072 159.628C50.6214 159.816 48.1202 161.461 48.1202 161.461C48.1202 161.461 49.9638 160.666 50.0537 160.857C50.1437 161.048 46.1417 163.6 46.1417 163.6C44.3937 164.537 43.2771 162.911 44.0077 161.423Z" fill="#BF5F45"/>
<path d="M13.3054 162.654C11.9639 164.202 7.97698 164.428 9.21729 171.719C10.0342 176.519 1.62559 177.3 2.97456 185.493C4.32353 193.686 0.913631 193.334 0.786228 199.38C0.492078 213.668 14.7312 213.432 20.2489 202.589C22.3622 198.437 18.1242 195.384 24.1065 190.173C28.1722 186.632 23.9623 183.942 27.7338 179.237C30.9825 175.185 18.7631 173.676 25.2382 165.935C25.7609 165.313 29.4649 161.609 25.9876 158.776C23.3402 156.631 16.7828 156.893 13.3054 162.654Z" fill="#FD9E4E"/>
<path d="M202.18 129.636C202.424 129.505 202.694 129.893 202.422 130.063L154.49 157.005C154.318 157.103 154.116 157.084 154.059 156.966C153.992 156.848 154.078 156.674 154.247 156.578L202.18 129.636Z" fill="url(#paint48_linear_9_42839)"/>
<path d="M162.98 180.489C162.98 180.489 153.05 181.686 150.065 181.068C148.191 180.682 139.597 169.311 139.597 169.311L141.134 167.958L150.773 175.468L162.459 173.118C167.459 172.976 168.782 179.786 162.98 180.489Z" fill="#FFA88F"/>
<path d="M161.318 181.255C161.318 181.255 162.669 178.979 162.165 176.758C161.661 174.538 160.171 173.573 160.171 173.573C161.764 172.307 163.356 171.007 165.078 170.312C165.078 170.312 168.124 171.998 168.883 174.355C170.371 178.992 161.318 181.255 161.318 181.255Z" fill="#7D6CD9"/>
<path d="M141.134 167.958C141.134 167.958 140.725 166.379 139.073 164.865C139.001 164.861 138.93 164.875 138.866 164.907C138.802 164.938 138.747 164.986 138.706 165.045C138.665 165.104 138.641 165.172 138.634 165.243C138.627 165.314 138.639 165.386 138.668 165.451C138.772 165.817 138.922 166.168 139.116 166.495C139.116 166.495 134.542 164.769 134.456 165.005C134.37 165.241 136.907 166.596 136.892 166.753C136.877 166.911 134.192 165.597 134.111 165.873C134.031 166.148 136.33 167.449 136.332 167.593C136.333 167.737 134.106 166.482 133.975 166.678C133.844 166.875 135.121 167.99 136.129 168.537C136.032 168.951 134.537 168.833 134.484 168.987C134.432 169.14 137 169.884 139.918 169.755C142.835 169.626 141.134 167.958 141.134 167.958Z" fill="#99533F"/>
<path d="M145.544 155.344L130.329 146.566L130.297 164.192L145.544 172.996L145.565 172.983V155.332L145.544 155.344Z" fill="url(#paint49_linear_9_42839)"/>
<path d="M160.851 146.508V146.532L145.593 155.375L145.597 173.011L160.851 164.185L160.881 146.526L160.851 146.508Z" fill="url(#paint50_linear_9_42839)"/>
<path d="M160.849 146.513V146.489L145.632 137.702L130.353 146.558V146.581L145.572 155.368L160.849 146.513Z" fill="url(#paint51_linear_9_42839)"/>
<path d="M160.883 146.729V146.495L160.681 146.384L145.572 155.152L130.524 146.453L130.327 146.566L130.329 146.757L145.385 155.475L145.391 172.908L145.587 173.019L145.784 172.904L145.758 155.475L160.883 146.729Z" fill="white"/>
<g style="mix-blend-mode:soft-light">
<path style="mix-blend-mode:soft-light" d="M145.529 155.336L125.429 143.731L125.39 167.024L145.529 178.651L145.557 178.636V155.321L145.529 155.336Z" fill="url(#paint52_linear_9_42839)"/>
<path style="mix-blend-mode:soft-light" d="M165.747 143.668V143.7L145.595 155.38V178.694L165.747 167.015L165.786 143.69L165.747 143.668Z" fill="url(#paint53_linear_9_42839)"/>
<path style="mix-blend-mode:soft-light" d="M145.567 155.477L145.52 155.451L125.373 143.818V143.679L125.42 143.653L145.645 131.93L145.692 131.956L165.839 143.587V143.728L165.792 143.754L145.567 155.477ZM125.626 143.748L145.567 155.261L165.586 143.658L145.645 132.145L125.626 143.748Z" fill="url(#paint54_linear_9_42839)"/>
</g>
<path d="M185.275 184.893C185.275 184.893 185.961 185.911 187.136 185.456C188.882 186.029 189.354 184.226 189.354 184.226C189.354 184.226 191.619 184.706 191.743 182.902C193.223 182.179 193.474 180.98 193.129 180.062C194.03 178.889 192.887 176.824 192.887 176.824C192.887 176.824 194.628 175.617 193.386 174.04C193.959 172.127 191.683 170.598 191.683 170.598C191.683 170.598 192.194 168.869 190.77 168.213C190.412 166.386 189.459 165.562 187.345 166.152C185.659 163.855 183.846 165.247 183.846 165.247C183.846 165.247 182.045 162.776 180.415 164.402C177.638 164.252 177.455 166.428 177.455 166.428C177.455 166.428 175.497 165.969 175.1 167.876C173.432 169.041 173.651 170.173 173.987 170.855C172.799 171.08 172.863 172.785 173.458 173.364C172.814 174.203 173.065 175.267 173.816 176.009C173.816 176.009 173.601 177.18 174.42 178.057C174.378 179.743 176.267 180.434 176.267 180.434C176.267 180.434 176.267 182.106 177.174 182.87C177.766 184.084 179.45 184.839 179.45 184.839C179.45 184.839 180.629 186.304 181.483 185.93C182.772 186.563 184.012 185.93 183.919 185.542C183.825 185.154 185.359 185.858 185.275 184.893Z" fill="#FD6A4E"/>
<path d="M180.014 197.529C181.856 206.069 178.963 221.589 180.278 224.285C182.877 228.827 184.728 240.098 183.889 251.902L180.516 252.314L165.153 197.726L180.014 197.529Z" fill="#241F3C"/>
<path d="M171.982 197.872C171.58 206.571 169.921 213.996 168.439 221.066C168.007 223.127 167.784 225.874 168.383 227.884C169.912 232.994 169.225 244.372 166.903 254.114L163.518 253.974L161.303 225.829L159.373 201.568L171.982 197.872Z" fill="#241F3C"/>
<path d="M179.827 200.573C179.827 200.573 179.973 191.271 171.784 188.558C163.594 185.845 159.812 194.434 158.757 198.675C157.011 205.679 179.643 210.49 179.827 200.573Z" fill="#241F3C"/>
<path d="M163.572 191.702C166.382 184.138 158.746 179.827 162.987 175.263C163.328 172.558 168.218 173.079 172.973 173.607C178.139 174.18 184.172 173.656 182.36 178.926C179.098 184.067 177.337 188.247 177.699 193.188C176.037 195.925 164.005 194.398 163.572 191.702Z" fill="#937FFF"/>
<path d="M176.599 171.391C176.503 171.479 174.538 172.265 169.897 171.505C168.081 169.607 165.794 169.922 164.703 170.793C163.193 172.003 162.521 174.667 163.337 179.082C164.302 185.416 178.851 183.932 181.738 179.932C187.387 172.102 180.306 167.917 176.599 171.391Z" fill="#937FFF"/>
<path d="M168.885 173C168.51 174.591 168.87 175.314 169.084 175.608C169.084 175.608 174.258 173.026 177.299 170.843L179.791 166.032L172.971 165.978C172.581 166.605 172.211 167.171 171.86 167.701C171.356 168.464 170.893 169.153 170.468 169.847C169.842 170.846 169.312 171.901 168.885 173Z" fill="#FFA88F"/>
<path d="M170.468 169.847C172.154 170.469 174.09 170.24 176.228 169.356L171.888 167.67L171.86 167.704C171.353 168.464 170.894 169.154 170.468 169.847Z" fill="#F58367"/>
<path d="M181.35 259.181L180.391 253.301L178 242.564H184.264L184.432 250.257L186.604 254.212L183.793 261.56C183.793 261.56 179.387 262.285 179.034 261.335C178.682 260.385 181.35 259.181 181.35 259.181Z" fill="black"/>
<path d="M186.604 254.189L186.705 261.135L186.019 261.144L183.482 254.871L186.604 254.189Z" fill="black"/>
<path d="M162.326 260.389L163.051 252.507L162.397 243.564H168.865L167.823 250.933L168.805 255.019L164.898 262.628C164.898 262.628 160.027 263.64 159.63 262.712C159.233 261.785 162.326 260.389 162.326 260.389Z" fill="black"/>
<path d="M168.81 254.995L169.309 261.923L168.625 261.972L165.62 254.834L168.81 254.995Z" fill="black"/>
<path d="M169.704 171.132C169.704 171.132 165.419 173.77 164.778 176.976C164.404 178.887 164.906 190.164 164.51 193.525C164.115 196.886 163.386 208.362 163.386 208.362C157.777 208.774 152.969 206.014 151.352 205.34C151.352 205.34 159.034 199.301 161.775 186.585C161.426 183.998 161.226 181.268 161.312 177.064C161.397 172.942 164.829 168.724 168.456 170.461L169.704 171.132Z" fill="#7D6CD9"/>
<path d="M177.301 170.844C177.301 170.844 180.171 168.835 182.734 171.486C185.297 174.137 183.122 179.455 183.122 179.455C183.122 179.455 181.101 187.153 181.554 189.126C182.007 191.099 186.63 200.249 187.902 208.221C184.75 210.252 173.136 209.345 173.136 209.345C173.136 209.345 170.978 189.98 172.61 182.975C173.569 178.827 174.234 173.154 177.301 170.844Z" fill="#7D6CD9"/>
<path d="M170.835 160.962C170.739 160.574 170.734 160.169 170.82 159.778C170.968 159.14 172.031 158.654 172.031 158.654C172.031 158.654 171.843 158.036 172.557 157.069C173.271 156.102 174.071 156.464 174.071 156.464C174.21 155.793 174.513 155.008 176.411 155.259C177.258 154.235 178.461 155.308 178.461 155.308L178.51 155.291C178.341 155.652 178.147 156.001 177.929 156.335C177.681 156.335 177.134 156.348 176.316 156.322C175.956 157.275 174.41 157.358 174.41 157.358C174.41 157.358 173.683 159.248 173.052 159.404C172.321 159.546 172.368 160.805 171.65 161.481C171.013 163.022 170.09 163.331 169.919 162.48C169.749 161.629 170.835 160.962 170.835 160.962Z" fill="#FD6A4E"/>
<path d="M171.75 159.979C169.644 163.038 169.674 167.072 171.345 168.069C172.677 168.887 174.948 169.528 176.806 169.335C178.541 169.148 180.108 168.131 181.241 166.476C183.587 163.051 183.362 158.819 180.741 157.026C178.12 155.233 173.798 156.02 171.75 159.979Z" fill="#FFA88F"/>
<path d="M178.527 155.055C179.089 154.952 180.009 154.914 180.666 155.578C181.907 155.527 182.311 155.952 183.276 157.367C184.177 158.083 184.417 158.976 183.838 159.84C184.4 160.402 184.996 162.088 184.026 162.941C184.483 163.598 184.47 164.944 182.954 166.169C182.336 168.031 180.944 167.4 180.944 167.4C181.359 168.042 181.06 170.135 179.445 169.427C178.444 168.987 178.133 168.039 178.695 167.16C178.656 166.515 179.257 165.744 179.921 165.502C179.529 165.161 179.844 163.831 180.589 162.856C180.145 161.528 181.41 161.02 181.41 161.02C181.41 161.02 180.485 160.123 180.826 159.096C179.825 158.3 180.696 157.198 180.696 157.198C180.181 157.446 179.864 156.782 178.931 156.923C178.687 156.949 178.44 156.911 178.215 156.813C177.99 156.714 177.794 156.558 177.648 156.361C177.146 155.72 177.7 155.227 178.527 155.055Z" fill="#FD6A4E"/>
<path d="M180.089 163.984C181.026 163.797 181.721 164.616 181.163 165.436C180.49 166.426 179.077 166.221 179.077 166.221C178.334 165.811 179.257 163.546 180.089 163.984Z" fill="#FFA88F"/>
<path d="M177.535 180.788C177.535 180.788 167.605 181.985 164.623 181.367C162.749 180.981 154.153 169.611 154.153 169.611L155.689 168.258L165.329 175.767L177.016 173.408C182.032 173.275 183.343 180.086 177.535 180.788Z" fill="#FFA88F"/>
<path d="M175.883 181.549C175.883 181.549 177.232 179.273 176.728 177.053C176.224 174.832 174.736 173.868 174.736 173.868C176.329 172.601 177.921 171.301 179.641 170.606C179.641 170.606 182.69 172.283 183.447 174.649C184.934 179.301 175.883 181.549 175.883 181.549Z" fill="#7D6CD9"/>
<path d="M175.184 180.998C175.189 181.133 175.228 181.264 175.296 181.38C175.364 181.496 175.459 181.593 175.574 181.663C175.948 181.875 176.439 181.663 176.439 181.663C176.439 181.663 178.157 180.294 177.769 177.317C177.382 174.34 175.521 173.436 175.115 173.397C174.708 173.358 173.99 173.772 174.067 174.008C174.067 174.008 175.753 174.669 176.128 177.234C176.503 179.799 175.456 180.976 175.184 180.998Z" fill="#6D5EBD"/>
<path d="M155.697 168.258C155.697 168.258 155.289 166.679 153.647 165.165C153.576 165.161 153.505 165.176 153.441 165.207C153.376 165.239 153.321 165.286 153.281 165.345C153.24 165.404 153.215 165.472 153.208 165.543C153.201 165.614 153.212 165.686 153.241 165.751C153.345 166.117 153.496 166.468 153.69 166.795C153.69 166.795 149.115 165.069 149.031 165.296C148.946 165.523 151.481 166.887 151.466 167.044C151.451 167.201 148.765 165.888 148.686 166.163C148.607 166.439 150.902 167.739 150.904 167.883C150.906 168.028 148.68 166.772 148.547 166.969C148.414 167.166 149.696 168.281 150.704 168.828C150.606 169.242 149.109 169.124 149.057 169.277C149.005 169.431 151.573 170.175 154.49 170.046C157.408 169.916 155.697 168.258 155.697 168.258Z" fill="#FFA88F"/>
<defs>
<linearGradient id="paint0_linear_9_42839" x1="150.558" y1="71.3644" x2="154.592" y2="109.465" gradientUnits="userSpaceOnUse">
<stop stop-color="white"/>
<stop offset="0.17" stop-color="#F0EEFF"/>
<stop offset="0.49" stop-color="#C9C2FF"/>
<stop offset="0.95" stop-color="#8B7BFF"/>
<stop offset="1" stop-color="#8473FF"/>
</linearGradient>
<linearGradient id="paint1_linear_9_42839" x1="158.472" y1="45.5353" x2="171.84" y2="109.778" gradientUnits="userSpaceOnUse">
<stop offset="0.55" stop-color="#CBBDFF"/>
<stop offset="0.75" stop-color="#9E8FE0"/>
<stop offset="1" stop-color="#6C5BBD"/>
</linearGradient>
<linearGradient id="paint2_linear_9_42839" x1="151.023" y1="72.9493" x2="189.449" y2="105.281" gradientUnits="userSpaceOnUse">
<stop offset="0.53" stop-color="#D9D1FF"/>
<stop offset="1" stop-color="#AD9DFF"/>
</linearGradient>
<linearGradient id="paint3_linear_9_42839" x1="147.244" y1="65.2729" x2="152.572" y2="115.61" gradientUnits="userSpaceOnUse">
<stop stop-color="white"/>
<stop offset="0.28" stop-color="#F0EEFF"/>
<stop offset="0.82" stop-color="#C9C2FF"/>
<stop offset="0.99" stop-color="#BCB3FF"/>
</linearGradient>
<linearGradient id="paint4_linear_9_42839" x1="194" y1="63.3133" x2="158.017" y2="115.391" gradientUnits="userSpaceOnUse">
<stop offset="0.53" stop-color="#D9D1FF"/>
<stop offset="1" stop-color="#AD9DFF"/>
</linearGradient>
<linearGradient id="paint5_linear_9_42839" x1="43877.1" y1="11574.6" x2="44059.5" y2="8533.77" gradientUnits="userSpaceOnUse">
<stop offset="0.53" stop-color="#D9D1FF"/>
<stop offset="1" stop-color="#AD9DFF"/>
</linearGradient>
<linearGradient id="paint6_linear_9_42839" x1="204.942" y1="116.752" x2="170.465" y2="95.8806" gradientUnits="userSpaceOnUse">
<stop offset="0.09" stop-color="#D9D1FF"/>
<stop offset="0.65" stop-color="#AD9DFF"/>
<stop offset="0.73" stop-color="#B0A0FF"/>
<stop offset="0.8" stop-color="#B8AAFF"/>
<stop offset="0.86" stop-color="#C6BBFF"/>
<stop offset="0.91" stop-color="#DAD3FF"/>
<stop offset="0.97" stop-color="#F4F2FF"/>
<stop offset="0.99" stop-color="white"/>
</linearGradient>
<linearGradient id="paint7_linear_9_42839" x1="6120.17" y1="9881.73" x2="7107.85" y2="15270.3" gradientUnits="userSpaceOnUse">
<stop stop-color="white"/>
<stop offset="0.17" stop-color="#F0EEFF"/>
<stop offset="0.49" stop-color="#C9C2FF"/>
<stop offset="0.95" stop-color="#8B7BFF"/>
<stop offset="1" stop-color="#8473FF"/>
</linearGradient>
<linearGradient id="paint8_linear_9_42839" x1="6805.56" y1="6164.2" x2="9906.31" y2="14760.9" gradientUnits="userSpaceOnUse">
<stop offset="0.55" stop-color="#CBBDFF"/>
<stop offset="0.75" stop-color="#9E8FE0"/>
<stop offset="1" stop-color="#6C5BBD"/>
</linearGradient>
<linearGradient id="paint9_linear_9_42839" x1="12273.8" y1="6774.53" x2="15794.1" y2="11887.5" gradientUnits="userSpaceOnUse">
<stop offset="0.53" stop-color="#D9D1FF"/>
<stop offset="1" stop-color="#AD9DFF"/>
</linearGradient>
<linearGradient id="paint10_linear_9_42839" x1="7916.34" y1="14272.3" x2="9218.8" y2="21391.7" gradientUnits="userSpaceOnUse">
<stop stop-color="white"/>
<stop offset="0.28" stop-color="#F0EEFF"/>
<stop offset="0.82" stop-color="#C9C2FF"/>
<stop offset="0.99" stop-color="#BCB3FF"/>
</linearGradient>
<linearGradient id="paint11_linear_9_42839" x1="12897.8" y1="11524.1" x2="5647.45" y2="17572.8" gradientUnits="userSpaceOnUse">
<stop offset="0.53" stop-color="#D9D1FF"/>
<stop offset="1" stop-color="#AD9DFF"/>
</linearGradient>
<linearGradient id="paint12_linear_9_42839" x1="18103.8" y1="11118.8" x2="18286.2" y2="8077.91" gradientUnits="userSpaceOnUse">
<stop offset="0.53" stop-color="#D9D1FF"/>
<stop offset="1" stop-color="#AD9DFF"/>
</linearGradient>
<linearGradient id="paint13_linear_9_42839" x1="-101901" y1="135248" x2="-101901" y2="139549" gradientUnits="userSpaceOnUse">
<stop offset="0.09" stop-color="#D9D1FF"/>
<stop offset="0.65" stop-color="#AD9DFF"/>
<stop offset="0.73" stop-color="#B0A0FF"/>
<stop offset="0.8" stop-color="#B8AAFF"/>
<stop offset="0.86" stop-color="#C6BBFF"/>
<stop offset="0.91" stop-color="#DAD3FF"/>
<stop offset="0.97" stop-color="#F4F2FF"/>
<stop offset="0.99" stop-color="white"/>
</linearGradient>
<linearGradient id="paint14_linear_9_42839" x1="2606" y1="-198398" x2="2717.5" y2="-206589" gradientUnits="userSpaceOnUse">
<stop offset="0.09" stop-color="#D9D1FF"/>
<stop offset="0.65" stop-color="#AD9DFF"/>
<stop offset="0.73" stop-color="#B0A0FF"/>
<stop offset="0.8" stop-color="#B8AAFF"/>
<stop offset="0.86" stop-color="#C6BBFF"/>
<stop offset="0.91" stop-color="#DAD3FF"/>
<stop offset="0.97" stop-color="#F4F2FF"/>
<stop offset="0.99" stop-color="white"/>
</linearGradient>
<linearGradient id="paint15_linear_9_42839" x1="10726.4" y1="5458.26" x2="11713.5" y2="10847" gradientUnits="userSpaceOnUse">
<stop stop-color="white"/>
<stop offset="0.17" stop-color="#F0EEFF"/>
<stop offset="0.49" stop-color="#C9C2FF"/>
<stop offset="0.95" stop-color="#8B7BFF"/>
<stop offset="1" stop-color="#8473FF"/>
</linearGradient>
<linearGradient id="paint16_linear_9_42839" x1="11416.5" y1="1728.88" x2="14517.3" y2="10325.5" gradientUnits="userSpaceOnUse">
<stop offset="0.55" stop-color="#CBBDFF"/>
<stop offset="0.75" stop-color="#9E8FE0"/>
<stop offset="1" stop-color="#6C5BBD"/>
</linearGradient>
<linearGradient id="paint17_linear_9_42839" x1="21417.8" y1="3807.92" x2="24938" y2="8920.9" gradientUnits="userSpaceOnUse">
<stop offset="0.53" stop-color="#D9D1FF"/>
<stop offset="1" stop-color="#AD9DFF"/>
</linearGradient>
<linearGradient id="paint18_linear_9_42839" x1="13768.9" y1="6029.61" x2="15492.3" y2="15434.9" gradientUnits="userSpaceOnUse">
<stop stop-color="white"/>
<stop offset="0.28" stop-color="#F0EEFF"/>
<stop offset="0.82" stop-color="#C9C2FF"/>
<stop offset="0.99" stop-color="#BCB3FF"/>
</linearGradient>
<linearGradient id="paint19_linear_9_42839" x1="18972" y1="5672.31" x2="11721.6" y2="11721.7" gradientUnits="userSpaceOnUse">
<stop offset="0.53" stop-color="#D9D1FF"/>
<stop offset="1" stop-color="#AD9DFF"/>
</linearGradient>
<linearGradient id="paint20_linear_9_42839" x1="30162.9" y1="7210.71" x2="30345.5" y2="4169.81" gradientUnits="userSpaceOnUse">
<stop offset="0.53" stop-color="#D9D1FF"/>
<stop offset="1" stop-color="#AD9DFF"/>
</linearGradient>
<linearGradient id="paint21_linear_9_42839" x1="2964.76" y1="-205107" x2="3076.27" y2="-213297" gradientUnits="userSpaceOnUse">
<stop offset="0.09" stop-color="#D9D1FF"/>
<stop offset="0.65" stop-color="#AD9DFF"/>
<stop offset="0.73" stop-color="#B0A0FF"/>
<stop offset="0.8" stop-color="#B8AAFF"/>
<stop offset="0.86" stop-color="#C6BBFF"/>
<stop offset="0.91" stop-color="#DAD3FF"/>
<stop offset="0.97" stop-color="#F4F2FF"/>
<stop offset="0.99" stop-color="white"/>
</linearGradient>
<linearGradient id="paint22_linear_9_42839" x1="15944.3" y1="747.625" x2="16931.5" y2="6136.34" gradientUnits="userSpaceOnUse">
<stop stop-color="white"/>
<stop offset="0.17" stop-color="#F0EEFF"/>
<stop offset="0.49" stop-color="#C9C2FF"/>
<stop offset="0.95" stop-color="#8B7BFF"/>
<stop offset="1" stop-color="#8473FF"/>
</linearGradient>
<linearGradient id="paint23_linear_9_42839" x1="16640.6" y1="-2994.37" x2="19741.4" y2="5602.29" gradientUnits="userSpaceOnUse">
<stop offset="0.55" stop-color="#CBBDFF"/>
<stop offset="0.75" stop-color="#9E8FE0"/>
<stop offset="1" stop-color="#6C5BBD"/>
</linearGradient>
<linearGradient id="paint24_linear_9_42839" x1="31777.7" y1="648.73" x2="35298" y2="5761.71" gradientUnits="userSpaceOnUse">
<stop offset="0.53" stop-color="#D9D1FF"/>
<stop offset="1" stop-color="#AD9DFF"/>
</linearGradient>
<linearGradient id="paint25_linear_9_42839" x1="20640.3" y1="-183.275" x2="22363.7" y2="9221.98" gradientUnits="userSpaceOnUse">
<stop stop-color="white"/>
<stop offset="0.28" stop-color="#F0EEFF"/>
<stop offset="0.82" stop-color="#C9C2FF"/>
<stop offset="0.99" stop-color="#BCB3FF"/>
</linearGradient>
<linearGradient id="paint26_linear_9_42839" x1="25850.4" y1="-559.345" x2="18600.1" y2="5489.36" gradientUnits="userSpaceOnUse">
<stop offset="0.53" stop-color="#D9D1FF"/>
<stop offset="1" stop-color="#AD9DFF"/>
</linearGradient>
<linearGradient id="paint27_linear_9_42839" x1="44022.3" y1="3090.29" x2="44208.9" y2="-5.81559" gradientUnits="userSpaceOnUse">
<stop offset="0.53" stop-color="#D9D1FF"/>
<stop offset="1" stop-color="#AD9DFF"/>
</linearGradient>
<linearGradient id="paint28_linear_9_42839" x1="19094.5" y1="14786.3" x2="19976.3" y2="19600.4" gradientUnits="userSpaceOnUse">
<stop stop-color="white"/>
<stop offset="0.17" stop-color="#F0EEFF"/>
<stop offset="0.49" stop-color="#C9C2FF"/>
<stop offset="0.95" stop-color="#8B7BFF"/>
<stop offset="1" stop-color="#8473FF"/>
</linearGradient>
<linearGradient id="paint29_linear_9_42839" x1="19724.4" y1="11482" x2="22495" y2="19162.3" gradientUnits="userSpaceOnUse">
<stop offset="0.55" stop-color="#CBBDFF"/>
<stop offset="0.75" stop-color="#9E8FE0"/>
<stop offset="1" stop-color="#6C5BBD"/>
</linearGradient>
<linearGradient id="paint30_linear_9_42839" x1="38012.5" y1="10049.6" x2="41157.1" y2="14617.5" gradientUnits="userSpaceOnUse">
<stop offset="0.53" stop-color="#D9D1FF"/>
<stop offset="1" stop-color="#AD9DFF"/>
</linearGradient>
<linearGradient id="paint31_linear_9_42839" x1="24825.7" y1="18456.2" x2="26365.8" y2="26859.5" gradientUnits="userSpaceOnUse">
<stop stop-color="white"/>
<stop offset="0.28" stop-color="#F0EEFF"/>
<stop offset="0.82" stop-color="#C9C2FF"/>
<stop offset="0.99" stop-color="#BCB3FF"/>
</linearGradient>
<linearGradient id="paint32_linear_9_42839" x1="28675.5" y1="21099.1" x2="24380.1" y2="24682.3" gradientUnits="userSpaceOnUse">
<stop offset="0.53" stop-color="#D9D1FF"/>
<stop offset="1" stop-color="#AD9DFF"/>
</linearGradient>
<linearGradient id="paint33_linear_9_42839" x1="51645" y1="16302.5" x2="51907.5" y2="11926.6" gradientUnits="userSpaceOnUse">
<stop offset="0.53" stop-color="#D9D1FF"/>
<stop offset="1" stop-color="#AD9DFF"/>
</linearGradient>
<linearGradient id="paint34_linear_9_42839" x1="10649.9" y1="14610.7" x2="11636.9" y2="19999.1" gradientUnits="userSpaceOnUse">
<stop stop-color="white"/>
<stop offset="0.17" stop-color="#F0EEFF"/>
<stop offset="0.49" stop-color="#C9C2FF"/>
<stop offset="0.95" stop-color="#8B7BFF"/>
<stop offset="1" stop-color="#8473FF"/>
</linearGradient>
<linearGradient id="paint35_linear_9_42839" x1="11339.9" y1="10906.1" x2="14440.3" y2="19502" gradientUnits="userSpaceOnUse">
<stop offset="0.55" stop-color="#CBBDFF"/>
<stop offset="0.75" stop-color="#9E8FE0"/>
<stop offset="1" stop-color="#6C5BBD"/>
</linearGradient>
<linearGradient id="paint36_linear_9_42839" x1="21266" y1="9945.68" x2="24785.8" y2="15058.3" gradientUnits="userSpaceOnUse">
<stop offset="0.53" stop-color="#D9D1FF"/>
<stop offset="1" stop-color="#AD9DFF"/>
</linearGradient>
<linearGradient id="paint37_linear_9_42839" x1="13668.2" y1="18101.8" x2="15391.5" y2="27507.4" gradientUnits="userSpaceOnUse">
<stop stop-color="white"/>
<stop offset="0.28" stop-color="#F0EEFF"/>
<stop offset="0.82" stop-color="#C9C2FF"/>
<stop offset="0.99" stop-color="#BCB3FF"/>
</linearGradient>
<linearGradient id="paint38_linear_9_42839" x1="18867.6" y1="17781" x2="11617.4" y2="23829.5" gradientUnits="userSpaceOnUse">
<stop offset="0.53" stop-color="#D9D1FF"/>
<stop offset="1" stop-color="#AD9DFF"/>
</linearGradient>
<linearGradient id="paint39_linear_9_42839" x1="29962.7" y1="15298.6" x2="30145.2" y2="12257.7" gradientUnits="userSpaceOnUse">
<stop offset="0.53" stop-color="#D9D1FF"/>
<stop offset="1" stop-color="#AD9DFF"/>
</linearGradient>
<linearGradient id="paint40_linear_9_42839" x1="-101746" y1="128683" x2="-101746" y2="132984" gradientUnits="userSpaceOnUse">
<stop offset="0.09" stop-color="#D9D1FF"/>
<stop offset="0.65" stop-color="#AD9DFF"/>
<stop offset="0.73" stop-color="#B0A0FF"/>
<stop offset="0.8" stop-color="#B8AAFF"/>
<stop offset="0.86" stop-color="#C6BBFF"/>
<stop offset="0.91" stop-color="#DAD3FF"/>
<stop offset="0.97" stop-color="#F4F2FF"/>
<stop offset="0.99" stop-color="white"/>
</linearGradient>
<linearGradient id="paint41_linear_9_42839" x1="885.267" y1="-43763.6" x2="4551.32" y2="-46006.4" gradientUnits="userSpaceOnUse">
<stop offset="0.09" stop-color="#D9D1FF"/>
<stop offset="0.65" stop-color="#AD9DFF"/>
<stop offset="0.73" stop-color="#B0A0FF"/>
<stop offset="0.8" stop-color="#B8AAFF"/>
<stop offset="0.86" stop-color="#C6BBFF"/>
<stop offset="0.91" stop-color="#DAD3FF"/>
<stop offset="0.97" stop-color="#F4F2FF"/>
<stop offset="0.99" stop-color="white"/>
</linearGradient>
<linearGradient id="paint42_linear_9_42839" x1="6238.43" y1="18768.5" x2="7225.97" y2="24156.8" gradientUnits="userSpaceOnUse">
<stop stop-color="white"/>
<stop offset="0.17" stop-color="#F0EEFF"/>
<stop offset="0.49" stop-color="#C9C2FF"/>
<stop offset="0.95" stop-color="#8B7BFF"/>
<stop offset="1" stop-color="#8473FF"/>
</linearGradient>
<linearGradient id="paint43_linear_9_42839" x1="6923.97" y1="15076.1" x2="10025.1" y2="23672.3" gradientUnits="userSpaceOnUse">
<stop offset="0.55" stop-color="#CBBDFF"/>
<stop offset="0.75" stop-color="#9E8FE0"/>
<stop offset="1" stop-color="#6C5BBD"/>
</linearGradient>
<linearGradient id="paint44_linear_9_42839" x1="12508.7" y1="12734" x2="16028.5" y2="17846.7" gradientUnits="userSpaceOnUse">
<stop offset="0.53" stop-color="#D9D1FF"/>
<stop offset="1" stop-color="#AD9DFF"/>
</linearGradient>
<linearGradient id="paint45_linear_9_42839" x1="7859.72" y1="23586" x2="9583.68" y2="32991.4" gradientUnits="userSpaceOnUse">
<stop stop-color="white"/>
<stop offset="0.28" stop-color="#F0EEFF"/>
<stop offset="0.82" stop-color="#C9C2FF"/>
<stop offset="0.99" stop-color="#BCB3FF"/>
</linearGradient>
<linearGradient id="paint46_linear_9_42839" x1="13053.7" y1="23282.9" x2="5803.13" y2="29332.1" gradientUnits="userSpaceOnUse">
<stop offset="0.53" stop-color="#D9D1FF"/>
<stop offset="1" stop-color="#AD9DFF"/>
</linearGradient>
<linearGradient id="paint47_linear_9_42839" x1="18192.7" y1="20207.2" x2="18486.6" y2="15309.4" gradientUnits="userSpaceOnUse">
<stop offset="0.53" stop-color="#D9D1FF"/>
<stop offset="1" stop-color="#AD9DFF"/>
</linearGradient>
<linearGradient id="paint48_linear_9_42839" x1="50354.9" y1="-70348.9" x2="57842.5" y2="-74566" gradientUnits="userSpaceOnUse">
<stop offset="0.09" stop-color="#D9D1FF"/>
<stop offset="0.65" stop-color="#AD9DFF"/>
<stop offset="0.73" stop-color="#B0A0FF"/>
<stop offset="0.8" stop-color="#B8AAFF"/>
<stop offset="0.86" stop-color="#C6BBFF"/>
<stop offset="0.91" stop-color="#DAD3FF"/>
<stop offset="0.97" stop-color="#F4F2FF"/>
<stop offset="0.99" stop-color="white"/>
</linearGradient>
<linearGradient id="paint49_linear_9_42839" x1="14339.6" y1="19455.8" x2="15280.1" y2="24587.7" gradientUnits="userSpaceOnUse">
<stop stop-color="white"/>
<stop offset="0.17" stop-color="#F0EEFF"/>
<stop offset="0.49" stop-color="#C9C2FF"/>
<stop offset="0.95" stop-color="#8B7BFF"/>
<stop offset="1" stop-color="#8473FF"/>
</linearGradient>
<linearGradient id="paint50_linear_9_42839" x1="15004.3" y1="15943.4" x2="17957.7" y2="24130.9" gradientUnits="userSpaceOnUse">
<stop offset="0.55" stop-color="#CBBDFF"/>
<stop offset="0.75" stop-color="#9E8FE0"/>
<stop offset="1" stop-color="#6C5BBD"/>
</linearGradient>
<linearGradient id="paint51_linear_9_42839" x1="28586.5" y1="13189.8" x2="31939" y2="18059" gradientUnits="userSpaceOnUse">
<stop offset="0.53" stop-color="#D9D1FF"/>
<stop offset="1" stop-color="#AD9DFF"/>
</linearGradient>
<linearGradient id="paint52_linear_9_42839" x1="18546.4" y1="24546.9" x2="20188" y2="33504.6" gradientUnits="userSpaceOnUse">
<stop stop-color="white"/>
<stop offset="0.28" stop-color="#F0EEFF"/>
<stop offset="0.82" stop-color="#C9C2FF"/>
<stop offset="0.99" stop-color="#BCB3FF"/>
</linearGradient>
<linearGradient id="paint53_linear_9_42839" x1="23506.3" y1="24263.9" x2="16601.1" y2="30025.1" gradientUnits="userSpaceOnUse">
<stop offset="0.53" stop-color="#D9D1FF"/>
<stop offset="1" stop-color="#AD9DFF"/>
</linearGradient>
<linearGradient id="paint54_linear_9_42839" x1="39706.1" y1="19657.1" x2="39883.9" y2="16707.2" gradientUnits="userSpaceOnUse">
<stop offset="0.53" stop-color="#D9D1FF"/>
<stop offset="1" stop-color="#AD9DFF"/>
</linearGradient>
</defs>
</svg>
