<svg width="16" height="14" viewBox="0 0 16 14" fill="none" xmlns="http://www.w3.org/2000/svg">
<path fill-rule="evenodd" clip-rule="evenodd" d="M8.14213 0.695596C8.2303 0.607205 8.33504 0.537076 8.45035 0.489227C8.56566 0.441377 8.68928 0.416748 8.81413 0.416748C8.93897 0.416748 9.06259 0.441377 9.1779 0.489227C9.29322 0.537076 9.39796 0.607205 9.48612 0.695596L15.181 6.39049C15.2694 6.47866 15.3395 6.5834 15.3874 6.69871C15.4352 6.81402 15.4599 6.93764 15.4599 7.06249C15.4599 7.18734 15.4352 7.31095 15.3874 7.42627C15.3395 7.54158 15.2694 7.64632 15.181 7.73449L9.48612 13.4294C9.3079 13.6076 9.06617 13.7077 8.81413 13.7077C8.56208 13.7077 8.32035 13.6076 8.14213 13.4294C7.9639 13.2512 7.86378 13.0094 7.86378 12.7574C7.86378 12.5053 7.9639 12.2636 8.14213 12.0854L13.1669 7.06249L8.14213 2.03959C8.05374 1.95142 7.98361 1.84668 7.93576 1.73137C7.88791 1.61606 7.86328 1.49244 7.86328 1.36759C7.86328 1.24275 7.88791 1.11913 7.93576 1.00382C7.98361 0.888503 8.05374 0.783764 8.14213 0.695596Z" fill="#404852"/>
<path fill-rule="evenodd" clip-rule="evenodd" d="M0.269531 7.06267C0.269531 6.81094 0.369531 6.56952 0.547531 6.39152C0.725531 6.21352 0.966951 6.11353 1.21868 6.11353H13.5576C13.8094 6.11353 14.0508 6.21352 14.2288 6.39152C14.4068 6.56952 14.5068 6.81094 14.5068 7.06267C14.5068 7.3144 14.4068 7.55583 14.2288 7.73383C14.0508 7.91183 13.8094 8.01182 13.5576 8.01182H1.21868C0.966951 8.01182 0.725531 7.91183 0.547531 7.73383C0.369531 7.55583 0.269531 7.3144 0.269531 7.06267Z" fill="#404852"/>
</svg>
