<svg width="103" height="112" viewBox="0 0 103 112" fill="none" xmlns="http://www.w3.org/2000/svg">
<g filter="url(#filter0_d_1_249)">
<circle cx="47" cy="36" r="31" fill="url(#paint0_linear_1_249)"/>
<circle cx="47" cy="36" r="29.5" stroke="url(#paint1_linear_1_249)" stroke-opacity="0.9" stroke-width="3"/>
</g>
<path d="M47.2619 54C47.1922 54 47.1226 53.9875 47.0561 53.9623C46.8845 53.8972 42.8105 52.313 38.7731 47.3588C35.0757 42.8212 30.728 34.4665 31.0133 20.4319C31.0174 20.2336 31.1222 20.0513 31.2912 19.9479C31.4601 19.8446 31.6706 19.8347 31.8486 19.9218L33.2116 20.5878C36.1383 22.0182 39.5881 21.6788 42.2145 19.7023C45.2309 17.4329 49.284 17.4327 52.3003 19.7009C54.932 21.6802 58.3804 22.0193 61.3058 20.5904L62.675 19.9215C62.8535 19.8344 63.064 19.8443 63.2335 19.9482C63.4031 20.0522 63.5073 20.2353 63.5105 20.4339C63.5175 20.8833 63.514 21.8492 63.5128 21.8896C63.3926 34.2979 59.071 42.3413 55.4665 46.9024C51.5435 51.8665 47.6866 53.8546 47.5244 53.9367C47.4422 53.9791 47.3522 54 47.2619 54ZM33.1621 22.3676C33.0846 35.4543 37.1531 42.2803 40.6255 46.5659C43.9264 50.6399 46.3158 51.3606 47.23 51.774C48.1088 51.2706 50.3609 50.2416 53.5947 46.1328C57.0691 41.7186 61.2351 34.9257 61.3518 22.8684C61.3521 22.8419 61.353 22.632 61.3533 22.3711L60.8156 22.6338C57.4953 24.2549 54.5851 23.8717 51.6088 21.6337C49.0035 19.674 45.5113 19.6749 42.9127 21.6302C39.9353 23.8702 37.0224 24.2537 33.7018 22.6309L33.1621 22.3676Z" fill="white"/>
<path d="M47.0695 41L42 37.2642L43.0588 35.8592L46.6524 38.5094L52.5561 30L54 30.9898L47.0695 41Z" fill="white"/>
<defs>
<filter id="filter0_d_1_249" x="-9" y="0" width="112" height="112" filterUnits="userSpaceOnUse" color-interpolation-filters="sRGB">
<feFlood flood-opacity="0" result="BackgroundImageFix"/>
<feColorMatrix in="SourceAlpha" type="matrix" values="0 0 0 0 0 0 0 0 0 0 0 0 0 0 0 0 0 0 127 0" result="hardAlpha"/>
<feOffset dy="20"/>
<feGaussianBlur stdDeviation="12.5"/>
<feComposite in2="hardAlpha" operator="out"/>
<feColorMatrix type="matrix" values="0 0 0 0 0.435294 0 0 0 0 0.458824 0 0 0 0 1 0 0 0 0.2 0"/>
<feBlend mode="normal" in2="BackgroundImageFix" result="effect1_dropShadow_1_249"/>
<feBlend mode="normal" in="SourceGraphic" in2="effect1_dropShadow_1_249" result="shape"/>
</filter>
<linearGradient id="paint0_linear_1_249" x1="31.5" y1="22" x2="84.5" y2="68" gradientUnits="userSpaceOnUse">
<stop stop-color="#6F75FF"/>
<stop offset="1" stop-color="#AEB2FF"/>
</linearGradient>
<linearGradient id="paint1_linear_1_249" x1="16" y1="36" x2="78" y2="36" gradientUnits="userSpaceOnUse">
<stop stop-color="white"/>
<stop offset="0.418914" stop-color="white" stop-opacity="0.8"/>
<stop offset="0.740247" stop-color="white" stop-opacity="0.76"/>
<stop offset="1" stop-color="white" stop-opacity="0.95"/>
</linearGradient>
</defs>
</svg>
