<svg width="23" height="19" viewBox="0 0 23 19" fill="none" xmlns="http://www.w3.org/2000/svg">
<path d="M20.021 5.12409C20.0354 5.31765 20.0354 5.51011 20.0354 5.70257C20.0354 11.5924 15.5525 18.3793 7.35976 18.3793C4.8357 18.3793 2.49082 17.6482 0.517578 16.3784C0.875947 16.4193 1.22104 16.4337 1.59379 16.4337C3.67653 16.4337 5.59336 15.7302 7.12527 14.5302C5.16641 14.4892 3.525 13.2062 2.95869 11.4409C3.2341 11.4818 3.51062 11.5095 3.80041 11.5095C4.1997 11.5095 4.60121 11.4542 4.97396 11.3579C2.93103 10.9443 1.40133 9.15131 1.40133 6.98561V6.93031C1.99529 7.26103 2.68438 7.46786 3.41439 7.49551C2.2143 6.69693 1.42788 5.33092 1.42788 3.78574C1.42788 2.95839 1.64799 2.19963 2.03401 1.53819C4.22735 4.24033 7.52457 6.00674 11.2211 6.2003C11.1525 5.86848 11.1105 5.52449 11.1105 5.17939C11.1105 2.7239 13.097 0.724121 15.5657 0.724121C16.8488 0.724121 18.0068 1.26167 18.8209 2.13105C19.8274 1.93749 20.7919 1.56474 21.648 1.05484C21.3173 2.08902 20.6128 2.95839 19.6892 3.51032C20.5862 3.41299 21.4556 3.16523 22.2542 2.82013C21.648 3.70278 20.8904 4.4892 20.021 5.12409Z" fill="url(#paint0_linear)"/>
<defs>
<linearGradient id="paint0_linear" x1="0.517578" y1="13.0122" x2="22.2542" y2="13.0122" gradientUnits="userSpaceOnUse">
<stop stop-color="#6F75FF"/>
<stop offset="0.505208" stop-color="#999DFF"/>
<stop offset="1" stop-color="#ADB1FF"/>
</linearGradient>
</defs>
</svg>
