<svg width="17" height="19" viewBox="0 0 17 19" fill="none" xmlns="http://www.w3.org/2000/svg">
<path d="M3.92192 6.50586H0.559033C0.326874 6.50586 0.138672 6.69406 0.138672 6.92622V17.8556C0.138672 18.0878 0.326874 18.276 0.559033 18.276H3.92192C4.15408 18.276 4.34228 18.0878 4.34228 17.8556V6.92622C4.34228 6.69406 4.15408 6.50586 3.92192 6.50586Z" fill="url(#paint0_linear)"/>
<path d="M2.22366 4.82422C3.37517 4.82422 4.30866 3.88321 4.30866 2.72241C4.30866 1.56162 3.37517 0.620605 2.22366 0.620605C1.07215 0.620605 0.138672 1.56162 0.138672 2.72241C0.138672 3.88321 1.07215 4.82422 2.22366 4.82422Z" fill="url(#paint1_linear)"/>
<path d="M14.0123 18.2758H16.5344C16.6459 18.2758 16.7528 18.2316 16.8317 18.1527C16.9105 18.0739 16.9548 17.967 16.9548 17.8555V10.7934C16.9548 7.6239 15.164 6.08537 12.6587 6.08537C12.1645 6.0673 11.6721 6.15297 11.213 6.33688C10.754 6.52078 10.3386 6.79882 9.9936 7.15309C9.94752 7.20633 9.88625 7.24417 9.81801 7.26155C9.74978 7.27892 9.67787 7.27498 9.61194 7.25025C9.54602 7.22553 9.48924 7.18121 9.44926 7.12326C9.40927 7.06531 9.38799 6.9965 9.38828 6.9261C9.38828 6.81461 9.34399 6.70769 9.26516 6.62885C9.18633 6.55002 9.07941 6.50573 8.96792 6.50573H6.44575C6.33427 6.50573 6.22734 6.55002 6.14851 6.62885C6.06968 6.70769 6.02539 6.81461 6.02539 6.9261V17.8555C6.02539 17.967 6.06968 18.0739 6.14851 18.1527C6.22734 18.2316 6.33427 18.2758 6.44575 18.2758H8.96792C9.07941 18.2758 9.18633 18.2316 9.26516 18.1527C9.34399 18.0739 9.38828 17.967 9.38828 17.8555V11.5501C9.38828 10.9926 9.60972 10.458 10.0039 10.0639C10.3981 9.6697 10.9327 9.44826 11.4901 9.44826C12.0475 9.44826 12.5821 9.6697 12.9763 10.0639C13.3705 10.458 13.5919 10.9926 13.5919 11.5501V17.8555C13.5919 17.967 13.6362 18.0739 13.715 18.1527C13.7938 18.2316 13.9008 18.2758 14.0123 18.2758Z" fill="url(#paint2_linear)"/>
<defs>
<linearGradient id="paint0_linear" x1="0.138672" y1="14.6979" x2="4.34228" y2="14.6979" gradientUnits="userSpaceOnUse">
<stop stop-color="#6F75FF"/>
<stop offset="0.505208" stop-color="#999DFF"/>
<stop offset="1" stop-color="#ADB1FF"/>
</linearGradient>
<linearGradient id="paint1_linear" x1="0.138672" y1="3.54634" x2="4.30866" y2="3.54634" gradientUnits="userSpaceOnUse">
<stop stop-color="#6F75FF"/>
<stop offset="0.505208" stop-color="#999DFF"/>
<stop offset="1" stop-color="#ADB1FF"/>
</linearGradient>
<linearGradient id="paint2_linear" x1="6.02539" y1="14.5693" x2="16.9548" y2="14.5693" gradientUnits="userSpaceOnUse">
<stop stop-color="#6F75FF"/>
<stop offset="0.505208" stop-color="#999DFF"/>
<stop offset="1" stop-color="#ADB1FF"/>
</linearGradient>
</defs>
</svg>
