<svg width="103" height="112" viewBox="0 0 103 112" fill="none" xmlns="http://www.w3.org/2000/svg">
<g filter="url(#filter0_d_1_215)">
<circle cx="47" cy="36" r="31" fill="url(#paint0_linear_1_215)"/>
<circle cx="47" cy="36" r="29.5" stroke="white" stroke-width="3"/>
</g>
<path d="M34.8266 29.183L47.5 21.866L60.1734 29.183V43.817L47.5 51.134L34.8266 43.817V29.183Z" stroke="white" stroke-width="1.5"/>
<path d="M36.5547 29.9556L57.5325 42.0445" stroke="white" stroke-width="1.5"/>
<circle cx="47.2232" cy="22.1333" r="2.88333" fill="#7A80FF" stroke="white" stroke-width="1.5"/>
<circle cx="35.1333" cy="29.2447" r="2.88333" fill="#7076FF" stroke="white" stroke-width="1.5"/>
<circle cx="59.3111" cy="29.2447" r="2.88333" fill="#979BFE" stroke="white" stroke-width="1.5"/>
<circle cx="35.1333" cy="43.4668" r="2.88333" fill="#868BFE" stroke="white" stroke-width="1.5"/>
<circle cx="59.3111" cy="42.7554" r="2.88333" fill="#A4A8FD" stroke="white" stroke-width="1.5"/>
<path d="M47.2222 24.9111V49.1556M37 42.5L57.5 30.5" stroke="white" stroke-width="1.5"/>
<circle cx="47.2232" cy="36.3555" r="2.88333" fill="#898EFE" stroke="white" stroke-width="1.5"/>
<circle cx="47.2232" cy="49.8667" r="2.88333" fill="#9FA3FD" stroke="white" stroke-width="1.5"/>
<defs>
<filter id="filter0_d_1_215" x="-9" y="0" width="112" height="112" filterUnits="userSpaceOnUse" color-interpolation-filters="sRGB">
<feFlood flood-opacity="0" result="BackgroundImageFix"/>
<feColorMatrix in="SourceAlpha" type="matrix" values="0 0 0 0 0 0 0 0 0 0 0 0 0 0 0 0 0 0 127 0" result="hardAlpha"/>
<feOffset dy="20"/>
<feGaussianBlur stdDeviation="12.5"/>
<feComposite in2="hardAlpha" operator="out"/>
<feColorMatrix type="matrix" values="0 0 0 0 0.435294 0 0 0 0 0.458824 0 0 0 0 1 0 0 0 0.2 0"/>
<feBlend mode="normal" in2="BackgroundImageFix" result="effect1_dropShadow_1_215"/>
<feBlend mode="normal" in="SourceGraphic" in2="effect1_dropShadow_1_215" result="shape"/>
</filter>
<linearGradient id="paint0_linear_1_215" x1="31.5" y1="22" x2="84.5" y2="68" gradientUnits="userSpaceOnUse">
<stop stop-color="#6F75FF"/>
<stop offset="1" stop-color="#AEB2FF"/>
</linearGradient>
</defs>
</svg>
