<svg width="17" height="17" viewBox="0 0 17 17" fill="none" xmlns="http://www.w3.org/2000/svg">
<path d="M16.5 14.3344L13.3844 11.2188C13.2437 11.0781 13.0531 11 12.8531 11H12.3438C13.2063 9.89688 13.7188 8.50937 13.7188 7C13.7188 3.40937 10.8094 0.5 7.21875 0.5C3.62812 0.5 0.71875 3.40937 0.71875 7C0.71875 10.5906 3.62812 13.5 7.21875 13.5C8.72812 13.5 10.1156 12.9875 11.2188 12.125V12.6344C11.2188 12.8344 11.2969 13.025 11.4375 13.1656L14.5531 16.2812C14.8469 16.575 15.3219 16.575 15.6125 16.2812L16.4969 15.3969C16.7906 15.1031 16.7906 14.6281 16.5 14.3344ZM7.21875 11C5.00938 11 3.21875 9.2125 3.21875 7C3.21875 4.79063 5.00625 3 7.21875 3C9.42813 3 11.2188 4.7875 11.2188 7C11.2188 9.20938 9.43125 11 7.21875 11Z" fill="#121212"/>
</svg>
