<svg xmlns="http://www.w3.org/2000/svg" width="18.644" height="18" viewBox="0 0 18.644 18">
  <path id="Icon_awesome-linkedin-in" data-name="Icon awesome-linkedin-in" d="M4.173,18H.308V5.983H4.173ZM2.239,4.344A2.218,2.218,0,0,1,0,2.162,2.2,2.2,0,0,1,2.239,0,2.2,2.2,0,0,1,4.477,2.162,2.219,2.219,0,0,1,2.239,4.344ZM18.64,18H14.783v-5.85c0-1.394-.029-3.182-2.01-3.182-2.01,0-2.318,1.515-2.318,3.082V18H6.595V5.983H10.3V7.622h.054a4.09,4.09,0,0,1,3.657-1.941c3.912,0,4.631,2.487,4.631,5.718V18Z" transform="translate(0 -0.001)" fill="#fff"/>
</svg>
