<svg width="103" height="112" viewBox="0 0 103 112" fill="none" xmlns="http://www.w3.org/2000/svg">
<g filter="url(#filter0_d_1_232)">
<circle cx="47" cy="36" r="31" fill="url(#paint0_linear_1_232)"/>
<circle cx="47" cy="36" r="29.5" stroke="url(#paint1_linear_1_232)" stroke-opacity="0.9" stroke-width="3"/>
</g>
<path d="M46.9993 43.111C49.9398 43.111 52.3327 40.7181 52.3327 37.7777C52.3327 34.8372 49.9398 32.4443 46.9993 32.4443C44.0589 32.4443 41.666 34.8372 41.666 37.7777C41.666 40.7181 44.0589 43.111 46.9993 43.111ZM46.9993 33.6295C49.2868 33.6295 51.1475 35.4903 51.1475 37.7777C51.1475 40.0651 49.2868 41.9258 46.9993 41.9258C44.7119 41.9258 42.8512 40.0651 42.8512 37.7777C42.8512 35.4903 44.7119 33.6295 46.9993 33.6295Z" fill="white"/>
<path d="M47.0001 40.7409C48.6344 40.7409 49.963 39.4111 49.963 37.7779C49.963 36.1447 48.6344 34.8149 47.0001 34.8149C45.3657 34.8149 44.0371 36.1447 44.0371 37.7779C44.0371 39.4111 45.3657 40.7409 47.0001 40.7409ZM47.0001 36.0001C47.9802 36.0001 48.7779 36.7978 48.7779 37.7779C48.7779 38.7581 47.9802 39.5557 47.0001 39.5557C46.0199 39.5557 45.2223 38.7581 45.2223 37.7779C45.2223 36.7978 46.0199 36.0001 47.0001 36.0001Z" fill="white"/>
<path d="M61.2222 48.4444C60.4507 48.4444 59.7988 48.941 59.5535 49.6296H53.3893L52.4957 46.0539C53.6999 45.9532 54.6516 44.9695 54.693 43.7037H57.1831C57.4284 44.3923 58.0803 44.8889 58.8519 44.8889C59.832 44.8889 60.6296 44.0913 60.6296 43.1111C60.6296 42.131 59.832 41.3333 58.8519 41.3333C58.0803 41.3333 57.4284 41.8299 57.1831 42.5185H54.6053L54.3956 40.109L61.6406 32.864C61.752 32.7526 61.8148 32.6021 61.8148 32.4444V28.1873C62.5034 27.9419 63 27.2901 63 26.5185C63 25.5384 62.2024 24.7407 61.2222 24.7407C60.2421 24.7407 59.4444 25.5384 59.4444 26.5185C59.4444 27.2901 59.941 27.9419 60.6296 28.1873V32.1991L54.2616 38.5671L54.0827 36.5191L58.1597 30.4036C58.2249 30.3052 58.2593 30.1914 58.2593 30.0741V23.4465C58.9479 23.2012 59.4444 22.5493 59.4444 21.7778C59.4444 20.7976 58.6468 20 57.6667 20C56.6865 20 55.8889 20.7976 55.8889 21.7778C55.8889 22.5493 56.3855 23.2012 57.0741 23.4465V29.8951L53.9179 34.6299L53.5161 30.0231C53.4901 29.7161 53.2341 29.4815 52.9259 29.4815H52.3333V28.8521C52.3333 25.9319 49.957 23.5556 47.0367 23.5556C44.1164 23.5556 41.7401 25.9319 41.7401 28.8521V29.4815H41.0741C40.7659 29.4815 40.5099 29.7161 40.4839 30.0231L40.0548 34.9594L36.9259 31.0519V23.4465C37.6145 23.2012 38.1111 22.5493 38.1111 21.7778C38.1111 20.7976 37.3135 20 36.3333 20C35.3532 20 34.5556 20.7976 34.5556 21.7778C34.5556 22.5493 35.0521 23.2012 35.7407 23.4465V31.2593C35.7407 31.3944 35.787 31.5247 35.8699 31.6302L39.9043 36.6708L39.7194 38.797L33.3704 33.357V28.1873C34.059 27.9419 34.5556 27.2901 34.5556 26.5185C34.5556 25.5384 33.7579 24.7407 32.7778 24.7407C31.7976 24.7407 31 25.5384 31 26.5185C31 27.2901 31.4966 27.9419 32.1852 28.1873V33.6296C32.1852 33.8027 32.2599 33.9674 32.3926 34.08L39.5938 40.2489L39.3947 42.5399L36.811 42.6477C36.5597 41.9686 35.9126 41.4815 35.1481 41.4815C34.168 41.4815 33.3704 42.2791 33.3704 43.2593C33.3704 44.2394 34.168 45.037 35.1481 45.037C35.9268 45.037 36.5834 44.531 36.8228 43.8317L39.3022 43.7286C39.3342 44.9588 40.2919 45.9532 41.5043 46.0539L40.6107 49.6296H34.4465C34.2012 48.941 33.5493 48.4444 32.7778 48.4444C31.7976 48.4444 31 49.2421 31 50.2222C31 51.2024 31.7976 52 32.7778 52C33.5493 52 34.2012 51.5034 34.4465 50.8148H41.0741C41.3455 50.8148 41.5837 50.6299 41.6489 50.3656L42.7215 46.0741H51.2773L52.3499 50.3656C52.4163 50.6299 52.6545 50.8148 52.9259 50.8148H59.5535C59.7988 51.5034 60.4507 52 61.2222 52C62.2024 52 63 51.2024 63 50.2222C63 49.2421 62.2024 48.4444 61.2222 48.4444ZM61.2222 25.9259C61.5481 25.9259 61.8148 26.1914 61.8148 26.5185C61.8148 26.8456 61.5481 27.1111 61.2222 27.1111C60.8963 27.1111 60.6296 26.8456 60.6296 26.5185C60.6296 26.1914 60.8963 25.9259 61.2222 25.9259ZM57.6667 21.1852C57.9926 21.1852 58.2593 21.4507 58.2593 21.7778C58.2593 22.1049 57.9926 22.3704 57.6667 22.3704C57.3407 22.3704 57.0741 22.1049 57.0741 21.7778C57.0741 21.4507 57.3407 21.1852 57.6667 21.1852ZM36.3333 21.1852C36.6593 21.1852 36.9259 21.4507 36.9259 21.7778C36.9259 22.1049 36.6593 22.3704 36.3333 22.3704C36.0074 22.3704 35.7407 22.1049 35.7407 21.7778C35.7407 21.4507 36.0074 21.1852 36.3333 21.1852ZM32.7778 25.9259C33.1037 25.9259 33.3704 26.1914 33.3704 26.5185C33.3704 26.8456 33.1037 27.1111 32.7778 27.1111C32.4519 27.1111 32.1852 26.8456 32.1852 26.5185C32.1852 26.1914 32.4519 25.9259 32.7778 25.9259ZM32.7778 50.8148C32.4519 50.8148 32.1852 50.5493 32.1852 50.2222C32.1852 49.8951 32.4519 49.6296 32.7778 49.6296C33.1037 49.6296 33.3704 49.8951 33.3704 50.2222C33.3704 50.5493 33.1037 50.8148 32.7778 50.8148ZM58.8519 42.5185C59.1778 42.5185 59.4444 42.784 59.4444 43.1111C59.4444 43.4382 59.1778 43.7037 58.8519 43.7037C58.5259 43.7037 58.2593 43.4382 58.2593 43.1111C58.2593 42.784 58.5259 42.5185 58.8519 42.5185ZM42.9265 28.8521C42.9265 26.5849 44.7707 24.7407 47.0379 24.7407C49.3052 24.7407 51.1481 26.5849 51.1481 28.8521V29.4815H42.9253V28.8521H42.9265ZM35.1481 43.8519C34.8222 43.8519 34.5556 43.5864 34.5556 43.2593C34.5556 42.9321 34.8222 42.6667 35.1481 42.6667C35.4741 42.6667 35.7407 42.9321 35.7407 43.2593C35.7407 43.5864 35.4741 43.8519 35.1481 43.8519ZM40.4791 43.7179L41.1025 36.5618C41.1037 36.5535 41.1037 36.5452 41.1049 36.5369L41.6169 30.6667H42.3327H51.7407H52.3831L52.8904 36.4705C52.8916 36.4764 52.8904 36.4824 52.8916 36.4871L53.1879 39.8791C53.1879 39.8886 53.1902 39.8969 53.1902 39.9064L53.5185 43.667C53.5185 44.3413 52.9698 44.8889 52.2966 44.8889H41.7034C41.0302 44.8889 40.4815 44.3413 40.4791 43.7179ZM61.2222 50.8148C60.8963 50.8148 60.6296 50.5493 60.6296 50.2222C60.6296 49.8951 60.8963 49.6296 61.2222 49.6296C61.5481 49.6296 61.8148 49.8951 61.8148 50.2222C61.8148 50.5493 61.5481 50.8148 61.2222 50.8148Z" fill="white"/>
<defs>
<filter id="filter0_d_1_232" x="-9" y="0" width="112" height="112" filterUnits="userSpaceOnUse" color-interpolation-filters="sRGB">
<feFlood flood-opacity="0" result="BackgroundImageFix"/>
<feColorMatrix in="SourceAlpha" type="matrix" values="0 0 0 0 0 0 0 0 0 0 0 0 0 0 0 0 0 0 127 0" result="hardAlpha"/>
<feOffset dy="20"/>
<feGaussianBlur stdDeviation="12.5"/>
<feComposite in2="hardAlpha" operator="out"/>
<feColorMatrix type="matrix" values="0 0 0 0 0.435294 0 0 0 0 0.458824 0 0 0 0 1 0 0 0 0.2 0"/>
<feBlend mode="normal" in2="BackgroundImageFix" result="effect1_dropShadow_1_232"/>
<feBlend mode="normal" in="SourceGraphic" in2="effect1_dropShadow_1_232" result="shape"/>
</filter>
<linearGradient id="paint0_linear_1_232" x1="31.5" y1="22" x2="84.5" y2="68" gradientUnits="userSpaceOnUse">
<stop stop-color="#6F75FF"/>
<stop offset="1" stop-color="#AEB2FF"/>
</linearGradient>
<linearGradient id="paint1_linear_1_232" x1="16" y1="36" x2="78" y2="36" gradientUnits="userSpaceOnUse">
<stop stop-color="white"/>
<stop offset="0.418914" stop-color="white" stop-opacity="0.8"/>
<stop offset="0.740247" stop-color="white" stop-opacity="0.76"/>
<stop offset="1" stop-color="white" stop-opacity="0.95"/>
</linearGradient>
</defs>
</svg>
