<svg width="103" height="112" viewBox="0 0 103 112" fill="none" xmlns="http://www.w3.org/2000/svg">
<g filter="url(#filter0_d_1_242)">
<circle cx="47" cy="36" r="31" fill="url(#paint0_linear_1_242)"/>
<circle cx="47" cy="36" r="29.5" stroke="url(#paint1_linear_1_242)" stroke-opacity="0.9" stroke-width="3"/>
</g>
<path d="M63.3497 32.345L58.2678 29.4248V25.7461C58.2678 25.4048 57.9644 25.1014 57.6231 25.1014H53.4135V21.8019C53.4135 21.5744 53.2997 21.3469 53.0722 21.2331L47.6869 18.0853C47.4972 17.9716 47.2318 17.9716 47.0421 18.0853L41.6189 21.2331C41.4293 21.3469 41.2776 21.5744 41.2776 21.8019V25.1014H37.0679C36.6887 25.1014 36.4232 25.4048 36.4232 25.7461V29.4248L31.3413 32.345C31.1517 32.4588 31 32.6863 31 32.9139V39.1715C31 39.399 31.1138 39.6265 31.3413 39.7403L36.4232 42.6605V46.3013C36.4232 46.6805 36.7266 46.946 37.0679 46.946H41.2776V50.2455C41.2776 50.473 41.3914 50.7006 41.6189 50.8143L47.0042 53.9241C47.118 54 47.2318 54 47.3455 54C47.4593 54 47.5731 53.9621 47.6869 53.9241L53.0722 50.8143C53.2618 50.7006 53.4135 50.473 53.4135 50.2455V46.946H57.6231C57.9644 46.946 58.2678 46.6426 58.2678 46.3013V42.6605L63.3497 39.7403C63.5394 39.6265 63.6911 39.399 63.6911 39.1715V32.9139C63.6911 32.6863 63.5394 32.4588 63.3497 32.345ZM52.8825 34.0516L56.9784 36.403V41.1435L52.8825 38.7922V34.0516ZM57.6231 35.2652L53.5273 32.9139L57.6231 30.5625L61.719 32.9139L57.6231 35.2652ZM42.605 22.9018L46.7008 25.2531V29.9937L42.605 27.6423V22.9018ZM47.9903 25.291L52.0861 22.9397V27.6803L47.9903 30.0316V25.291ZM47.3455 19.4127L51.4414 21.764L47.3455 24.1533L43.2497 21.8019L47.3455 19.4127ZM37.7127 41.1435V36.403L41.8085 34.0516V38.7922L37.7127 41.1435ZM37.0679 35.2652L32.9721 32.9139L37.0679 30.5625L41.1638 32.9139L37.0679 35.2652ZM32.3274 34.0516L36.4232 36.403V41.1435L32.3274 38.7922V34.0516ZM47.3455 46.3771L43.2497 44.0258L47.3455 41.6745L51.4414 44.0258L47.3455 46.3771ZM42.605 45.1635L46.7008 47.5149V52.2555L42.605 49.9041V45.1635ZM47.9903 52.2555V47.5149L52.0861 45.1635V49.9041L47.9903 52.2555ZM53.4135 45.6566V44.0258C53.4135 43.7983 53.2997 43.5707 53.0722 43.4569L47.6869 40.3471C47.4972 40.2333 47.2318 40.2333 47.0421 40.3471L41.6568 43.4569C41.4672 43.5707 41.3155 43.7983 41.3155 44.0258V45.6566H37.7506V42.6605L42.7946 39.7024C42.9842 39.5886 43.1359 39.3611 43.1359 39.1335V32.9139C43.1359 32.6863 43.0221 32.4588 42.7946 32.345L37.7127 29.4248V26.4288H41.2776V28.0595C41.2776 28.2871 41.3914 28.5146 41.6189 28.6284L47.0042 31.7382C47.118 31.8141 47.2318 31.8141 47.3455 31.8141C47.4593 31.8141 47.5731 31.7761 47.6869 31.7382L53.0722 28.6284C53.2618 28.5146 53.4135 28.2871 53.4135 28.0595V26.4288H56.9784V29.4248L51.8965 32.345C51.7069 32.4588 51.5552 32.6863 51.5552 32.9139V39.1715C51.5552 39.399 51.6689 39.6265 51.8965 39.7403L56.9784 42.6605V45.6566H53.4135ZM58.2678 41.1435V36.403L62.3637 34.0516V38.7922L58.2678 41.1435Z" fill="white"/>
<defs>
<filter id="filter0_d_1_242" x="-9" y="0" width="112" height="112" filterUnits="userSpaceOnUse" color-interpolation-filters="sRGB">
<feFlood flood-opacity="0" result="BackgroundImageFix"/>
<feColorMatrix in="SourceAlpha" type="matrix" values="0 0 0 0 0 0 0 0 0 0 0 0 0 0 0 0 0 0 127 0" result="hardAlpha"/>
<feOffset dy="20"/>
<feGaussianBlur stdDeviation="12.5"/>
<feComposite in2="hardAlpha" operator="out"/>
<feColorMatrix type="matrix" values="0 0 0 0 0.435294 0 0 0 0 0.458824 0 0 0 0 1 0 0 0 0.2 0"/>
<feBlend mode="normal" in2="BackgroundImageFix" result="effect1_dropShadow_1_242"/>
<feBlend mode="normal" in="SourceGraphic" in2="effect1_dropShadow_1_242" result="shape"/>
</filter>
<linearGradient id="paint0_linear_1_242" x1="31.5" y1="22" x2="84.5" y2="68" gradientUnits="userSpaceOnUse">
<stop stop-color="#6F75FF"/>
<stop offset="1" stop-color="#AEB2FF"/>
</linearGradient>
<linearGradient id="paint1_linear_1_242" x1="16" y1="36" x2="78" y2="36" gradientUnits="userSpaceOnUse">
<stop stop-color="white"/>
<stop offset="0.418914" stop-color="white" stop-opacity="0.8"/>
<stop offset="0.740247" stop-color="white" stop-opacity="0.76"/>
<stop offset="1" stop-color="white" stop-opacity="0.95"/>
</linearGradient>
</defs>
</svg>
