<svg width="11" height="10" viewBox="0 0 11 10" fill="none" xmlns="http://www.w3.org/2000/svg">
<path fill-rule="evenodd" clip-rule="evenodd" d="M6.12307 0.788841C6.18113 0.730637 6.2501 0.684459 6.32603 0.652951C6.40196 0.621443 6.48336 0.605225 6.56557 0.605225C6.64778 0.605225 6.72918 0.621443 6.80511 0.652951C6.88104 0.684459 6.95001 0.730637 7.00807 0.788841L10.7581 4.53884C10.8163 4.5969 10.8625 4.66587 10.894 4.7418C10.9255 4.81773 10.9417 4.89913 10.9417 4.98134C10.9417 5.06355 10.9255 5.14495 10.894 5.22088C10.8625 5.29681 10.8163 5.36578 10.7581 5.42384L7.00807 9.17384C6.89071 9.2912 6.73154 9.35713 6.56557 9.35713C6.3996 9.35713 6.24043 9.2912 6.12307 9.17384C6.00571 9.05648 5.93978 8.89731 5.93978 8.73134C5.93978 8.56537 6.00571 8.4062 6.12307 8.28884L9.43182 4.98134L6.12307 1.67384C6.06487 1.61578 6.01869 1.54682 5.98718 1.47088C5.95567 1.39495 5.93945 1.31355 5.93945 1.23134C5.93945 1.14913 5.95567 1.06773 5.98718 0.991799C6.01869 0.915868 6.06487 0.846899 6.12307 0.788841Z" fill="#6F75FF"/>
<path fill-rule="evenodd" clip-rule="evenodd" d="M0.941406 4.98145C0.941406 4.81569 1.00725 4.65671 1.12446 4.5395C1.24167 4.42229 1.40065 4.35645 1.56641 4.35645H9.69141C9.85717 4.35645 10.0161 4.42229 10.1333 4.5395C10.2506 4.65671 10.3164 4.81569 10.3164 4.98145C10.3164 5.14721 10.2506 5.30618 10.1333 5.42339C10.0161 5.5406 9.85717 5.60645 9.69141 5.60645H1.56641C1.40065 5.60645 1.24167 5.5406 1.12446 5.42339C1.00725 5.30618 0.941406 5.14721 0.941406 4.98145Z" fill="#6F75FF"/>
</svg>
