<svg width="57" height="48" viewBox="0 0 57 48" fill="none" xmlns="http://www.w3.org/2000/svg">
<path fill-rule="evenodd" clip-rule="evenodd" d="M26.9878 9.5468L27.3966 11.4658C29.6954 11.6795 31.6816 13.2962 32.178 15.6268L33.4941 21.8054C34.1087 24.6906 32.2149 27.5395 29.2659 28.1677L18.6739 30.4238C15.7236 31.0523 12.8333 29.2225 12.2187 26.3372L10.9026 20.1587C10.4062 17.828 11.5623 15.5419 13.5733 14.4102L13.1645 12.4913C12.3825 8.75757 14.829 5.07724 18.6186 4.27001C22.4592 3.45196 26.1931 5.81582 26.9878 9.5468ZM19.1076 6.44087C21.6892 5.89099 24.2245 7.49608 24.7623 10.0207L25.1136 11.6698L15.7412 13.6662L15.3846 11.9922C14.8622 9.47732 16.5261 6.99076 19.1076 6.44087ZM23.6039 22.1191C23.7337 22.7285 23.3411 23.3192 22.7179 23.4519C22.1075 23.582 21.5083 23.2026 21.3785 22.5932L20.7904 19.8322C20.6632 19.2353 21.0558 18.6446 21.6663 18.5146C22.2894 18.3819 22.8887 18.7613 23.0158 19.3582L23.6039 22.1191Z" fill="url(#paint0_linear_12_806)"/>
<g opacity="0.5" filter="url(#filter0_f_12_806)">
<rect x="14.9905" y="17.6525" width="12.7518" height="8.76291" rx="4.38145" transform="rotate(-12.2596 14.9905 17.6525)" fill="#8237FF"/>
</g>
<g filter="url(#filter1_bd_12_806)">
<path d="M40.8404 20.064L39.433 25.0894C38.9226 24.7796 38.3589 24.5383 37.7577 24.3699L36.7293 24.0819L38.0717 19.2886C38.9513 16.1478 37.0558 12.8638 33.8442 11.9643C30.6325 11.0648 27.3114 12.8712 26.4203 15.9921L25.0692 20.8163L24.0567 20.5328C23.4397 20.36 22.8326 20.2734 22.2312 20.2885L23.643 15.2477C24.9587 10.6105 29.8562 7.92744 34.5708 9.24783C39.3488 10.5859 42.1403 15.4224 40.8404 20.064Z" fill="url(#paint1_linear_12_806)"/>
<path d="M40.6478 20.0101L39.31 24.787C38.8449 24.5299 38.3419 24.3258 37.8116 24.1773L36.9758 23.9432L38.2643 19.3425C39.1748 16.0913 37.2121 12.6998 33.8981 11.7717C30.585 10.8438 27.1506 12.706 26.228 15.9372L26.2277 15.9382L24.9306 20.5698L24.1106 20.3402C23.5683 20.1883 23.0304 20.1005 22.495 20.0883L23.8355 15.3019C25.1204 10.7741 29.9052 8.14888 34.5169 9.44042C39.193 10.75 41.9167 15.4793 40.6478 20.0101Z" stroke="url(#paint2_linear_12_806)" stroke-width="0.4"/>
</g>
<g filter="url(#filter2_b_12_806)">
<mask id="path-5-outside-1_12_806" maskUnits="userSpaceOnUse" x="11.6341" y="14.1178" width="35.3609" height="31.2013" fill="black">
<rect fill="white" x="11.6341" y="14.1178" width="35.3609" height="31.2013"/>
<path d="M38.6219 20.9019L25.4462 17.2119C21.7757 16.1839 17.9847 18.2608 16.9795 21.8503L14.8268 29.5368C13.8215 33.1264 15.9823 36.8701 19.6528 37.8981L32.8286 41.5881C36.499 42.616 40.29 40.5392 41.2953 36.9496L43.448 29.2631C44.4533 25.6736 42.2924 21.9298 38.6219 20.9019Z"/>
</mask>
<path d="M38.6219 20.9019L25.4462 17.2119C21.7757 16.1839 17.9847 18.2608 16.9795 21.8503L14.8268 29.5368C13.8215 33.1264 15.9823 36.8701 19.6528 37.8981L32.8286 41.5881C36.499 42.616 40.29 40.5392 41.2953 36.9496L43.448 29.2631C44.4533 25.6736 42.2924 21.9298 38.6219 20.9019Z" fill="#BA90FF" fill-opacity="0.35"/>
<path d="M25.4462 17.2119L25.7159 16.2489L25.4462 17.2119ZM16.9795 21.8503L16.0165 21.5806L16.9795 21.8503ZM14.8268 29.5368L15.7897 29.8065L14.8268 29.5368ZM19.6528 37.8981L19.3831 38.861L19.6528 37.8981ZM32.8286 41.5881L33.0982 40.6251L32.8286 41.5881ZM38.8916 19.9389C38.3598 19.79 37.8079 20.1004 37.659 20.6322C37.5101 21.164 37.8204 21.7159 38.3523 21.8648L38.8916 19.9389ZM38.8916 19.9389L25.7159 16.2489L25.1765 18.1748L38.3523 21.8648L38.8916 19.9389ZM25.7159 16.2489C21.534 15.0777 17.1764 17.4391 16.0165 21.5806L17.9424 22.12C18.7931 19.0824 22.0175 17.2901 25.1765 18.1748L25.7159 16.2489ZM16.0165 21.5806L13.8638 29.2672L15.7897 29.8065L17.9424 22.12L16.0165 21.5806ZM13.8638 29.2672C12.7039 33.4086 15.2012 37.6898 19.3831 38.861L19.9225 36.9351C16.7635 36.0504 14.939 32.8441 15.7897 29.8065L13.8638 29.2672ZM19.3831 38.861L32.5589 42.551L33.0982 40.6251L19.9225 36.9351L19.3831 38.861ZM32.5589 42.551C36.7408 43.7222 41.0984 41.3608 42.2583 37.2193L40.3324 36.68C39.4816 39.7175 36.2572 41.5098 33.0982 40.6251L32.5589 42.551ZM42.2583 37.2193L44.411 29.5328L42.4851 28.9934L40.3324 36.68L42.2583 37.2193ZM44.411 29.5328C45.5708 25.3913 43.0736 21.1101 38.8916 19.9389L38.3523 21.8648C41.5113 22.7495 43.3358 25.9558 42.4851 28.9934L44.411 29.5328Z" fill="url(#paint3_linear_12_806)" mask="url(#path-5-outside-1_12_806)"/>
</g>
<g filter="url(#filter3_bd_12_806)">
<path d="M30.043 31.4974C29.8307 32.2556 29.0447 32.6862 28.2695 32.4691C27.51 32.2564 27.062 31.4802 27.2743 30.722L28.2363 27.2872C28.4443 26.5446 29.2303 26.114 29.9897 26.3266C30.7649 26.5438 31.213 27.32 31.005 28.0626L30.043 31.4974Z" fill="url(#paint4_linear_12_806)"/>
<path d="M29.8504 31.4435C29.669 32.0912 28.9963 32.4649 28.3234 32.2765C27.6677 32.0929 27.2851 31.4251 27.4669 30.776L28.4289 27.3412C28.606 26.7089 29.2787 26.3352 29.9358 26.5192C30.6102 26.7081 30.9891 27.3778 30.8124 28.0087L29.8504 31.4435Z" stroke="url(#paint5_linear_12_806)" stroke-width="0.4"/>
</g>
<defs>
<filter id="filter0_f_12_806" x="0.820068" y="0.774292" width="42.6626" height="39.6117" filterUnits="userSpaceOnUse" color-interpolation-filters="sRGB">
<feFlood flood-opacity="0" result="BackgroundImageFix"/>
<feBlend mode="normal" in="SourceGraphic" in2="BackgroundImageFix" result="shape"/>
<feGaussianBlur stdDeviation="7.5" result="effect1_foregroundBlur_12_806"/>
</filter>
<filter id="filter1_bd_12_806" x="7.2312" y="-6.08862" width="48.928" height="46.178" filterUnits="userSpaceOnUse" color-interpolation-filters="sRGB">
<feFlood flood-opacity="0" result="BackgroundImageFix"/>
<feGaussianBlur in="BackgroundImage" stdDeviation="7.5"/>
<feComposite in2="SourceAlpha" operator="in" result="effect1_backgroundBlur_12_806"/>
<feColorMatrix in="SourceAlpha" type="matrix" values="0 0 0 0 0 0 0 0 0 0 0 0 0 0 0 0 0 0 127 0" result="hardAlpha"/>
<feOffset dx="5" dy="5"/>
<feGaussianBlur stdDeviation="5"/>
<feColorMatrix type="matrix" values="0 0 0 0 0.577356 0 0 0 0 0.359375 0 0 0 0 0.9375 0 0 0 0.5 0"/>
<feBlend mode="normal" in2="effect1_backgroundBlur_12_806" result="effect2_dropShadow_12_806"/>
<feBlend mode="normal" in="SourceGraphic" in2="effect2_dropShadow_12_806" result="shape"/>
</filter>
<filter id="filter2_b_12_806" x="-10.4204" y="-8.05078" width="79.1157" height="74.9015" filterUnits="userSpaceOnUse" color-interpolation-filters="sRGB">
<feFlood flood-opacity="0" result="BackgroundImageFix"/>
<feGaussianBlur in="BackgroundImage" stdDeviation="12"/>
<feComposite in2="SourceAlpha" operator="in" result="effect1_backgroundBlur_12_806"/>
<feBlend mode="normal" in="SourceGraphic" in2="effect1_backgroundBlur_12_806" result="shape"/>
</filter>
<filter id="filter3_bd_12_806" x="12.2217" y="11.2723" width="33.8342" height="36.2529" filterUnits="userSpaceOnUse" color-interpolation-filters="sRGB">
<feFlood flood-opacity="0" result="BackgroundImageFix"/>
<feGaussianBlur in="BackgroundImage" stdDeviation="7.5"/>
<feComposite in2="SourceAlpha" operator="in" result="effect1_backgroundBlur_12_806"/>
<feColorMatrix in="SourceAlpha" type="matrix" values="0 0 0 0 0 0 0 0 0 0 0 0 0 0 0 0 0 0 127 0" result="hardAlpha"/>
<feOffset dx="5" dy="5"/>
<feGaussianBlur stdDeviation="5"/>
<feColorMatrix type="matrix" values="0 0 0 0 0.577356 0 0 0 0 0.359375 0 0 0 0 0.9375 0 0 0 0.5 0"/>
<feBlend mode="normal" in2="effect1_backgroundBlur_12_806" result="effect2_dropShadow_12_806"/>
<feBlend mode="normal" in="SourceGraphic" in2="effect2_dropShadow_12_806" result="shape"/>
</filter>
<linearGradient id="paint0_linear_12_806" x1="18.6377" y1="4.26595" x2="23.9693" y2="29.2959" gradientUnits="userSpaceOnUse">
<stop stop-color="#BC94FF"/>
<stop offset="1" stop-color="#9F66FF"/>
</linearGradient>
<linearGradient id="paint1_linear_12_806" x1="41.2942" y1="13.7486" x2="21.9272" y2="9.18578" gradientUnits="userSpaceOnUse">
<stop stop-color="white"/>
<stop offset="1" stop-color="white" stop-opacity="0.2"/>
</linearGradient>
<linearGradient id="paint2_linear_12_806" x1="28.2948" y1="9.17903" x2="32.6991" y2="23.9427" gradientUnits="userSpaceOnUse">
<stop stop-color="white" stop-opacity="0.25"/>
<stop offset="1" stop-color="white" stop-opacity="0"/>
</linearGradient>
<linearGradient id="paint3_linear_12_806" x1="22.3382" y1="18.9404" x2="29.1149" y2="41.6615" gradientUnits="userSpaceOnUse">
<stop stop-color="white" stop-opacity="0.25"/>
<stop offset="1" stop-color="white" stop-opacity="0"/>
</linearGradient>
<linearGradient id="paint4_linear_12_806" x1="30.875" y1="27.7708" x2="27.7757" y2="26.9517" gradientUnits="userSpaceOnUse">
<stop stop-color="white"/>
<stop offset="1" stop-color="white" stop-opacity="0.2"/>
</linearGradient>
<linearGradient id="paint5_linear_12_806" x1="28.8536" y1="26.7802" x2="31.7321" y2="29.6405" gradientUnits="userSpaceOnUse">
<stop stop-color="white" stop-opacity="0.25"/>
<stop offset="1" stop-color="white" stop-opacity="0"/>
</linearGradient>
</defs>
</svg>
